# Blender v2.81 (sub 16) OBJ File: ''
# www.blender.org
mtllib boss_shield_front_collision.mtl
o Sphere.001_Sphere.003
v 1.477853 -1.477853 -0.347866
v 1.930908 -0.799809 -0.347865
v -1.343502 1.343503 -0.316242
v -1.755371 0.727099 -0.316242
v -1.899999 -0.000000 -0.316242
v -1.755371 -0.727099 -0.316242
v -1.343502 -1.343503 -0.316242
v 2.089999 -0.000000 -0.347865
v 1.930908 0.799808 -0.347865
v -1.241234 1.343503 -0.514136
v -1.621751 0.727099 -0.671751
v -1.755370 -0.000000 -0.727098
v -1.621751 -0.727099 -0.671751
v -1.241234 -1.343503 -0.514136
v 1.477853 1.477853 -0.347866
v 1.365358 -1.477853 -0.565549
v -0.949999 1.343503 -0.950000
v -1.241234 0.727099 -1.241235
v -1.343502 -0.000000 -1.343503
v -1.241234 -0.727099 -1.241235
v -0.949999 -1.343503 -0.950000
v 1.783926 -0.799809 -0.738925
v 1.930908 -0.000000 -0.799807
v -0.514136 1.343503 -1.241234
v -0.671751 0.727099 -1.621751
v -0.727098 -0.000000 -1.755370
v -0.671751 -0.727099 -1.621751
v -0.514136 -1.343503 -1.241234
v 1.783926 0.799808 -0.738925
v 1.365358 1.477853 -0.565549
v 0.000001 1.343503 -1.343502
v 0.000001 0.727099 -1.755370
v 0.000001 -0.000000 -1.899999
v 0.000001 -0.727099 -1.755370
v 0.000001 -1.343503 -1.343502
v 1.045000 -1.477853 -1.044999
v 1.365358 -0.799809 -1.365357
v 0.514137 1.343503 -1.241234
v 0.671752 0.727099 -1.621750
v 0.727099 -0.000000 -1.755370
v 0.671752 -0.727099 -1.621750
v 0.514137 -1.343503 -1.241234
v 1.477853 -0.000000 -1.477852
v 1.365358 0.799808 -1.365357
v 0.950000 1.343503 -0.949999
v 1.241235 0.727099 -1.241234
v 1.343503 -0.000000 -1.343502
v 1.241235 -0.727099 -1.241234
v 0.950000 -1.343503 -0.949999
v 1.045000 1.477853 -1.044999
v 0.565550 -1.477853 -1.365357
v 1.241235 1.343503 -0.514135
v 1.621751 0.727099 -0.671750
v 1.755371 -0.000000 -0.727097
v 1.621751 -0.727099 -0.671750
v 1.241235 -1.343503 -0.514135
v 0.738927 -0.799809 -1.783926
v 0.799809 -0.000000 -1.930907
v 1.343502 1.343503 -0.316241
v 1.755370 0.727099 -0.316241
v 1.899999 -0.000000 -0.316241
v 1.755370 -0.727099 -0.316241
v 1.343502 -1.343503 -0.316241
v 0.738927 0.799808 -1.783926
v 0.565550 1.477853 -1.365357
v 0.000001 -1.477853 -1.477852
v 0.000001 -0.799809 -1.930907
v 0.000001 -0.000000 -2.089999
v 0.000001 0.799808 -1.930907
v 0.000001 1.477853 -1.477852
v -0.565549 -1.477853 -1.365358
v -0.738926 -0.799809 -1.783926
v -0.799808 -0.000000 -1.930908
v -0.738926 0.799808 -1.783926
v -0.565549 1.477853 -1.365358
v -1.044999 -1.477853 -1.045000
v -1.365358 -0.799809 -1.365358
v -1.477852 -0.000000 -1.477853
v -1.365358 0.799808 -1.365358
v -1.044999 1.477853 -1.045000
v -1.365358 -1.477853 -0.565550
v -1.783926 -0.799809 -0.738926
v -1.930908 -0.000000 -0.799808
v -1.783926 0.799808 -0.738926
v -1.365358 1.477853 -0.565550
v -1.477853 -1.477853 -0.347866
v -1.930908 -0.799809 -0.347867
v -2.090000 -0.000000 -0.347867
v -1.930908 0.799808 -0.347867
v -1.477853 1.477853 -0.347866
vt 0.375000 0.250000
vt 0.437500 0.250000
vt 0.437500 0.250000
vt 0.375000 0.250000
vt 0.500000 0.375000
vt 0.437500 0.375000
vt 0.437500 0.500000
vt 0.500000 0.500000
vt 0.500000 0.625000
vt 0.437500 0.625000
vt 0.437500 0.750000
vt 0.500000 0.750000
vt 0.312500 0.750000
vt 0.250000 0.750000
vt 0.250000 0.750000
vt 0.312500 0.750000
vt 0.375000 0.750000
vt 0.375000 0.750000
vt 0.500000 0.250000
vt 0.187500 0.250000
vt 0.250000 0.250000
vt 0.250000 0.250000
vt 0.187500 0.250000
vt 0.375000 0.625000
vt 0.500000 0.250000
vt 0.125000 0.750000
vt 0.062500 0.750000
vt 0.062500 0.750000
vt 0.125000 0.750000
vt 0.375000 0.375000
vt 0.375000 0.500000
vt 0.125000 0.250000
vt 0.125000 0.250000
vt 0.000000 0.375000
vt 0.000000 0.250000
vt 0.000000 0.250000
vt 0.000000 0.375000
vt 0.000000 0.750000
vt 0.000000 0.750000
vt 0.312500 0.250000
vt 0.312500 0.375000
vt 0.312500 0.500000
vt 0.312500 0.625000
vt 0.500000 0.375000
vt 0.437500 0.750000
vt 0.000000 0.500000
vt 0.000000 0.500000
vt 0.500000 0.500000
vt 0.000000 0.625000
vt 0.000000 0.625000
vt 0.250000 0.375000
vt 0.250000 0.500000
vt 0.250000 0.625000
vt 0.187500 0.750000
vt 0.187500 0.750000
vt 0.312500 0.250000
vt 0.500000 0.750000
vt 0.187500 0.375000
vt 0.187500 0.500000
vt 0.187500 0.625000
vt 0.500000 0.625000
vt 0.062500 0.250000
vt 0.062500 0.250000
vt 0.125000 0.375000
vt 0.125000 0.500000
vt 0.125000 0.625000
vt 0.062500 0.375000
vt 0.062500 0.500000
vt 0.062500 0.625000
vt 0.062500 0.500000
vt 0.062500 0.625000
vt 0.062500 0.375000
vt 0.125000 0.625000
vt 0.125000 0.375000
vt 0.125000 0.500000
vt 0.187500 0.625000
vt 0.187500 0.375000
vt 0.187500 0.500000
vt 0.250000 0.500000
vt 0.250000 0.625000
vt 0.250000 0.375000
vt 0.312500 0.500000
vt 0.312500 0.625000
vt 0.312500 0.375000
vt 0.375000 0.625000
vt 0.375000 0.375000
vt 0.375000 0.500000
vt 0.437500 0.375000
vt 0.437500 0.500000
vt 0.437500 0.625000
vn 0.5936 -0.7002 0.3966
vn 0.9230 0.1894 0.3351
vn 0.7743 -0.5399 0.3301
vn 0.1393 0.7002 0.7002
vn 0.3966 0.7002 0.5936
vn 0.7743 0.5399 0.3301
vn 0.9230 -0.1894 0.3351
vn -0.1393 -0.7002 0.7002
vn 0.6954 -0.5481 0.4647
vn 0.6293 -0.7058 0.3252
vn -0.5936 0.7002 0.3966
vn 0.6954 0.5481 0.4647
vn 0.8161 -0.1915 0.5453
vn -0.3966 -0.7002 0.5936
vn 0.1391 -0.0930 0.9859
vn 0.8161 0.1915 0.5453
vn -0.6293 0.7058 0.3252
vn 0.4647 0.5481 0.6954
vn 0.5453 -0.1915 0.8161
vn -0.1391 -0.0930 0.9859
vn 0.5936 0.7002 0.3966
vn 0.5453 0.1915 0.8161
vn 0.4647 -0.5481 0.6954
vn 0.1641 -0.0326 0.9859
vn -0.1641 -0.0326 0.9859
vn 0.1641 0.0326 0.9859
vn 0.1915 0.1915 0.9626
vn 0.1632 -0.5481 0.8203
vn -0.1393 0.7002 0.7002
vn 0.1393 -0.7002 0.7002
vn 0.1632 0.5481 0.8203
vn 0.1915 -0.1915 0.9626
vn 0.6293 0.7058 0.3252
vn -0.1915 0.1915 0.9626
vn -0.1632 -0.5481 0.8203
vn 0.3966 -0.7002 0.5936
vn -0.1641 0.0326 0.9859
vn -0.1632 0.5481 0.8203
vn -0.1915 -0.1915 0.9626
vn 0.1391 0.0930 0.9859
vn -0.3966 0.7002 0.5936
vn -0.5936 -0.7002 0.3966
vn -0.4647 0.5481 0.6954
vn -0.5453 -0.1915 0.8161
vn -0.1391 0.0930 0.9859
vn -0.6293 -0.7058 0.3252
vn -0.5453 0.1915 0.8161
vn -0.4647 -0.5481 0.6954
vn -0.6954 0.5481 0.4647
vn -0.8161 -0.1915 0.5453
vn 0.9230 0.1894 -0.3351
vn 0.7743 -0.5399 -0.3301
vn -0.8161 0.1915 0.5453
vn -0.6954 -0.5481 0.4647
vn 0.7743 0.5399 -0.3301
vn 0.9230 -0.1894 -0.3351
vn 0.6954 0.5481 -0.4647
vn -0.9230 0.1894 0.3351
vn -0.7743 -0.5399 0.3301
vn 0.8161 -0.1915 -0.5453
vn 0.8161 0.1915 -0.5453
vn -0.7743 0.5399 0.3301
vn -0.9230 -0.1894 0.3351
vn 0.6954 -0.5481 -0.4647
vn 0.4647 0.5481 -0.6954
vn 0.5453 -0.1915 -0.8161
vn 0.5453 0.1915 -0.8161
vn 0.4647 -0.5481 -0.6954
vn 0.1915 0.1915 -0.9626
vn 0.1632 -0.5481 -0.8203
vn 0.1632 0.5481 -0.8203
vn 0.1915 -0.1915 -0.9626
vn -0.1915 0.1915 -0.9626
vn -0.1632 -0.5481 -0.8203
vn -0.1632 0.5481 -0.8203
vn -0.1915 -0.1915 -0.9626
vn -0.4647 0.5481 -0.6954
vn -0.5453 -0.1915 -0.8161
vn -0.5453 0.1915 -0.8161
vn -0.4647 -0.5481 -0.6954
vn -0.8161 -0.1915 -0.5453
vn -0.8161 0.1915 -0.5453
vn -0.6954 -0.5481 -0.4647
vn -0.6954 0.5481 -0.4647
vn -0.9230 0.1894 -0.3351
vn -0.7743 -0.5399 -0.3301
vn -0.7743 0.5399 -0.3301
vn -0.9230 -0.1894 -0.3351
usemtl None
s off
f 21/1/1 14/2/1 81/3/1 76/4/1
f 6/5/2 13/6/2 12/7/2 5/8/2
f 4/9/3 11/10/3 10/11/3 3/12/3
f 24/13/4 31/14/4 70/15/4 75/16/4
f 17/17/5 24/13/5 75/16/5 80/18/5
f 7/19/6 14/2/6 13/6/6 6/5/6
f 5/8/7 12/7/7 11/10/7 4/9/7
f 42/20/8 35/21/8 66/22/8 51/23/8
f 11/10/9 18/24/9 17/17/9 10/11/9
f 14/2/10 7/19/10 86/25/10 81/3/10
f 45/26/11 52/27/11 30/28/11 50/29/11
f 14/2/12 21/1/12 20/30/12 13/6/12
f 12/7/13 19/31/13 18/24/13 11/10/13
f 49/32/14 42/20/14 51/23/14 36/33/14
f 62/34/15 63/35/15 1/36/15 2/37/15
f 13/6/16 20/30/16 19/31/16 12/7/16
f 52/27/17 59/38/17 15/39/17 30/28/17
f 21/1/18 28/40/18 27/41/18 20/30/18
f 19/31/19 26/42/19 25/43/19 18/24/19
f 7/19/20 6/5/20 87/44/20 86/25/20
f 10/11/21 17/17/21 80/18/21 85/45/21
f 20/30/22 27/41/22 26/42/22 19/31/22
f 18/24/23 25/43/23 24/13/23 17/17/23
f 61/46/24 62/34/24 2/37/24 8/47/24
f 6/5/25 5/8/25 88/48/25 87/44/25
f 60/49/26 61/46/26 8/47/26 9/50/26
f 27/41/27 34/51/27 33/52/27 26/42/27
f 25/43/28 32/53/28 31/14/28 24/13/28
f 31/14/29 38/54/29 65/55/29 70/15/29
f 35/21/30 28/40/30 71/56/30 66/22/30
f 28/40/31 35/21/31 34/51/31 27/41/31
f 26/42/32 33/52/32 32/53/32 25/43/32
f 3/12/33 10/11/33 85/45/33 90/57/33
f 34/51/34 41/58/34 40/59/34 33/52/34
f 32/53/35 39/60/35 38/54/35 31/14/35
f 28/40/36 21/1/36 76/4/36 71/56/36
f 5/8/37 4/9/37 89/61/37 88/48/37
f 35/21/38 42/20/38 41/58/38 34/51/38
f 33/52/39 40/59/39 39/60/39 32/53/39
f 59/38/40 60/49/40 9/50/40 15/39/40
f 38/54/41 45/26/41 50/29/41 65/55/41
f 56/62/42 49/32/42 36/33/42 16/63/42
f 42/20/43 49/32/43 48/64/43 41/58/43
f 40/59/44 47/65/44 46/66/44 39/60/44
f 4/9/45 3/12/45 90/57/45 89/61/45
f 63/35/46 56/62/46 16/63/46 1/36/46
f 41/58/47 48/64/47 47/65/47 40/59/47
f 39/60/48 46/66/48 45/26/48 38/54/48
f 49/32/49 56/62/49 55/67/49 48/64/49
f 47/65/50 54/68/50 53/69/50 46/66/50
f 23/70/51 29/71/51 9/50/51 8/47/51
f 16/63/52 22/72/52 2/37/52 1/36/52
f 48/64/53 55/67/53 54/68/53 47/65/53
f 46/66/54 53/69/54 52/27/54 45/26/54
f 29/71/55 30/28/55 15/39/55 9/50/55
f 22/72/56 23/70/56 8/47/56 2/37/56
f 44/73/57 50/29/57 30/28/57 29/71/57
f 55/67/58 62/34/58 61/46/58 54/68/58
f 53/69/59 60/49/59 59/38/59 52/27/59
f 37/74/60 43/75/60 23/70/60 22/72/60
f 43/75/61 44/73/61 29/71/61 23/70/61
f 56/62/62 63/35/62 62/34/62 55/67/62
f 54/68/63 61/46/63 60/49/63 53/69/63
f 36/33/64 37/74/64 22/72/64 16/63/64
f 64/76/65 65/55/65 50/29/65 44/73/65
f 57/77/66 58/78/66 43/75/66 37/74/66
f 58/78/67 64/76/67 44/73/67 43/75/67
f 51/23/68 57/77/68 37/74/68 36/33/68
f 68/79/69 69/80/69 64/76/69 58/78/69
f 66/22/70 67/81/70 57/77/70 51/23/70
f 69/80/71 70/15/71 65/55/71 64/76/71
f 67/81/72 68/79/72 58/78/72 57/77/72
f 73/82/73 74/83/73 69/80/73 68/79/73
f 71/56/74 72/84/74 67/81/74 66/22/74
f 74/83/75 75/16/75 70/15/75 69/80/75
f 72/84/76 73/82/76 68/79/76 67/81/76
f 79/85/77 80/18/77 75/16/77 74/83/77
f 77/86/78 78/87/78 73/82/78 72/84/78
f 78/87/79 79/85/79 74/83/79 73/82/79
f 76/4/80 77/86/80 72/84/80 71/56/80
f 82/88/81 83/89/81 78/87/81 77/86/81
f 83/89/82 84/90/82 79/85/82 78/87/82
f 81/3/83 82/88/83 77/86/83 76/4/83
f 84/90/84 85/45/84 80/18/84 79/85/84
f 88/48/85 89/61/85 84/90/85 83/89/85
f 86/25/86 87/44/86 82/88/86 81/3/86
f 89/61/87 90/57/87 85/45/87 84/90/87
f 87/44/88 88/48/88 83/89/88 82/88/88
