# Blender v2.81 (sub 16) OBJ File: ''
# www.blender.org
mtllib boss_shield_back_collision.mtl
o Sphere.002_Sphere.004
v 1.209152 -1.209153 -0.284617
v -0.462722 -1.209153 -1.117111
v 0.769500 -1.088237 -0.769499
v 0.769500 1.088237 -0.769499
v 1.313619 0.588950 -0.544118
v 1.313619 -0.588950 -0.544118
v 1.421850 0.588950 -0.256155
v -1.117111 -1.209153 -0.462722
v -0.604576 -0.654389 -1.459576
v 1.421850 -0.588950 -0.256155
v 1.088237 -1.088237 -0.256156
v 1.005400 -1.088237 -0.416450
v 1.539000 -0.000000 -0.256155
v 1.421850 -0.000000 -0.588949
v -1.459576 -0.654389 -0.604576
v -0.654388 -0.000000 -1.579833
v 1.088237 1.088237 -0.256156
v 1.005400 1.088237 -0.416450
v -1.088237 -1.088237 -0.256156
v -1.421850 0.588950 -0.256156
v -1.313618 0.588950 -0.544119
v -1.579833 -0.000000 -0.654389
v -0.604576 0.654389 -1.459576
v -1.421850 -0.588950 -0.256156
v -1.313618 -0.588950 -0.544119
v 0.000001 -0.000000 -1.538999
v -1.088237 1.088237 -0.256156
v -1.539000 -0.000000 -0.256156
v -1.459576 0.654389 -0.604576
v -0.462722 1.209153 -1.117111
v -1.005400 0.588950 -1.005400
v 0.416451 -1.088237 -1.005399
v 0.000000 -1.088237 -1.088237
v -0.769499 1.088237 -0.769500
v -1.005400 1.088237 -0.416450
v -1.117111 1.209153 -0.462722
v -0.854999 -1.209153 -0.855000
v -1.005400 -0.588950 -1.005400
v 0.588950 -0.000000 -1.421850
v -1.421850 -0.000000 -0.588950
v -1.088237 -0.000000 -1.088237
v 0.000000 0.588950 -1.421850
v -1.209152 -1.209153 -0.284618
v -1.117111 -0.654389 -1.117111
v 0.544119 0.588950 -1.313618
v -1.005400 -1.088237 -0.416450
v -0.769499 -1.088237 -0.769500
v 0.000000 -0.588950 -1.421850
v 0.544119 -0.588950 -1.313618
v -1.579834 -0.654389 -0.284618
v -1.209152 -0.000000 -1.209152
v 1.005400 0.588950 -1.005399
v -0.588949 -0.000000 -1.421850
v -0.544118 0.588950 -1.313618
v -0.416450 1.088237 -1.005400
v 0.416451 1.088237 -1.005399
v -1.710000 -0.000000 -0.284618
v -1.117111 0.654389 -1.117111
v 0.000000 1.088237 -1.088237
v -0.416450 -1.088237 -1.005400
v -0.544118 -0.588950 -1.313618
v 1.005400 -0.588950 -1.005399
v 1.088238 -0.000000 -1.088236
v -1.579834 0.654389 -0.284618
v 1.579833 -0.654389 -0.284617
v 1.709999 -0.000000 -0.284617
v 1.579833 0.654389 -0.284617
v 1.209152 1.209153 -0.284617
v 1.117111 -1.209153 -0.462722
v 1.459576 -0.654389 -0.604575
v 1.579834 -0.000000 -0.654388
v 1.459576 0.654389 -0.604575
v 1.117111 1.209153 -0.462722
v 0.855000 -1.209153 -0.854999
v 1.117111 -0.654389 -1.117110
v 1.209153 -0.000000 -1.209152
v 1.117111 0.654389 -1.117110
v 0.855000 1.209153 -0.854999
v 0.462723 -1.209153 -1.117110
v 0.604577 -0.654389 -1.459575
v 0.654389 -0.000000 -1.579833
v 0.604577 0.654389 -1.459575
v 0.462723 1.209153 -1.117110
v 0.000000 -1.209153 -1.209152
v 0.000001 -0.654389 -1.579833
v -0.854999 1.209153 -0.855000
v 0.000001 -0.000000 -1.709999
v 0.000001 0.654389 -1.579833
v 0.000000 1.209153 -1.209152
v -1.209152 1.209153 -0.284618
vt 0.312500 0.500000
vt 0.312500 0.625000
vt 0.250000 0.625000
vt 0.250000 0.500000
vt 0.500000 0.375000
vt 0.500000 0.250000
vt 0.500000 0.250000
vt 0.500000 0.375000
vt 0.062500 0.250000
vt 0.000000 0.250000
vt 0.000000 0.250000
vt 0.062500 0.250000
vt 0.062500 0.375000
vt 0.000000 0.375000
vt 0.312500 0.250000
vt 0.312500 0.375000
vt 0.250000 0.375000
vt 0.250000 0.250000
vt 0.000000 0.500000
vt 0.000000 0.625000
vt 0.000000 0.625000
vt 0.000000 0.500000
vt 0.250000 0.250000
vt 0.312500 0.250000
vt 0.062500 0.500000
vt 0.062500 0.625000
vt 0.500000 0.750000
vt 0.500000 0.625000
vt 0.500000 0.625000
vt 0.500000 0.750000
vt 0.187500 0.750000
vt 0.250000 0.750000
vt 0.250000 0.750000
vt 0.187500 0.750000
vt 0.500000 0.500000
vt 0.500000 0.500000
vt 0.062500 0.750000
vt 0.000000 0.750000
vt 0.312500 0.750000
vt 0.125000 0.750000
vt 0.125000 0.750000
vt 0.062500 0.750000
vt 0.375000 0.375000
vt 0.375000 0.500000
vt 0.375000 0.250000
vt 0.375000 0.250000
vt 0.437500 0.750000
vt 0.437500 0.750000
vt 0.125000 0.625000
vt 0.375000 0.625000
vt 0.375000 0.750000
vt 0.187500 0.250000
vt 0.125000 0.250000
vt 0.125000 0.250000
vt 0.187500 0.250000
vt 0.000000 0.750000
vt 0.125000 0.375000
vt 0.125000 0.500000
vt 0.312500 0.750000
vt 0.375000 0.750000
vt 0.437500 0.375000
vt 0.437500 0.500000
vt 0.437500 0.250000
vt 0.437500 0.250000
vt 0.187500 0.375000
vt 0.187500 0.500000
vt 0.437500 0.625000
vt 0.187500 0.625000
vt 0.000000 0.375000
vt 0.250000 0.625000
vt 0.187500 0.625000
vt 0.437500 0.375000
vt 0.437500 0.500000
vt 0.250000 0.375000
vt 0.187500 0.375000
vt 0.187500 0.500000
vt 0.250000 0.500000
vt 0.437500 0.625000
vt 0.375000 0.375000
vt 0.125000 0.500000
vt 0.125000 0.625000
vt 0.375000 0.625000
vt 0.125000 0.375000
vt 0.375000 0.500000
vt 0.312500 0.375000
vt 0.062500 0.375000
vt 0.312500 0.500000
vt 0.312500 0.625000
vt 0.062500 0.500000
vt 0.062500 0.625000
vn -0.1915 0.1915 -0.9626
vn -0.1391 -0.0930 0.9859
vn -0.6293 -0.7058 0.3252
vn 0.7743 -0.5399 -0.3301
vn -0.1632 -0.5481 -0.8203
vn 0.1641 0.0326 0.9859
vn 0.1393 -0.7002 0.7002
vn 0.9230 0.1894 -0.3351
vn -0.1391 0.0930 0.9859
vn 0.9230 -0.1894 -0.3351
vn -0.1915 -0.1915 -0.9626
vn -0.1393 0.7002 0.7002
vn -0.1641 0.0326 0.9859
vn 0.7743 0.5399 -0.3301
vn -0.1632 0.5481 -0.8203
vn -0.5936 0.7002 0.3966
vn -0.5453 -0.1915 -0.8161
vn 0.3966 -0.7002 0.5936
vn 0.6293 0.7058 0.3252
vn 0.6954 0.5481 -0.4647
vn -0.4647 0.5481 -0.6954
vn -0.3966 -0.7002 0.5936
vn -0.6293 0.7058 0.3252
vn 0.8161 -0.1915 -0.5453
vn 0.8161 0.1915 -0.5453
vn -0.5453 0.1915 -0.8161
vn -0.1641 -0.0326 0.9859
vn 0.1393 0.7002 0.7002
vn 0.6954 -0.5481 -0.4647
vn -0.4647 -0.5481 -0.6954
vn -0.5936 -0.7002 0.3966
vn 0.3966 0.7002 0.5936
vn -0.8161 -0.1915 -0.5453
vn -0.3966 0.7002 0.5936
vn 0.5936 -0.7002 0.3966
vn 0.5453 -0.1915 -0.8161
vn -0.8161 0.1915 -0.5453
vn 0.1391 0.0930 0.9859
vn 0.5936 0.7002 0.3966
vn 0.4647 0.5481 -0.6954
vn 0.4647 -0.5481 -0.6954
vn -0.6954 0.5481 -0.4647
vn 0.1391 -0.0930 0.9859
vn 0.1641 -0.0326 0.9859
vn 0.5453 0.1915 -0.8161
vn -0.6954 -0.5481 -0.4647
vn 0.6293 -0.7058 0.3252
vn -0.1393 -0.7002 0.7002
vn -0.1632 -0.5481 0.8203
vn 0.9230 0.1894 0.3351
vn 0.1915 0.1915 -0.9626
vn -0.9230 0.1894 -0.3351
vn -0.1915 0.1915 0.9626
vn 0.7743 -0.5399 0.3301
vn 0.1632 -0.5481 -0.8203
vn -0.7743 -0.5399 -0.3301
vn -0.7743 0.5399 -0.3301
vn 0.7743 0.5399 0.3301
vn -0.1632 0.5481 0.8203
vn 0.1915 -0.1915 -0.9626
vn -0.9230 -0.1894 -0.3351
vn 0.9230 -0.1894 0.3351
vn -0.1915 -0.1915 0.9626
vn 0.1632 0.5481 -0.8203
vn 0.6954 0.5481 0.4647
vn -0.5453 -0.1915 0.8161
vn 0.6954 -0.5481 0.4647
vn -0.4647 0.5481 0.6954
vn -0.4647 -0.5481 0.6954
vn 0.8161 -0.1915 0.5453
vn -0.5453 0.1915 0.8161
vn 0.8161 0.1915 0.5453
vn 0.4647 0.5481 0.6954
vn -0.6954 0.5481 0.4647
vn 0.5453 -0.1915 0.8161
vn -0.8161 -0.1915 0.5453
vn -0.8161 0.1915 0.5453
vn 0.4647 -0.5481 0.6954
vn -0.6954 -0.5481 0.4647
vn 0.5453 0.1915 0.8161
vn 0.1632 -0.5481 0.8203
vn -0.7743 -0.5399 0.3301
vn 0.1915 0.1915 0.9626
vn -0.9230 0.1894 0.3351
vn -0.9230 -0.1894 0.3351
vn 0.1632 0.5481 0.8203
vn -0.7743 0.5399 0.3301
vn 0.1915 -0.1915 0.9626
usemtl None
s off
f 16/1/1 23/2/1 88/3/1 87/4/1
f 50/5/2 43/6/2 19/7/2 24/8/2
f 69/9/3 1/10/3 11/11/3 12/12/3
f 69/9/4 70/13/4 65/14/4 1/10/4
f 2/15/5 9/16/5 85/17/5 84/18/5
f 66/19/6 67/20/6 7/21/6 13/22/6
f 2/15/7 84/18/7 33/23/7 60/24/7
f 71/25/8 72/26/8 67/20/8 66/19/8
f 90/27/9 64/28/9 20/29/9 27/30/9
f 70/13/10 71/25/10 66/19/10 65/14/10
f 9/16/11 16/1/11 87/4/11 85/17/11
f 83/31/12 89/32/12 59/33/12 56/34/12
f 64/28/13 57/35/13 28/36/13 20/29/13
f 72/26/14 73/37/14 68/38/14 67/20/14
f 23/2/15 30/39/15 89/32/15 88/3/15
f 73/37/16 78/40/16 4/41/16 18/42/16
f 44/43/17 51/44/17 16/1/17 9/16/17
f 37/45/18 2/15/18 60/24/18 47/46/18
f 36/47/19 90/27/19 27/30/19 35/48/19
f 77/49/20 78/40/20 73/37/20 72/26/20
f 58/50/21 86/51/21 30/39/21 23/2/21
f 79/52/22 74/53/22 3/54/22 32/55/22
f 68/38/23 73/37/23 18/42/23 17/56/23
f 75/57/24 76/58/24 71/25/24 70/13/24
f 76/58/25 77/49/25 72/26/25 71/25/25
f 51/44/26 58/50/26 23/2/26 16/1/26
f 57/35/27 50/5/27 24/8/27 28/36/27
f 89/32/28 30/39/28 55/59/28 59/33/28
f 74/53/29 75/57/29 70/13/29 69/9/29
f 37/45/30 44/43/30 9/16/30 2/15/30
f 74/53/31 69/9/31 12/12/31 3/54/31
f 30/39/32 86/51/32 34/60/32 55/59/32
f 15/61/33 22/62/33 51/44/33 44/43/33
f 78/40/34 83/31/34 56/34/34 4/41/34
f 8/63/35 37/45/35 47/46/35 46/64/35
f 80/65/36 81/66/36 76/58/36 75/57/36
f 22/62/37 29/67/37 58/50/37 51/44/37
f 67/20/38 68/38/38 17/56/38 7/21/38
f 86/51/39 36/47/39 35/48/39 34/60/39
f 82/68/40 83/31/40 78/40/40 77/49/40
f 79/52/41 80/65/41 75/57/41 74/53/41
f 29/67/42 36/47/42 86/51/42 58/50/42
f 1/10/43 65/14/43 10/69/43 11/11/43
f 65/14/44 66/19/44 13/22/44 10/69/44
f 81/66/45 82/68/45 77/49/45 76/58/45
f 8/63/46 15/61/46 44/43/46 37/45/46
f 43/6/47 8/63/47 46/64/47 19/7/47
f 84/18/48 79/52/48 32/55/48 33/23/48
f 42/70/49 45/71/49 56/34/49 59/33/49
f 24/8/50 25/72/50 40/73/50 28/36/50
f 87/4/51 88/3/51 82/68/51 81/66/51
f 57/35/52 64/28/52 29/67/52 22/62/52
f 48/74/53 49/75/53 39/76/53 26/77/53
f 20/29/54 21/78/54 35/48/54 27/30/54
f 84/18/55 85/17/55 80/65/55 79/52/55
f 43/6/56 50/5/56 15/61/56 8/63/56
f 64/28/57 90/27/57 36/47/57 29/67/57
f 19/7/58 46/64/58 25/72/58 24/8/58
f 33/23/59 32/55/59 49/75/59 48/74/59
f 85/17/60 87/4/60 81/66/60 80/65/60
f 50/5/61 57/35/61 22/62/61 15/61/61
f 28/36/62 40/73/62 21/78/62 20/29/62
f 26/77/63 39/76/63 45/71/63 42/70/63
f 88/3/64 89/32/64 83/31/64 82/68/64
f 46/64/65 47/46/65 38/79/65 25/72/65
f 39/76/66 63/80/66 52/81/66 45/71/66
f 21/78/67 31/82/67 34/60/67 35/48/67
f 32/55/68 3/54/68 62/83/68 49/75/68
f 45/71/69 52/81/69 4/41/69 56/34/69
f 40/73/70 41/84/70 31/82/70 21/78/70
f 49/75/71 62/83/71 63/80/71 39/76/71
f 25/72/72 38/79/72 41/84/72 40/73/72
f 47/46/73 60/24/73 61/85/73 38/79/73
f 3/54/74 12/12/74 6/86/74 62/83/74
f 41/84/75 53/87/75 54/88/75 31/82/75
f 63/80/76 14/89/76 5/90/76 52/81/76
f 62/83/77 6/86/77 14/89/77 63/80/77
f 31/82/78 54/88/78 55/59/78 34/60/78
f 52/81/79 5/90/79 18/42/79 4/41/79
f 38/79/80 61/85/80 53/87/80 41/84/80
f 54/88/81 42/70/81 59/33/81 55/59/81
f 5/90/82 7/21/82 17/56/82 18/42/82
f 61/85/83 48/74/83 26/77/83 53/87/83
f 6/86/84 10/69/84 13/22/84 14/89/84
f 14/89/85 13/22/85 7/21/85 5/90/85
f 60/24/86 33/23/86 48/74/86 61/85/86
f 12/12/87 11/11/87 10/69/87 6/86/87
f 53/87/88 26/77/88 42/70/88 54/88/88
