# Blender v2.81 (sub 16) OBJ File: ''
# www.blender.org
mtllib bumper_cage.mtl
o Cylinder.003_Cylinder.007
v 0.000000 -0.400000 -1.000000
v 0.000000 0.400000 -1.000000
v 0.406737 0.400000 -0.913545
v 0.406737 -0.400000 -0.913545
v 0.743145 0.400000 -0.669131
v 0.743145 -0.400000 -0.669131
v 0.951057 0.400000 -0.309017
v 0.951057 -0.400000 -0.309017
v 0.994522 0.400000 0.104529
v 0.994522 -0.400000 0.104529
v 0.866025 0.400000 0.500000
v 0.866025 -0.400000 0.500000
v 0.587785 0.400000 0.809017
v 0.587785 -0.400000 0.809017
v 0.207912 0.400000 0.978148
v 0.207912 -0.400000 0.978148
v -0.207912 0.400000 0.978148
v -0.207912 -0.400000 0.978148
v -0.587785 0.400000 0.809017
v -0.587785 -0.400000 0.809017
v -0.994522 -0.400000 0.104528
v -0.994522 0.400000 0.104528
v -0.951056 0.400000 -0.309017
v -0.951056 -0.400000 -0.309017
v -0.743145 0.400000 -0.669131
v -0.743145 -0.400000 -0.669131
v -0.406736 0.400000 -0.913546
v -0.406736 -0.400000 -0.913546
v 0.668830 -0.400000 -0.602218
v 0.855951 -0.400000 -0.278115
v 0.855951 0.400000 -0.278115
v 0.668830 0.400000 -0.602218
v 0.187120 -0.400000 0.880333
v -0.187121 -0.400000 0.880333
v -0.187121 0.400000 0.880333
v 0.187120 0.400000 0.880333
v -0.855951 -0.400000 -0.278115
v -0.668830 -0.400000 -0.602218
v -0.668830 0.400000 -0.602218
v -0.855951 0.400000 -0.278115
v 0.272686 -0.400000 0.349112
v 0.529007 -0.400000 0.728115
v 0.895070 0.400000 0.094076
v 0.779423 0.400000 0.450000
v -0.366063 0.400000 -0.822191
v 0.000000 0.400000 -0.900000
v 0.366063 0.400000 -0.822191
v 0.779423 -0.400000 0.450000
v 0.000000 -0.400000 -0.900000
v -0.366063 -0.400000 -0.822191
v 0.529007 0.400000 0.728115
v 0.366063 -0.400000 -0.822191
v -0.895070 -0.400000 0.094076
v -0.895070 0.400000 0.094076
v 0.895070 -0.400000 0.094076
v -0.529007 -0.400000 0.728115
v -0.529007 0.400000 0.728115
v -0.165996 0.400000 -0.410709
v -0.165996 -0.400000 -0.410709
v -0.380885 -0.400000 0.524243
v -0.380885 0.400000 0.524243
v -0.644450 -0.400000 0.067734
v -0.644450 0.400000 0.067734
v 0.000000 0.400000 -0.451757
v 0.165997 0.400000 -0.410709
v 0.272686 0.400000 0.349112
v 0.165997 -0.400000 -0.410709
v 0.000000 -0.400000 -0.451757
v 0.391233 0.400000 0.225878
v 0.391233 -0.400000 0.225878
v 0.438683 -0.400000 0.061597
v 0.438683 0.400000 0.061597
vt 1.000000 0.500000
vt 1.000000 1.000000
vt 0.933333 1.000000
vt 0.933333 0.500000
vt 0.866667 1.000000
vt 0.866667 0.500000
vt 0.800000 1.000000
vt 0.800000 0.500000
vt 0.733333 1.000000
vt 0.733333 0.500000
vt 0.666667 1.000000
vt 0.666667 0.500000
vt 0.600000 1.000000
vt 0.600000 0.500000
vt 0.533333 1.000000
vt 0.533333 0.500000
vt 0.466667 1.000000
vt 0.466667 0.500000
vt 0.400000 1.000000
vt 0.400000 0.500000
vt 0.266667 0.500000
vt 0.266667 1.000000
vt 0.200000 1.000000
vt 0.200000 0.500000
vt 0.133333 1.000000
vt 0.133333 0.500000
vt 0.066667 1.000000
vt 0.066667 0.500000
vt 0.000000 1.000000
vt 0.000000 0.500000
vt 0.866667 0.500000
vt 0.800000 0.500000
vt 0.800000 1.000000
vt 0.866667 1.000000
vt 0.533333 0.500000
vt 0.466667 0.500000
vt 0.466667 1.000000
vt 0.533333 1.000000
vt 0.200000 0.500000
vt 0.133333 0.500000
vt 0.133333 1.000000
vt 0.200000 1.000000
vt 0.000000 0.000000
vt 0.000000 0.000000
vt 0.000000 0.000000
vt 0.733333 1.000000
vt 0.666667 1.000000
vt 0.066667 1.000000
vt 1.000000 1.000000
vt 0.933333 1.000000
vt 0.600000 0.500000
vt 0.666667 0.500000
vt 0.000000 0.500000
vt 0.066667 0.500000
vt 0.600000 1.000000
vt 0.000000 1.000000
vt 0.933333 0.500000
vt 0.266667 0.500000
vt 0.266667 1.000000
vt 0.733333 0.500000
vt 0.400000 0.500000
vt 0.400000 1.000000
vt 1.000000 0.500000
vt 0.000000 0.000000
vt 0.000000 0.000000
vt 0.000000 0.000000
vt 0.000000 0.000000
vt 0.000000 0.000000
vt 0.000000 0.000000
vt 0.000000 0.000000
vt 0.000000 0.000000
vt 0.000000 0.000000
vt 0.000000 0.000000
vt 0.000000 0.000000
vt 0.000000 0.000000
vt 0.000000 0.000000
vt 0.000000 0.000000
vt 0.000000 0.000000
vt 0.066667 1.000000
vt 0.000000 1.000000
vt 1.000000 1.000000
vt 0.933333 1.000000
vt 0.000000 0.000000
vt 0.000000 0.000000
vt 0.000000 0.000000
vt 0.000000 0.000000
vt 0.000000 0.000000
vt 0.000000 0.000000
vt 0.000000 0.000000
vt 0.000000 0.000000
vt 0.000000 0.000000
vt 0.000000 0.000000
vt 0.000000 0.000000
vt 0.000000 0.000000
vt 0.000000 0.000000
vt 0.933333 0.500000
vt 1.000000 0.500000
vt 0.000000 0.500000
vt 0.066667 0.500000
vt 0.000000 0.000000
vt 0.000000 0.000000
vt 0.666667 1.000000
vt 0.600000 1.000000
vt 0.666667 0.500000
vt 0.733333 0.500000
vt 0.600000 0.500000
vt 0.000000 0.000000
vt 0.000000 0.000000
vt 0.000000 0.000000
vt 0.000000 0.000000
vt 0.000000 0.000000
vt 0.000000 0.000000
vt 0.000000 0.000000
vt 0.000000 0.000000
vt 0.733333 1.000000
vt 0.000000 0.000000
vt 0.000000 0.000000
vt 0.000000 0.000000
vn 0.2079 0.0000 -0.9781
vn 0.5878 0.0000 -0.8090
vn 0.8660 0.0000 -0.5000
vn 0.9945 -0.0000 -0.1045
vn 0.9511 0.0000 0.3090
vn 0.7431 -0.0000 0.6691
vn 0.4067 -0.0000 0.9135
vn 0.0000 -0.0000 1.0000
vn -0.4067 -0.0000 0.9135
vn -0.9945 0.0000 -0.1045
vn -0.8660 0.0000 -0.5000
vn -0.5878 0.0000 -0.8090
vn -0.2079 0.0000 -0.9781
vn -0.8660 -0.0000 0.5000
vn 0.0000 0.0000 -1.0000
vn 0.8660 -0.0000 0.5000
vn 0.0000 -1.0000 -0.0000
vn 0.0000 1.0000 0.0000
vn -0.3559 -0.0000 0.9345
vn 0.8784 0.0000 -0.4780
vn 0.8531 0.0000 -0.5217
vn -0.9873 0.0000 -0.1590
vn -0.8090 0.0000 -0.5878
vn 0.1045 -0.0000 0.9945
vn -0.2401 -0.0000 0.9708
vn 0.2401 -0.0000 0.9708
vn 0.3559 -0.0000 0.9345
vn -0.6314 0.0000 -0.7755
vn -0.9607 0.0000 -0.2775
vn -0.7207 0.0000 -0.6933
usemtl None
s 1
f 1/1/1 2/2/1 3/3/1 4/4/1
f 4/4/2 3/3/2 5/5/2 6/6/2
f 6/6/3 5/5/3 7/7/3 8/8/3
f 8/8/4 7/7/4 9/9/4 10/10/4
f 10/10/5 9/9/5 11/11/5 12/12/5
f 12/12/6 11/11/6 13/13/6 14/14/6
f 14/14/7 13/13/7 15/15/7 16/16/7
f 16/16/8 15/15/8 17/17/8 18/18/8
f 18/18/9 17/17/9 19/19/9 20/20/9
f 21/21/10 22/22/10 23/23/10 24/24/10
f 24/24/11 23/23/11 25/25/11 26/26/11
f 26/26/12 25/25/12 27/27/12 28/28/12
f 28/28/13 27/27/13 2/29/13 1/30/13
f 29/31/14 30/32/14 31/33/14 32/34/14
f 33/35/15 34/36/15 35/37/15 36/38/15
f 37/39/16 38/40/16 39/41/16 40/42/16
f 41/43/17 42/44/17 33/45/17
f 9/9/18 43/46/18 44/47/18 11/11/18
f 25/25/18 39/41/18 45/48/18 27/27/18
f 2/2/18 46/49/18 47/50/18 3/3/18
f 14/14/17 42/51/17 48/52/17 12/12/17
f 1/30/17 49/53/17 50/54/17 28/28/17
f 11/11/18 44/47/18 51/55/18 13/13/18
f 27/27/18 45/48/18 46/56/18 2/29/18
f 6/6/17 29/31/17 52/57/17 4/4/17
f 3/3/18 47/50/18 32/34/18 5/5/18
f 16/16/17 33/35/17 42/51/17 14/14/17
f 13/13/18 51/55/18 36/38/18 15/15/18
f 8/8/17 30/32/17 29/31/17 6/6/17
f 24/24/17 37/39/17 53/58/17 21/21/17
f 5/5/18 32/34/18 31/33/18 7/7/18
f 22/22/18 54/59/18 40/42/18 23/23/18
f 18/18/17 34/36/17 33/35/17 16/16/17
f 15/15/18 36/38/18 35/37/18 17/17/18
f 10/10/17 55/60/17 30/32/17 8/8/17
f 26/26/17 38/40/17 37/39/17 24/24/17
f 7/7/18 31/33/18 43/46/18 9/9/18
f 23/23/18 40/42/18 39/41/18 25/25/18
f 20/20/17 56/61/17 34/36/17 18/18/17
f 17/17/18 35/37/18 57/62/18 19/19/18
f 12/12/17 48/52/17 55/60/17 10/10/17
f 28/28/17 50/54/17 38/40/17 26/26/17
f 4/4/17 52/57/17 49/63/17 1/1/17
f 58/64/19 39/65/19 59/66/19
f 35/67/20 34/68/20 60/69/20
f 60/69/17 34/68/17 56/70/17
f 35/67/20 60/69/20 61/71/20
f 61/71/18 57/72/18 35/67/18
f 40/73/21 62/74/21 37/75/21
f 62/74/17 53/76/17 37/75/17
f 40/73/21 63/77/21 62/74/21
f 63/77/18 40/73/18 54/78/18
f 46/56/18 45/48/18 58/79/18 64/80/18
f 47/50/18 46/49/18 64/81/18 65/82/18
f 66/83/18 36/84/18 51/85/18
f 66/83/22 41/43/22 36/84/22
f 50/86/17 59/66/17 38/87/17
f 61/71/23 60/69/23 56/70/23
f 61/71/23 56/70/23 57/72/23
f 63/77/24 53/76/24 62/74/24
f 57/72/23 56/70/23 20/88/23
f 57/72/23 20/88/23 19/89/23
f 21/90/24 53/76/24 54/78/24
f 22/91/24 21/90/24 54/78/24
f 54/78/24 53/76/24 63/77/24
f 67/92/25 64/93/25 68/94/25
f 64/93/26 58/64/26 68/94/26
f 58/64/26 59/66/26 68/94/26
f 64/93/25 67/92/25 65/95/25
f 49/63/17 52/57/17 67/96/17 68/97/17
f 50/54/17 49/53/17 68/98/17 59/99/17
f 32/100/27 67/92/27 29/101/27
f 36/84/22 41/43/22 33/45/22
f 51/55/18 44/47/18 69/102/18 66/103/18
f 55/60/17 48/52/17 70/104/17 71/105/17
f 48/52/17 42/51/17 41/106/17 70/104/17
f 31/107/18 72/108/18 43/109/18
f 72/108/28 31/107/28 30/110/28
f 30/110/17 55/111/17 71/112/17
f 72/108/29 71/112/29 70/113/29
f 72/108/29 70/113/29 69/114/29
f 69/114/30 70/113/30 41/43/30
f 69/114/30 41/43/30 66/83/30
f 44/47/18 43/46/18 72/115/18 69/102/18
f 72/108/28 30/110/28 71/112/28
f 58/64/18 45/116/18 39/65/18
f 59/66/19 39/65/19 38/87/19
f 32/100/27 65/95/27 67/92/27
f 47/117/18 65/95/18 32/100/18
f 67/92/17 52/118/17 29/101/17
