# Blender v2.81 (sub 16) OBJ File: 'playfield_models.blend'
# www.blender.org
mtllib col_louie_entrance.mtl
o droptargets_col_Plane.008
v 0.280501 0.000000 -0.016809
v -0.010845 0.000000 -0.319938
v -0.228457 0.000000 -0.637917
v -0.383310 0.000000 -0.979605
v 0.621422 0.000000 0.218250
v 0.622846 0.000000 0.377453
v 0.031081 0.000000 0.872601
v -0.033283 0.000000 0.873745
v -0.522423 0.000000 -0.795616
v -0.509130 0.000000 -0.976881
v 0.280501 0.400000 -0.016809
v -0.010845 0.400000 -0.319938
v -0.228457 0.400000 -0.637917
v -0.383310 0.400000 -0.979605
v 0.621422 0.400000 0.218249
v 0.622846 0.400000 0.377453
v 0.031081 0.400000 0.872601
v -0.033283 0.400000 0.873745
v -0.522423 0.400000 -0.795616
v -0.509130 0.400000 -0.976880
vt 0.000000 0.000000
vt 0.000000 0.000000
vt 0.000000 0.000000
vt 0.000000 0.000000
vt 0.000000 0.000000
vt 0.000000 0.000000
vt 0.000000 0.000000
vt 0.000000 0.000000
vt 0.000000 0.000000
vt 0.000000 0.000000
vt 0.000000 0.000000
vt 0.000000 0.000000
vt 0.000000 0.000000
vt 0.000000 0.000000
vt 0.000000 0.000000
vt 0.000000 0.000000
vt 0.000000 0.000000
vt 0.000000 0.000000
vt 0.000000 0.000000
vt 0.000000 0.000000
vn 0.0000 1.0000 0.0000
vn 0.5676 0.0000 -0.8233
vn 0.6417 -0.0000 0.7669
vn 1.0000 -0.0000 -0.0089
vn -0.0216 0.0000 -0.9998
vn 0.7210 0.0000 -0.6930
vn 0.0178 -0.0000 0.9998
vn 0.8253 -0.0000 -0.5648
vn -0.9597 0.0000 0.2812
vn 0.9108 0.0000 -0.4128
vn -0.9973 0.0000 -0.0731
vn 0.0000 -1.0000 0.0000
usemtl None
s off
f 16/1/1 15/2/1 11/3/1
f 18/4/1 12/5/1 19/6/1
f 11/3/1 18/4/1 17/7/1
f 20/8/1 19/6/1 14/9/1
f 5/10/2 1/11/2 11/3/2 15/2/2
f 6/12/3 16/1/3 17/7/3 7/13/3
f 6/12/4 5/10/4 15/2/4 16/1/4
f 4/14/5 10/15/5 20/8/5 14/9/5
f 1/11/6 2/16/6 12/5/6 11/3/6
f 8/17/7 7/13/7 17/7/7 18/4/7
f 2/16/8 3/18/8 13/19/8 12/5/8
f 9/20/9 8/17/9 18/4/9 19/6/9
f 3/18/10 4/14/10 14/9/10 13/19/10
f 10/15/11 9/20/11 19/6/11 20/8/11
f 18/4/1 11/3/1 12/5/1
f 3/18/12 9/20/12 4/14/12
f 19/6/1 13/19/1 14/9/1
f 16/1/1 11/3/1 17/7/1
f 12/5/1 13/19/1 19/6/1
f 1/11/12 6/12/12 7/13/12
f 3/18/12 2/16/12 9/20/12
f 8/17/12 2/16/12 1/11/12
f 5/10/12 6/12/12 1/11/12
f 9/20/12 10/15/12 4/14/12
f 8/17/12 1/11/12 7/13/12
f 2/16/12 8/17/12 9/20/12
