# Blender v2.81 (sub 16) OBJ File: 'playfield_models.blend'
# www.blender.org
mtllib col_upper_ramps.mtl
o back_COL_Plane
v 4.194627 0.000000 3.195711
v 3.211631 0.000000 3.195711
v 3.209558 0.000000 4.374262
v 4.190935 0.000000 4.430645
v 4.194627 0.000000 0.607691
v 0.000000 0.000000 0.000000
v 4.194627 0.000000 3.995711
v 3.211631 0.000000 3.995711
v 3.211631 0.000000 3.595711
v 4.194627 0.000000 3.595711
v 3.172398 0.000000 2.802621
v 3.056137 0.000000 2.376969
v 2.839733 0.000000 1.992449
v 2.600384 0.000000 1.645554
v 2.320335 0.000000 1.333976
v 2.003853 0.000000 1.094363
v 1.636808 0.000000 0.861718
v 1.215744 0.000000 0.662662
v 0.853439 0.000000 0.602072
v 0.486354 0.000000 0.613046
v 0.168574 0.000000 0.765771
v 0.051377 0.000000 0.888494
v 3.191528 0.000000 4.737647
v 4.169580 0.000000 4.836090
v 3.144473 0.000000 5.105090
v 4.113750 0.000000 5.268678
v 3.062602 0.000000 5.472878
v 4.021159 0.000000 5.690703
v 3.885238 0.000000 6.097013
v -4.199999 0.000000 3.195711
v -3.194438 0.000000 3.195711
v 3.211631 0.400000 3.195711
v -3.192364 0.000000 4.374262
v -4.199999 0.000000 4.492064
v -4.199999 0.000000 0.001338
v -4.199999 0.000000 4.002623
v -3.194438 0.000000 3.995711
v -3.194438 0.000000 3.595711
v -4.199999 0.000000 3.595711
v -3.149152 0.400000 2.790541
v -3.038943 0.000000 2.385371
v -2.822539 0.000000 1.992449
v -2.583190 0.000000 1.645554
v -2.303141 0.000000 1.333976
v -1.986659 0.000000 1.094363
v -1.619615 0.000000 0.861718
v -1.198550 0.000000 0.662662
v -0.836245 0.000000 0.602072
v -0.469161 0.000000 0.613046
v -0.151381 0.000000 0.765771
v -0.034184 0.000000 0.888494
v 4.194627 0.400000 3.195711
v -3.174334 0.000000 4.737647
v -4.199999 0.000000 4.941688
v -3.127279 0.000000 5.105090
v -4.199999 0.000000 5.425075
v -3.045408 0.000000 5.472878
v -4.199999 0.000000 5.896658
v 3.209558 0.293236 4.374262
v 4.190935 0.291460 4.430645
v 4.194627 0.400000 0.607691
v 0.000000 0.397809 -0.041812
v 4.194627 0.367815 3.995711
v 3.211631 0.359384 3.995711
v 3.211631 0.400000 3.595711
v 4.194627 0.400000 3.595711
v 3.172398 0.400000 2.802621
v 3.056137 0.400000 2.376969
v 2.839733 0.400000 1.992449
v 2.600384 0.400000 1.645553
v 2.320335 0.400000 1.333976
v 2.003853 0.400000 1.094363
v 1.636808 0.400000 0.861718
v 1.215744 0.400000 0.662661
v 0.860871 0.400000 0.602072
v 0.486354 0.400000 0.613045
v 0.168574 0.400000 0.765771
v 0.051377 0.400000 0.888494
v 3.191528 0.200863 4.737647
v 4.169580 0.201437 4.836090
v 3.144473 0.106154 5.105090
v 4.113750 0.105043 5.268678
v 3.062602 0.034293 5.472878
v 4.021159 0.031565 5.690703
v 2.935696 0.000000 5.842751
v -4.199999 0.400000 3.195711
v -3.194438 0.400000 3.195711
v -3.192364 0.293236 4.374262
v -4.199999 0.291460 4.484705
v -4.199999 0.367815 3.995711
v -3.194438 0.366968 3.995711
v -3.194438 0.400000 3.595711
v -4.199999 0.400000 3.595711
v -3.149152 0.000000 2.790541
v -3.038943 0.400000 2.385371
v -2.822539 0.400000 1.992449
v -2.583191 0.400000 1.645553
v -2.303141 0.400000 1.333976
v -1.986659 0.400000 1.094363
v -1.619615 0.400000 0.861718
v -1.198550 0.400000 0.662661
v -0.836245 0.400000 0.602072
v -0.469161 0.400000 0.613045
v -0.151381 0.400000 0.765771
v -0.034184 0.400000 0.888494
v -3.174334 0.200863 4.737647
v -4.199999 0.201437 4.936674
v -3.127279 0.106154 5.105090
v -4.199999 0.105043 5.422501
v -3.045408 0.034293 5.472878
v -4.199999 0.031565 5.895904
v -2.918502 0.000000 5.842751
v -4.199999 0.000000 6.350681
v 4.800000 0.000000 4.430645
v 4.800000 0.000000 3.995711
v 4.800000 0.000000 3.595711
v 4.800000 0.000000 3.195711
v 4.800000 0.000000 0.001338
v 4.800000 0.000000 4.836090
v 4.800000 0.000000 5.268678
v 4.800000 0.000000 5.690703
v 4.800000 0.000000 6.097013
v 4.800000 0.400000 3.195711
v 4.800000 0.397950 -0.040473
v -1.962984 0.400000 0.492956
v -2.427069 0.400000 0.874634
v -2.197089 0.400000 0.667473
v -0.502088 0.400000 0.040432
v -1.022549 0.400000 0.106097
v -1.465184 0.400000 0.247157
v 4.194627 1.000000 3.595711
v 4.190935 0.891460 4.430645
v 0.860871 0.397834 -0.041571
v 4.194627 0.967815 3.995711
v 4.194627 1.000000 3.195711
v 4.169580 0.801437 4.836090
v 4.113750 0.705043 5.268678
v 4.021159 0.631565 5.690703
v 4.800000 0.705060 5.268678
v 0.860871 0.994547 -0.104288
v 4.800000 0.994663 -0.103190
v 3.885238 0.602428 6.097013
v 4.800000 0.891477 4.430645
v 4.800000 0.967832 3.995711
v 4.800000 1.000017 3.595711
v 4.800000 1.000017 3.195711
v 4.800000 0.801454 4.836090
v 4.800000 0.631582 5.690703
v 4.800000 0.602445 6.097013
v 0.860871 1.000000 0.602072
v 3.902441 0.000000 7.819796
v 3.885238 0.600000 6.097013
v -4.199999 0.400000 2.385371
v -4.199999 0.000000 2.385371
v -4.199999 0.400000 2.790541
v -4.199999 0.000000 2.790541
v 3.902441 0.600000 7.819796
v 3.628900 0.000000 7.667028
v 3.628900 0.600000 7.667028
v 0.878548 0.000000 0.000246
v 4.800000 0.995225 0.594921
v 4.194897 0.994645 -0.103355
v 0.860871 0.995349 -0.041571
v 0.859525 0.994603 -0.104537
v 0.860871 0.797834 -0.041571
v -2.197089 0.799573 0.667473
v -1.465184 0.799157 0.247157
v -0.502088 0.798609 0.040432
v -2.427069 0.799704 0.874634
v 0.000000 0.798324 -0.041812
v -1.022549 0.798905 0.106097
v -1.962984 0.799440 0.492956
v 0.860871 0.797834 -0.083683
v 0.000000 0.798324 -0.083924
v -4.199999 0.397950 -0.040473
v -2.428370 0.800000 -0.083463
v 3.733425 0.400000 1.324425
v 3.453328 0.400000 1.090281
v 3.016047 0.400000 0.724740
v 4.194627 0.400000 1.709963
v 3.152867 0.400000 0.839113
v 2.873362 0.400000 0.605464
v 3.293664 0.400000 0.956812
v 2.904506 0.400000 0.631498
v 3.601364 0.400000 1.214030
v 4.194627 1.000000 1.709963
v 4.194627 1.000000 0.607691
v 2.873362 1.000000 0.605464
v 3.601364 1.000000 1.214030
v 3.733425 1.000000 1.324425
v 3.016047 1.000000 0.724740
v 3.152867 1.000000 0.839113
v 3.293664 1.000000 0.956812
v 2.904506 1.000000 0.631498
v 3.453328 1.000000 1.090281
v -2.428370 0.400000 -0.041422
v 3.893839 0.000000 6.958405
v 3.757069 0.000000 6.882020
v 4.800000 0.000000 6.958405
v 3.893839 0.600000 6.958405
v 4.800000 0.602445 6.958405
v 3.757069 0.601214 6.882020
v 4.102150 0.601223 7.819796
v 4.102150 0.000000 7.819796
v 4.097850 0.601223 6.958405
v 4.097850 0.000000 6.958405
vt 0.000000 0.000000
vt 0.000000 0.000000
vt 0.000000 0.000000
vt 0.000000 0.000000
vt 0.000000 0.000000
vt 0.000000 0.000000
vt 0.000000 0.000000
vt 0.000000 0.000000
vt 0.000000 0.000000
vt 0.000000 0.000000
vt 0.000000 0.000000
vt 0.000000 0.000000
vt 0.000000 0.000000
vt 0.000000 0.000000
vt 0.000000 0.000000
vt 0.000000 0.000000
vt 0.000000 0.000000
vt 0.000000 0.000000
vt 0.000000 0.000000
vt 0.000000 0.000000
vt 0.000000 0.000000
vt 0.000000 0.000000
vt 0.000000 0.000000
vt 0.000000 0.000000
vt 0.000000 0.000000
vt 0.000000 0.000000
vt 0.000000 0.000000
vt 0.000000 0.000000
vt 0.000000 0.000000
vt 0.000000 0.000000
vt 0.000000 0.000000
vt 0.000000 0.000000
vt 0.000000 0.000000
vt 0.000000 0.000000
vt 0.000000 0.000000
vt 0.000000 0.000000
vt 0.000000 0.000000
vt 0.000000 0.000000
vt 0.000000 0.000000
vt 0.000000 0.000000
vt 0.000000 0.000000
vt 0.000000 0.000000
vt 0.000000 0.000000
vt 0.000000 0.000000
vt 0.000000 0.000000
vt 0.000000 0.000000
vt 0.000000 0.000000
vt 0.000000 0.000000
vt 0.000000 0.000000
vt 0.000000 0.000000
vt 0.000000 0.000000
vt 0.000000 0.000000
vt 0.000000 0.000000
vt 0.000000 0.000000
vt 0.000000 0.000000
vt 0.000000 0.000000
vt 0.000000 0.000000
vt 0.000000 0.000000
vt 0.000000 0.000000
vt 0.000000 0.000000
vt 0.000000 0.000000
vt 0.000000 0.000000
vt 0.000000 0.000000
vt 0.000000 0.000000
vt 0.000000 0.000000
vt 0.000000 0.000000
vt 0.000000 0.000000
vt 0.000000 0.000000
vt 0.000000 0.000000
vt 0.000000 0.000000
vt 0.000000 0.000000
vt 0.000000 0.000000
vt 0.000000 0.000000
vt 0.000000 0.000000
vt 0.000000 0.000000
vt 0.000000 0.000000
vt 0.000000 0.000000
vt 0.000000 0.000000
vt 0.000000 0.000000
vt 0.000000 0.000000
vt 0.000000 0.000000
vt 0.000000 0.000000
vt 0.000000 0.000000
vt 0.000000 0.000000
vt 0.000000 0.000000
vt 0.000000 0.000000
vt 0.000000 0.000000
vt 0.000000 0.000000
vt 0.000000 0.000000
vt 0.000000 0.000000
vt 0.000000 0.000000
vt 0.000000 0.000000
vt 0.000000 0.000000
vt 0.000000 0.000000
vt 0.000000 0.000000
vt 0.000000 0.000000
vt 0.000000 0.000000
vt 0.000000 0.000000
vt 0.000000 0.000000
vt 0.000000 0.000000
vt 0.000000 0.000000
vt 0.000000 0.000000
vt 0.000000 0.000000
vt 0.000000 0.000000
vt 0.000000 0.000000
vt 0.000000 0.000000
vt 0.000000 0.000000
vt 0.000000 0.000000
vt 0.000000 0.000000
vt 0.000000 0.000000
vt 0.000000 0.000000
vt 0.000000 0.000000
vt 0.000000 0.000000
vt 0.000000 0.000000
vt 0.000000 0.000000
vt 0.000000 0.000000
vt 0.000000 0.000000
vt 0.000000 0.000000
vt 0.000000 0.000000
vt 0.000000 0.000000
vt 0.000000 0.000000
vt 0.000000 0.000000
vt 0.000000 0.000000
vt 0.000000 0.000000
vt 0.000000 0.000000
vt 0.000000 0.000000
vt 0.000000 0.000000
vt 0.000000 0.000000
vt 0.000000 0.000000
vt 0.000000 0.000000
vt 0.000000 0.000000
vt 0.000000 0.000000
vt 0.000000 0.000000
vt 0.000000 0.000000
vt 0.000000 0.000000
vt 0.000000 0.000000
vt 0.000000 0.000000
vt 0.000000 0.000000
vt 0.000000 0.000000
vt 0.000000 0.000000
vt 0.000000 0.000000
vt 0.000000 0.000000
vt 0.000000 0.000000
vt 0.000000 0.000000
vt 0.000000 0.000000
vt 0.000000 0.000000
vt 0.000000 0.000000
vt 0.000000 0.000000
vt 0.000000 0.000000
vt 0.000000 0.000000
vt 0.000000 0.000000
vt 0.000000 0.000000
vt 0.000000 0.000000
vt 0.000000 0.000000
vt 0.000000 0.000000
vt 0.000000 0.000000
vt 0.000000 0.000000
vt 0.000000 0.000000
vt 0.000000 0.000000
vt 0.000000 0.000000
vt 0.000000 0.000000
vt 0.000000 0.000000
vt 0.000000 0.000000
vt 0.000000 0.000000
vt 0.000000 0.000000
vt 0.000000 0.000000
vt 0.000000 0.000000
vt 0.000000 0.000000
vt 0.000000 0.000000
vt 0.000000 0.000000
vt 0.000000 0.000000
vt 0.000000 0.000000
vt 0.000000 0.000000
vt 0.000000 0.000000
vt 0.000000 0.000000
vt 0.000000 0.000000
vt 0.000000 0.000000
vt 0.000000 0.000000
vt 0.000000 0.000000
vt 0.000000 0.000000
vt 0.000000 0.000000
vt 0.000000 0.000000
vt 0.000000 0.000000
vt 0.000000 0.000000
vt 0.000000 0.000000
vt 0.000000 0.000000
vt 0.000000 0.000000
vt 0.000000 0.000000
vt 0.000000 0.000000
vt 0.000000 0.000000
vt 0.000000 0.000000
vt 0.000000 0.000000
vt 0.000000 0.000000
vt 0.000000 0.000000
vt 0.000000 0.000000
vt 0.000000 0.000000
vt 0.000000 0.000000
vt 0.000000 0.000000
vt 0.000000 0.000000
vt 0.000000 0.000000
vt 0.000000 0.000000
vt 0.000000 0.000000
vt 0.000000 0.000000
vt 0.000000 0.000000
vt 0.000000 0.000000
vn 0.0000 -1.0000 0.0000
vn -0.0083 0.9850 0.1725
vn -0.0043 0.9959 0.0906
vn 0.0000 1.0000 0.0000
vn -0.0176 0.9730 0.2299
vn -0.0305 0.9731 0.2285
vn -0.0325 0.9842 0.1739
vn -0.0180 0.9968 0.0785
vn 0.0089 0.9853 0.1704
vn 0.0004 0.9967 0.0813
vn 0.0325 0.9755 0.2175
vn 0.0528 0.9751 0.2155
vn 0.0532 0.9849 0.1650
vn 0.0277 0.9968 0.0753
vn -0.0002 1.0000 -0.0008
vn 0.0017 0.0000 -1.0000
vn 0.0001 1.0000 -0.0033
vn -0.0007 1.0000 -0.0043
vn -0.0007 1.0000 -0.0005
vn 0.0003 -0.1046 -0.9945
vn -0.0001 1.0000 -0.0033
vn 0.0053 1.0000 0.0060
vn -0.0012 1.0000 -0.0025
vn 0.0000 1.0000 -0.0027
vn 0.0012 1.0000 -0.0025
vn -0.7232 0.0000 0.6906
vn -0.9761 0.0000 -0.2173
vn -0.6414 0.0000 0.7672
vn 0.0000 0.0000 1.0000
vn -1.0000 0.0000 0.0000
vn -0.9459 0.0000 -0.3245
vn -0.9951 0.0000 0.0993
vn 0.9988 0.0000 -0.0496
vn -0.9647 -0.0000 0.2635
vn 0.0003 -0.1045 -0.9945
vn -0.8715 0.0000 0.4905
vn 1.0000 0.0000 0.0000
vn -0.8231 0.0000 0.5679
vn 0.9919 0.0000 -0.1270
vn 1.0000 0.0000 -0.0055
vn -0.7437 0.0000 0.6685
vn -0.6036 0.0000 0.7973
vn -0.5354 0.0000 0.8446
vn 0.9761 0.0000 -0.2173
vn -0.4274 0.0000 0.9041
vn -0.1666 0.0015 0.9860
vn 0.0296 -0.0003 0.9996
vn 0.9459 0.0000 -0.3245
vn 0.4332 0.0000 0.9013
vn -0.0003 -0.1047 -0.9945
vn 0.9938 0.0000 0.1111
vn 0.7232 0.0000 0.6906
vn 0.8759 0.0000 0.4824
vn -0.9483 0.0000 -0.3172
vn 0.8231 0.0000 0.5679
vn 0.7437 0.0000 0.6685
vn 0.6036 0.0000 0.7973
vn -0.9988 0.0000 -0.0496
vn 0.5354 0.0000 0.8446
vn 0.4274 0.0000 0.9041
vn 0.1649 0.0000 0.9863
vn -0.9919 0.0000 -0.1270
vn -1.0000 0.0000 -0.0055
vn -0.0299 0.0000 0.9996
vn -0.4332 0.0000 0.9013
vn -0.9918 0.0000 -0.1280
vn 0.3036 0.0000 0.9528
vn 0.1252 0.0000 0.9921
vn 0.1616 -0.0000 0.9868
vn 0.5977 0.0000 0.8017
vn 0.0008 1.0000 0.0003
vn 0.6693 0.0000 0.7430
vn -0.0000 0.9968 0.0802
vn -0.0000 1.0000 -0.0034
vn -0.0000 0.9761 0.2175
vn -0.0000 0.9852 0.1715
vn -0.0000 0.9974 0.0715
vn -0.0000 0.9762 0.2168
vn -0.0000 0.9849 0.1729
vn 0.0000 1.0000 -0.0076
vn -0.9768 0.0000 -0.2143
vn -0.9986 0.0000 -0.0526
vn -1.0000 0.0000 -0.0085
vn 0.4427 0.0000 0.8967
vn 0.0007 1.0000 0.0008
vn 0.0006 1.0000 0.0000
vn -0.4876 0.0000 0.8731
vn -0.9869 0.0000 -0.1611
vn -0.0061 1.0000 0.0000
vn 0.9649 0.0000 0.2625
vn 0.0024 1.0000 0.0009
vn 0.0039 1.0000 -0.0009
vn 0.0039 1.0000 -0.0042
vn -0.0003 -0.0000 1.0000
vn 0.0007 1.0000 0.0004
vn 0.0007 1.0000 0.0005
vn -0.0003 -0.1045 -0.9945
vn -0.0017 0.0000 1.0000
vn -1.0000 0.0001 0.0014
vn -0.0010 1.0000 -0.0002
vn -0.0012 1.0000 0.0000
vn 0.0252 0.9997 0.0026
vn -0.0027 1.0000 0.0010
vn 1.0000 0.0000 -0.0050
usemtl None
s off
f 7/1/1 4/2/1 3/3/1 8/4/1
f 10/5/1 7/1/1 8/4/1 9/6/1
f 1/7/1 10/5/1 9/6/1 2/8/1
f 4/2/1 24/9/1 23/10/1 3/3/1
f 24/9/1 26/11/1 25/12/1 23/10/1
f 26/11/1 28/13/1 27/14/1 25/12/1
f 28/13/1 29/15/1 85/16/1 27/14/1
f 36/17/1 37/18/1 33/19/1 34/20/1
f 39/21/1 38/22/1 37/18/1 36/17/1
f 30/23/1 31/24/1 38/22/1 39/21/1
f 34/20/1 33/19/1 53/25/1 54/26/1
f 54/26/1 53/25/1 55/27/1 56/28/1
f 56/28/1 55/27/1 57/29/1 58/30/1
f 58/30/1 57/29/1 112/31/1 113/32/1
f 43/33/1 35/34/1 44/35/1
f 15/36/1 5/37/1 14/38/1
f 15/36/1 16/39/1 5/37/1
f 16/39/1 17/40/1 5/37/1
f 17/40/1 18/41/1 5/37/1
f 5/37/1 18/41/1 6/42/1
f 6/42/1 18/41/1 19/43/1
f 6/42/1 49/44/1 48/45/1
f 48/45/1 47/46/1 6/42/1
f 47/46/1 46/47/1 35/34/1
f 46/47/1 45/48/1 35/34/1
f 45/48/1 44/35/1 35/34/1
f 35/34/1 41/49/1 154/50/1
f 19/43/1 20/51/1 6/42/1
f 6/42/1 47/46/1 35/34/1
f 20/51/1 21/52/1 6/42/1
f 21/52/1 50/53/1 6/42/1
f 22/54/1 50/53/1 21/52/1
f 22/54/1 51/55/1 50/53/1
f 5/37/1 13/56/1 14/38/1
f 5/37/1 12/57/1 13/56/1
f 63/58/2 64/59/2 59/60/2 60/61/2
f 43/33/1 42/62/1 35/34/1
f 1/7/1 12/57/1 5/37/1
f 42/62/1 41/49/1 35/34/1
f 1/7/1 11/63/1 12/57/1
f 156/64/1 94/65/1 31/24/1 30/23/1
f 1/7/1 2/8/1 11/63/1
f 6/42/1 50/53/1 49/44/1
f 66/66/3 65/67/3 64/59/3 63/58/3
f 52/68/4 32/69/4 65/67/4 66/66/4
f 60/61/5 59/60/5 79/70/5 80/71/5
f 80/71/6 79/70/6 81/72/6 82/73/6
f 82/73/7 81/72/7 83/74/7 84/75/7
f 84/75/8 83/74/8 85/16/8 29/15/8
f 90/76/9 89/77/9 88/78/9 91/79/9
f 93/80/10 90/76/10 91/79/10 92/81/10
f 86/82/4 93/80/4 92/81/4 87/83/4
f 89/77/11 107/84/11 106/85/11 88/78/11
f 107/84/12 109/86/12 108/87/12 106/85/12
f 109/86/13 111/88/13 110/89/13 108/87/13
f 111/88/14 113/32/14 112/31/14 110/89/14
f 153/90/15 96/91/15 175/92/15
f 71/93/4 70/94/4 178/95/4 183/96/4
f 71/93/4 183/96/4 181/97/4 72/98/4
f 72/98/4 181/97/4 179/99/4 73/100/4
f 73/100/4 179/99/4 184/101/4 74/102/4
f 135/103/4 131/104/4 145/105/4 146/106/4
f 61/107/16 182/108/16 188/109/16 187/110/16
f 62/111/17 102/112/17 103/113/17
f 102/112/18 62/111/18 101/114/18
f 101/114/4 125/115/4 127/116/4 100/117/4
f 100/117/4 127/116/4 126/118/4 99/119/4
f 175/92/19 96/91/19 97/120/19
f 174/121/20 173/122/20 133/123/20 62/111/20
f 75/124/21 62/111/21 76/125/21
f 128/126/22 101/114/22 62/111/22
f 76/125/23 62/111/23 77/127/23
f 77/127/24 62/111/24 104/128/24
f 78/129/4 77/127/4 104/128/4
f 78/129/4 104/128/4 105/130/4
f 95/131/4 96/91/4 153/90/4
f 52/68/4 180/132/4 177/133/4 68/134/4
f 52/68/4 68/134/4 67/135/4
f 40/136/4 155/137/4 86/82/4 87/83/4
f 52/68/4 67/135/4 32/69/4
f 62/111/25 103/113/25 104/128/25
f 50/53/26 51/55/26 105/130/26 104/128/26
f 25/12/27 27/14/27 83/74/27 81/72/27
f 178/95/28 185/138/28 189/139/28 195/140/28
f 51/55/29 22/54/29 78/129/29 105/130/29
f 35/34/30 154/50/30 153/90/30 175/92/30
f 1/7/1 5/37/1 118/141/1 117/142/1
f 10/5/1 1/7/1 117/142/1 116/143/1
f 27/14/31 85/16/31 83/74/31
f 34/20/30 54/26/30 107/84/30 89/77/30
f 11/63/32 2/8/32 32/69/32 67/135/32
f 53/25/33 33/19/33 88/78/33 106/85/33
f 12/57/34 11/63/34 67/135/34 68/134/34
f 118/141/35 160/144/35 133/123/35 124/145/35
f 13/56/36 12/57/36 68/134/36 69/146/36
f 37/18/37 38/22/37 92/81/37 91/79/37
f 14/38/38 13/56/38 69/146/38 70/94/38
f 55/27/39 53/25/39 106/85/39 108/87/39
f 33/19/40 37/18/40 91/79/40 88/78/40
f 15/36/41 14/38/41 70/94/41 71/93/41
f 36/17/30 34/20/30 89/77/30 90/76/30
f 16/39/42 15/36/42 71/93/42 72/98/42
f 38/22/37 31/24/37 87/83/37 92/81/37
f 17/40/43 16/39/43 72/98/43 73/100/43
f 57/29/44 55/27/44 108/87/44 110/89/44
f 39/21/30 36/17/30 90/76/30 93/80/30
f 18/41/45 17/40/45 73/100/45 74/102/45
f 19/43/46 18/41/46 74/102/46 75/124/46
f 30/23/30 39/21/30 93/80/30 86/82/30
f 20/51/47 19/43/47 75/124/47 76/125/47
f 112/31/48 57/29/48 110/89/48
f 21/52/49 20/51/49 76/125/49 77/127/49
f 6/42/50 35/34/50 175/92/50 196/147/50 62/111/50
f 31/24/51 94/65/51 40/136/51 87/83/51
f 22/54/52 21/52/52 77/127/52 78/129/52
f 153/90/30 154/50/30 156/64/30 155/137/30
f 41/49/53 42/62/53 96/91/53 95/131/53
f 84/75/54 29/15/54 142/148/54 138/149/54
f 42/62/55 43/33/55 97/120/55 96/91/55
f 43/33/56 44/35/56 98/150/56 97/120/56
f 52/68/30 66/66/30 131/104/30 135/103/30
f 44/35/57 45/48/57 99/119/57 98/150/57
f 3/3/58 23/10/58 79/70/58 59/60/58
f 45/48/59 46/47/59 100/117/59 99/119/59
f 46/47/60 47/46/60 101/114/60 100/117/60
f 7/1/1 10/5/1 116/143/1 115/151/1
f 9/6/30 8/4/30 64/59/30 65/67/30
f 47/46/61 48/45/61 102/112/61 101/114/61
f 23/10/62 25/12/62 81/72/62 79/70/62
f 8/4/63 3/3/63 59/60/63 64/59/63
f 48/45/64 49/44/64 103/113/64 102/112/64
f 26/11/1 24/9/1 119/152/1 120/153/1
f 49/44/65 50/53/65 104/128/65 103/113/65
f 2/8/30 9/6/30 65/67/30 32/69/30
f 123/154/37 146/106/37 145/105/37 116/143/37 117/142/37
f 143/155/37 147/156/37 119/152/37 114/157/37
f 117/142/37 118/141/37 124/145/37 123/154/37
f 119/152/37 147/156/37 139/158/37 120/153/37
f 120/153/37 139/158/37 148/159/37 121/160/37
f 116/143/37 145/105/37 144/161/37 115/151/37
f 121/160/37 148/159/37 149/162/37 122/163/37
f 28/13/1 26/11/1 120/153/1 121/160/1
f 66/66/30 63/58/30 134/164/30 131/104/30
f 24/9/1 4/2/1 114/157/1 119/152/1
f 29/15/1 28/13/1 121/160/1 122/163/1
f 124/145/35 133/123/35 173/122/35 140/165/35 162/166/35 141/167/35
f 4/2/1 7/1/1 115/151/1 114/157/1
f 80/71/66 82/73/66 137/168/66 136/169/66
f 130/170/67 129/171/67 171/172/67 167/173/67
f 129/171/68 128/126/68 168/174/68 171/172/68
f 128/126/69 62/111/69 170/175/69 168/174/69
f 127/116/70 125/115/70 172/176/70 166/177/70
f 166/177/71 172/176/71 176/178/71
f 125/115/4 101/114/4 130/170/4
f 126/118/72 127/116/72 166/177/72 169/179/72
f 5/37/1 6/42/1 160/144/1 118/141/1
f 123/154/37 124/145/37 141/167/37 161/180/37 146/106/37
f 131/104/73 134/164/73 144/161/73 145/105/73
f 62/111/74 75/124/74 133/123/74
f 136/169/75 137/168/75 139/158/75 147/156/75
f 137/168/76 138/149/76 148/159/76 139/158/76
f 138/149/77 142/148/77 149/162/77 148/159/77
f 132/181/78 136/169/78 147/156/78 143/155/78
f 134/164/79 132/181/79 143/155/79 144/161/79
f 140/165/80 163/182/80 150/183/80 188/109/80 187/110/80 162/166/80
f 82/73/81 84/75/81 138/149/81 137/168/81
f 187/110/4 188/109/4 194/184/4
f 60/61/82 80/71/82 136/169/82 132/181/82
f 63/58/83 60/61/83 132/181/83 134/164/83
f 133/123/30 75/124/30 150/183/30 163/182/30 165/185/30
f 129/171/4 101/114/4 128/126/4
f 130/170/4 101/114/4 129/171/4
f 125/115/84 130/170/84 167/173/84 172/176/84
f 169/179/71 166/177/71 176/178/71
f 171/172/85 168/174/85 176/178/85
f 168/174/86 170/175/86 174/121/86
f 151/186/87 157/187/87 159/188/87 158/189/87
f 206/190/1 204/191/1 151/186/1 197/192/1
f 202/193/88 198/194/88 158/189/88 159/188/88
f 205/195/89 200/196/89 157/187/89 203/197/89
f 155/137/30 156/64/30 30/23/30 86/82/30
f 94/65/90 41/49/90 95/131/90 40/136/90
f 95/131/4 153/90/4 155/137/4 40/136/4
f 154/50/1 41/49/1 94/65/1 156/64/1
f 200/196/91 202/193/91 159/188/91 157/187/91
f 197/192/1 198/194/1 29/15/1
f 115/151/37 144/161/37 143/155/37 114/157/37
f 133/123/35 160/144/35 6/42/35 62/111/35
f 161/180/92 187/110/92 186/198/92 135/103/92 146/106/92
f 162/166/93 187/110/93 161/180/93 141/167/93
f 163/182/30 140/165/30 173/122/30 133/123/30 165/185/30
f 62/111/94 133/123/94 165/185/94 170/175/94
f 172/176/95 167/173/95 176/178/95
f 167/173/96 171/172/96 176/178/96
f 168/174/96 174/121/96 176/178/96
f 165/185/86 173/122/86 174/121/86 170/175/86
f 62/111/97 196/147/97 176/178/97 174/121/97
f 177/133/4 185/138/4 69/146/4 68/134/4
f 185/138/4 178/95/4 70/94/4 69/146/4
f 184/101/4 182/108/4 75/124/4 74/102/4
f 184/101/28 179/99/28 191/199/28 194/184/28
f 185/138/28 177/133/28 190/200/28 189/139/28
f 182/108/28 184/101/28 194/184/28 188/109/28
f 180/132/37 61/107/37 187/110/37 186/198/37
f 183/96/28 178/95/28 195/140/28 193/201/28
f 179/99/28 181/97/28 192/202/28 191/199/28
f 177/133/28 180/132/28 186/198/28 190/200/28
f 181/97/28 183/96/28 193/201/28 192/202/28
f 194/184/4 191/199/4 187/110/4
f 191/199/4 192/202/4 187/110/4
f 192/202/4 193/201/4 187/110/4
f 193/201/4 195/140/4 187/110/4
f 189/139/4 190/200/4 187/110/4
f 190/200/4 186/198/4 187/110/4
f 195/140/4 189/139/4 187/110/4
f 182/108/98 188/109/98 150/183/98 75/124/98
f 135/103/30 186/198/30 180/132/30 52/68/30
f 126/118/99 169/179/99 176/178/99 196/147/99
f 126/118/100 175/92/100 97/120/100
f 97/120/4 98/150/4 126/118/4
f 98/150/4 99/119/4 126/118/4
f 126/118/101 196/147/101 175/92/101
f 203/197/29 157/187/29 151/186/29 204/191/29
f 151/186/1 158/189/1 198/194/1 197/192/1
f 152/203/102 142/148/102 202/193/102 200/196/102
f 142/148/103 152/203/103 200/196/103 205/195/103 201/204/103 149/162/103
f 142/148/88 29/15/88 198/194/88 202/193/88
f 122/163/1 199/205/1 206/190/1 197/192/1 29/15/1
f 122/163/37 149/162/37 201/204/37 199/205/37
f 206/190/104 205/195/104 203/197/104 204/191/104
f 206/190/29 199/205/29 201/204/29 205/195/29
f 54/26/30 56/28/30 109/86/30 107/84/30
f 56/28/30 58/30/30 111/88/30 109/86/30
f 111/88/30 58/30/30 113/32/30
l 140 164
