# Blender v2.81 (sub 16) OBJ File: 'playfield_models.blend'
# www.blender.org
mtllib col_boss.mtl
o boss_col_Cube.003
v 0.535727 0.000000 -1.083744
v 0.535727 1.071454 -1.083744
v 0.535727 0.000000 1.083744
v 0.535727 1.071454 1.083744
v -0.535727 0.000000 -1.083744
v -0.535727 1.071454 -1.083744
v -0.535727 0.000000 1.083744
v -0.535727 1.071454 1.083744
v 0.535727 0.000000 -0.296787
v 0.535727 1.071454 -0.296787
v -0.535727 0.000000 -0.296787
v -0.535727 1.071454 -0.296787
v 1.565130 0.000000 -0.296787
v 1.565130 0.000000 -1.083744
v 1.565130 1.071454 -1.083744
v -1.565130 1.071454 -0.296787
v -1.565130 1.071454 -1.083744
v -1.565130 0.000000 -1.083744
v 1.565130 1.071454 -0.296787
v -1.565130 0.000000 -0.296787
v -0.535727 1.291909 -1.083744
v 0.535727 1.291909 -1.083744
v -1.565130 1.291909 -1.083744
v 1.565130 1.291909 -1.083744
v 0.877181 0.000000 -1.419645
v 0.877181 1.071454 -1.419645
v -0.877181 1.071454 -1.419645
v -0.877181 0.000000 -1.419645
v 1.565130 0.000000 -1.419645
v 1.565130 1.071454 -1.419645
v -1.565130 1.071454 -1.419645
v -1.565130 0.000000 -1.419645
v 1.565130 1.291909 -1.419645
v 0.877181 1.291909 -1.419645
v -1.565130 1.291909 -1.419645
v -0.877181 1.291909 -1.419645
v 0.535727 1.329922 0.552740
v -0.535727 0.000000 0.232579
v 0.535727 0.000000 0.232579
v -0.535727 1.329922 0.552740
v 0.852945 1.737165 1.056814
v -0.852945 1.737165 1.056814
v 0.453398 1.329922 -0.249326
v -0.453398 1.329922 -0.249326
v -0.535727 1.071454 -0.473310
v 0.535727 1.071454 -0.473310
vt 0.375000 0.144319
vt 0.625000 0.144319
vt 0.625000 0.250000
vt 0.375000 0.250000
vt 0.625000 0.500000
vt 0.375000 0.500000
vt 0.625000 0.750000
vt 0.375000 0.750000
vt 0.375000 0.750000
vt 0.625000 0.750000
vt 0.625000 1.000000
vt 0.375000 1.000000
vt 0.625000 0.750000
vt 0.625000 0.750000
vt 0.625000 0.750000
vt 0.625000 0.750000
vt 0.625000 0.701195
vt 0.875000 0.701195
vt 0.875000 0.750000
vt 0.625000 0.605681
vt 0.875000 0.605681
vt 0.875000 0.605681
vt 0.625000 0.605681
vt 0.125000 0.605681
vt 0.375000 0.605681
vt 0.375000 0.652389
vt 0.125000 0.652389
vt 0.625000 0.652389
vt 0.375000 0.652389
vt 0.125000 0.652389
vt 0.625000 0.652389
vt 0.375000 0.750000
vt 0.125000 0.750000
vt 0.375000 0.000000
vt 0.625000 0.000000
vt 0.625000 0.097611
vt 0.375000 0.097611
vt 0.375000 0.750000
vt 0.375000 1.000000
vt 0.625000 0.097611
vt 0.375000 0.097611
vt 0.875000 0.652389
vt 0.875000 0.750000
vt 0.625000 0.750000
vt 0.625000 0.000000
vt 0.625000 0.000000
vt 0.625000 0.000000
vt 0.625000 0.750000
vt 0.375000 1.000000
vt 0.625000 1.000000
vt 0.625000 1.000000
vt 0.375000 1.000000
vt 0.625000 1.000000
vt 0.625000 1.000000
vt 0.875000 0.750000
vt 0.875000 0.750000
vt 0.875000 0.750000
vt 0.375000 0.000000
vt 0.875000 0.750000
vt 0.125000 0.500000
vt 0.625000 0.500000
vt 0.625000 0.250000
vt 0.000000 0.000000
vt 0.000000 0.000000
vt 0.000000 0.000000
vt 0.000000 0.000000
vt 0.000000 0.000000
vt 0.000000 0.000000
vt 0.000000 0.000000
vt 0.000000 0.000000
vn 1.0000 0.0000 0.0000
vn 0.0000 0.0000 1.0000
vn 0.7013 0.0000 -0.7129
vn 0.0000 0.0000 -1.0000
vn -1.0000 0.0000 0.0000
vn 0.0000 1.0000 0.0000
vn 0.0000 -1.0000 0.0000
vn 0.0000 0.9629 0.2698
vn -0.7013 0.0000 -0.7129
vn -0.0000 0.7779 -0.6284
vn 0.0000 0.0404 0.9992
vn -0.8797 -0.4276 -0.2081
vn 0.8797 -0.4276 -0.2081
vn -0.0000 0.6549 -0.7557
vn 0.9455 0.3158 -0.0795
vn -0.9455 0.3158 -0.0795
usemtl None
s off
f 39/1/1 37/2/1 4/3/1 3/4/1
f 3/4/2 4/3/2 8/5/2 7/6/2
f 6/7/3 5/8/3 28/9/3 27/10/3
f 5/8/4 6/7/4 2/11/4 1/12/4
f 17/13/5 23/14/5 35/15/5 31/16/5
f 45/17/6 46/18/6 2/19/6 6/7/6
f 40/20/6 37/21/6 43/22/6 44/23/6
f 39/24/7 38/25/7 11/26/7 9/27/7
f 38/25/5 40/20/5 12/28/5 11/26/5
f 9/27/2 11/26/2 20/29/2 13/30/2
f 20/29/5 16/31/5 17/13/5 18/32/5
f 13/30/7 20/29/7 18/32/7 14/33/7
f 14/34/1 15/35/1 19/36/1 13/37/1
f 11/26/2 12/28/2 16/31/2 20/29/2
f 5/8/7 18/32/7 32/38/7 28/9/7
f 5/8/2 1/12/2 14/39/2 18/32/2
f 10/40/2 9/41/2 13/37/2 19/36/2
f 2/19/5 46/18/5 10/42/5 22/43/5
f 16/31/8 12/28/8 21/44/8 23/14/8
f 17/13/5 16/31/5 23/14/5
f 24/45/1 15/35/1 30/46/1 33/47/1
f 19/36/1 15/35/1 24/45/1
f 12/28/1 45/17/1 6/7/1 21/44/1
f 27/10/4 28/9/4 32/38/4 31/16/4
f 27/10/4 31/16/4 35/15/4 36/48/4
f 25/49/4 26/50/4 30/51/4 29/52/4
f 30/51/4 26/50/4 34/53/4 33/54/4
f 18/32/5 17/13/5 31/16/5 32/38/5
f 21/44/3 6/7/3 27/10/3 36/48/3
f 22/43/6 24/55/6 33/56/6 34/57/6
f 15/35/1 14/34/1 29/58/1 30/46/1
f 2/19/9 22/43/9 34/57/9 26/59/9
f 14/39/7 1/12/7 25/49/7 29/52/7
f 1/12/9 2/11/9 26/50/9 25/49/9
f 23/14/6 21/44/6 36/48/6 35/15/6
f 10/40/8 19/36/8 24/55/8 22/43/8
f 7/6/5 8/5/5 40/20/5 38/25/5
f 3/60/7 7/6/7 38/25/7 39/24/7
f 40/20/10 42/61/10 41/62/10 37/21/10
f 9/41/1 10/40/1 37/2/1 39/1/1
f 4/3/11 41/62/11 42/61/11 8/5/11
f 40/20/12 8/5/12 42/61/12
f 4/3/13 37/21/13 41/62/13
f 12/28/6 10/42/6 46/18/6 45/17/6
f 46/18/14 45/17/14 44/23/14 43/22/14
f 46/63/15 43/64/15 37/65/15 10/66/15
f 40/67/16 44/68/16 45/69/16 12/70/16
