# Blender v2.81 (sub 16) OBJ File: 'playfield_models.blend'
# www.blender.org
mtllib col_slingshot.mtl
o Plane_Plane.004
v 0.000000 0.000000 -1.531530
v 0.837803 0.000000 0.658314
v 0.000000 0.000000 -0.000000
v -0.000000 0.500000 -1.531530
v 0.837803 0.500000 0.658314
v 0.000000 0.500000 -0.000000
vt 0.000000 0.000000
vt 0.000000 1.000000
vt 1.000000 0.000000
vt 0.000000 0.000000
vt 1.000000 0.000000
vt 0.000000 1.000000
vn 0.0000 -1.0000 0.0000
vn 0.0000 1.0000 0.0000
vn -1.0000 -0.0000 0.0000
vn -0.6178 0.0000 0.7863
vn 0.9340 0.0000 -0.3573
usemtl None
s off
f 3/1/1 1/2/1 2/3/1
f 6/4/2 5/5/2 4/6/2
f 1/2/3 3/1/3 6/4/3 4/6/3
f 3/1/4 2/3/4 5/5/4 6/4/4
f 2/3/5 1/2/5 4/6/5 5/5/5
