# Blender v2.81 (sub 16) OBJ File: 'playfield_models.blend'
# www.blender.org
mtllib col_lower_right_guide.mtl
o lower_right_col_Plane.009
v -0.916203 0.007139 -4.276624
v -0.181140 0.007139 -4.891195
v -0.000891 0.007139 -4.677040
v 0.000000 0.007139 -3.021545
v 0.000000 0.007139 0.012781
v -2.520000 0.007139 0.012781
v -2.520000 0.007139 -1.391545
v -2.720000 0.007139 -1.691545
v -1.071480 0.007139 -2.698561
v -1.018316 0.007139 -2.827652
v -0.656730 0.007139 -3.119686
v -0.680321 0.007139 -3.641379
v -0.947300 0.007139 -4.033082
v -0.916204 0.400000 -4.276624
v -0.181140 0.400000 -4.891195
v -0.000891 0.601643 -4.677040
v 0.000000 0.601643 -3.021545
v -0.022819 0.590232 -0.048504
v -2.542819 0.394375 -0.027919
v -2.520000 0.400000 -1.391545
v -2.720000 0.400000 -1.691545
v -1.071480 0.400000 -2.698561
v -1.018316 0.400000 -2.827652
v -0.656730 0.400000 -3.119686
v -0.680321 0.400000 -3.641379
v -0.947300 0.400000 -4.033082
v -0.006987 0.598150 -2.111290
v -0.600142 0.007139 -2.111290
v -0.600142 0.486952 -2.111290
v 0.000000 0.007139 -2.111290
v -0.600142 0.007139 -2.711290
v -0.600142 0.488392 -2.711290
v 0.000000 0.007139 -2.711290
v -0.002381 0.600453 -2.711290
vt 0.000000 0.000000
vt 0.000000 0.000000
vt 0.000000 0.000000
vt 0.000000 0.000000
vt 0.000000 0.000000
vt 0.000000 0.000000
vt 0.000000 0.000000
vt 0.000000 0.000000
vt 0.000000 0.000000
vt 0.000000 0.000000
vt 0.000000 0.000000
vt 0.000000 0.000000
vt 0.000000 0.000000
vt 0.000000 0.000000
vt 0.000000 0.000000
vt 0.000000 0.000000
vt 0.000000 0.000000
vt 0.000000 0.000000
vt 0.000000 0.000000
vt 0.000000 0.000000
vt 0.000000 0.000000
vt 0.000000 0.000000
vt 0.000000 0.000000
vt 0.000000 0.000000
vt 0.000000 0.000000
vt 0.000000 0.000000
vt 0.000000 0.000000
vt 0.000000 0.000000
vt 0.000000 0.000000
vt 0.000000 0.000000
vt 0.000000 0.000000
vt 0.000000 0.000000
vt 0.577754 0.250000
vt 0.434524 0.250000
vt 0.434524 0.455054
vt 0.611105 0.454241
vt 0.577325 0.000000
vt 0.434524 0.000000
vt 0.434524 1.000000
vt 0.577325 1.000000
vt 0.610420 0.797333
vt 0.434524 0.794946
vt 0.000000 0.000000
vt 0.000000 0.000000
vn 0.0000 -1.0000 0.0000
vn -0.3749 0.8114 -0.4484
vn -0.1176 0.9900 0.0784
vn -0.0352 0.9977 -0.0577
vn -0.2843 0.9587 0.0002
vn -0.1434 0.9848 0.0977
vn -0.2953 0.9553 0.0134
vn -0.2395 0.9245 -0.2966
vn -0.1843 0.9829 0.0024
vn -0.2271 0.9734 -0.0290
vn -0.2093 0.9740 -0.0862
vn -0.0775 0.9970 0.0028
vn -0.8321 0.0000 0.5547
vn -0.5213 0.0000 -0.8534
vn -0.6414 0.0000 -0.7672
vn -0.9247 0.0000 -0.3808
vn 0.7651 0.0000 -0.6439
vn -0.6283 0.0000 -0.7780
vn 1.0000 0.0000 -0.0005
vn -0.9990 -0.0000 0.0452
vn 1.0000 0.0020 0.0038
vn -0.8263 -0.0000 0.5632
vn 0.0000 0.1045 0.9945
vn -0.9919 -0.0000 -0.1267
vn -0.9995 -0.0297 -0.0083
vn 0.9997 0.0256 0.0038
vn -0.0000 0.0000 1.0000
vn 1.0000 0.0000 0.0000
vn 0.0000 -0.0000 -1.0000
usemtl None
s off
f 1/1/1 2/2/1 3/3/1
f 14/4/2 16/5/2 15/6/2
f 3/3/1 4/7/1 12/8/1
f 13/9/1 3/3/1 12/8/1
f 11/10/1 12/8/1 4/7/1
f 10/11/1 11/10/1 4/7/1
f 9/12/1 4/7/1 31/13/1
f 13/9/1 1/1/1 3/3/1
f 20/14/3 18/15/3 21/16/3
f 9/12/1 10/11/1 4/7/1
f 6/17/1 7/18/1 5/19/1
f 18/15/4 22/20/4 21/16/4
f 16/5/5 25/21/5 17/22/5
f 26/23/6 25/21/6 16/5/6
f 24/24/7 17/22/7 25/21/7
f 23/25/8 17/22/8 24/24/8
f 18/15/9 29/26/9 22/20/9
f 26/23/10 16/5/10 14/4/10
f 22/20/11 17/22/11 23/25/11
f 19/27/12 18/15/12 20/14/12
f 5/19/1 7/18/1 8/28/1
f 7/18/13 20/14/13 21/16/13 8/28/13
f 8/28/14 21/16/14 22/20/14 9/12/14
f 1/1/15 14/4/15 15/6/15 2/2/15
f 9/12/16 22/20/16 23/25/16 10/11/16
f 2/2/17 15/6/17 16/5/17 3/3/17
f 10/11/18 23/25/18 24/24/18 11/10/18
f 3/3/19 16/5/19 17/22/19 4/7/19
f 11/10/20 24/24/20 25/21/20 12/8/20
f 4/7/21 17/22/21 34/29/21 33/30/21
f 12/8/22 25/21/22 26/23/22 13/9/22
f 5/19/23 18/15/23 19/27/23 6/17/23
f 13/9/24 26/23/24 14/4/24 1/1/24
f 6/17/25 19/27/25 20/14/25 7/18/25
f 9/12/1 5/19/1 8/28/1
f 27/31/26 18/15/26 5/19/26 30/32/26
f 32/33/27 31/34/27 33/35/27 34/36/27
f 31/34/28 32/33/28 29/37/28 28/38/28
f 28/39/29 29/40/29 27/41/29 30/42/29
f 29/26/9 32/43/9 22/20/9
f 32/43/9 17/22/9 22/20/9
f 18/15/9 27/31/9 29/26/9
f 34/29/9 17/22/9 32/43/9
f 31/13/1 4/7/1 33/30/1
f 9/12/1 31/13/1 28/44/1
f 5/19/1 9/12/1 28/44/1
f 5/19/1 28/44/1 30/32/1
