# Blender v2.81 (sub 16) OBJ File: 'playfield_models.blend'
# www.blender.org
mtllib col_boss_platform.mtl
o Cylinder.001_Cylinder.004
v 0.000000 0.000000 1.868815
v 0.000000 0.400000 1.868815
v -0.715165 0.000000 1.726560
v -0.715165 0.400000 1.726560
v -1.321452 0.000000 1.321452
v -1.321452 0.400000 1.321452
v -1.726560 0.000000 0.715165
v -1.726560 0.400000 0.715165
v -1.868815 0.000000 -0.000000
v -1.868815 0.400000 -0.000000
v 1.868815 0.000000 0.000000
v 1.868815 0.400000 0.000000
v 1.726560 0.000000 0.715165
v 1.726560 0.400000 0.715165
v 1.321451 0.000000 1.321452
v 1.321451 0.400000 1.321452
v 0.715164 0.000000 1.726560
v 0.715164 0.400000 1.726560
v -1.868815 0.000000 -0.000000
v -1.868815 0.400000 -0.000000
v 1.868815 0.000000 0.000000
v 1.868815 0.400000 0.000000
v 0.000000 0.600000 -0.000000
v 0.000000 0.000000 -0.000000
vt 1.000000 0.500000
vt 1.000000 1.000000
vt 0.937500 1.000000
vt 0.937500 0.500000
vt 0.875000 1.000000
vt 0.875000 0.500000
vt 0.812500 1.000000
vt 0.812500 0.500000
vt 0.750000 1.000000
vt 0.750000 0.500000
vt 0.250000 0.500000
vt 0.250000 1.000000
vt 0.187500 1.000000
vt 0.187500 0.500000
vt 0.125000 1.000000
vt 0.125000 0.500000
vt 0.062500 1.000000
vt 0.062500 0.500000
vt 0.000000 1.000000
vt 0.000000 0.500000
vt 0.250000 0.500000
vt 0.250000 1.000000
vt 0.750000 1.000000
vt 0.750000 0.500000
vt 0.500000 0.500000
vt 0.500000 1.000000
vt 0.000000 0.000000
vt 0.000000 0.000000
vt 0.000000 0.000000
vt 0.000000 0.000000
vt 0.000000 0.000000
vt 0.000000 0.000000
vt 0.000000 0.000000
vt 0.000000 0.000000
vt 0.000000 0.000000
vt 0.000000 0.000000
vt 0.000000 0.000000
vt 0.000000 0.000000
vt 0.000000 0.000000
vt 0.000000 0.000000
vt 0.000000 0.000000
vt 0.000000 0.000000
vt 0.000000 0.000000
vt 0.000000 0.000000
vt 0.000000 0.000000
vt 0.000000 0.000000
vt 0.000000 0.000000
vt 0.000000 0.000000
vn -0.1951 0.0000 0.9808
vn -0.5556 0.0000 0.8315
vn -0.8315 0.0000 0.5556
vn -0.9808 0.0000 0.1951
vn 0.9808 0.0000 0.1951
vn 0.8315 0.0000 0.5556
vn 0.5556 0.0000 0.8315
vn 0.1951 0.0000 0.9808
vn 0.0000 0.0000 1.0000
vn 0.0000 0.0000 -1.0000
vn 0.0212 0.9941 0.1064
vn 0.0603 0.9941 0.0902
vn -0.0212 0.9941 0.1064
vn 0.0902 0.9941 0.0603
vn -0.0603 0.9941 0.0902
vn 0.1064 0.9941 0.0212
vn -0.0902 0.9941 0.0603
vn -0.1064 0.9941 0.0212
vn 0.0000 -1.0000 0.0000
usemtl None
s off
f 1/1/1 2/2/1 4/3/1 3/4/1
f 3/4/2 4/3/2 6/5/2 5/6/2
f 5/6/3 6/5/3 8/7/3 7/8/3
f 7/8/4 8/7/4 10/9/4 9/10/4
f 11/11/5 12/12/5 14/13/5 13/14/5
f 13/14/6 14/13/6 16/15/6 15/16/6
f 15/16/7 16/15/7 18/17/7 17/18/7
f 17/18/8 18/17/8 2/19/8 1/20/8
f 12/12/9 11/11/9 21/21/9 22/22/9
f 9/10/9 10/9/9 20/23/9 19/24/9
f 24/25/10 23/26/10 22/22/10 21/21/10
f 19/24/10 20/23/10 23/26/10 24/25/10
f 18/27/11 23/28/11 2/29/11
f 16/30/12 23/28/12 18/27/12
f 23/28/13 4/31/13 2/29/13
f 14/32/14 23/28/14 16/30/14
f 23/28/15 6/33/15 4/31/15
f 12/34/16 23/28/16 14/32/16
f 23/28/17 8/35/17 6/33/17
f 23/28/18 10/36/18 8/35/18
f 20/37/9 10/36/9 23/28/9
f 3/38/19 24/39/19 1/40/19
f 5/41/19 24/39/19 3/38/19
f 24/39/19 15/42/19 17/43/19
f 7/44/19 24/39/19 5/41/19
f 24/39/19 13/45/19 15/42/19
f 24/39/19 17/43/19 1/40/19
f 24/39/19 7/44/19 9/46/19
f 19/47/9 24/39/9 9/46/9
f 24/39/19 11/48/19 13/45/19
