# Blender v2.81 (sub 16) OBJ File: 'playfield_models.blend'
# www.blender.org
mtllib col_boss_shield_middle.mtl
o Cylinder.002_Cylinder.005
v -1.868815 0.000000 -0.000000
v -1.868815 2.000000 -0.000000
v -1.726560 0.000000 -0.715165
v -1.726560 2.000000 -0.715165
v -1.321452 0.000000 -1.321452
v -1.321452 2.000000 -1.321452
v -0.715165 0.000000 -1.726560
v -0.715165 2.000000 -1.726560
v -0.000000 0.000000 -1.868815
v -0.000000 2.000000 -1.868815
v 0.715164 0.000000 -1.726560
v 0.715164 2.000000 -1.726560
v 1.321451 0.000000 -1.321452
v 1.321451 2.000000 -1.321452
v 1.726560 0.000000 -0.715165
v 1.726560 2.000000 -0.715165
v 1.868815 0.000000 0.000000
v 1.868815 2.000000 0.000000
v -1.681934 0.000000 -0.000000
v -1.681934 2.000000 -0.000000
v -1.553904 0.000000 -0.643648
v -1.553904 2.000000 -0.643648
v -1.189306 0.000000 -1.189306
v -1.189306 2.000000 -1.189306
v -0.643648 0.000000 -1.553904
v -0.643648 2.000000 -1.553904
v -0.000000 0.000000 -1.681934
v -0.000000 2.000000 -1.681934
v 0.643648 0.000000 -1.553904
v 0.643648 2.000000 -1.553904
v 1.189306 0.000000 -1.189307
v 1.189306 2.000000 -1.189307
v 1.553904 0.000000 -0.643648
v 1.553904 2.000000 -0.643648
v 1.681934 0.000000 0.000000
v 1.681934 2.000000 0.000000
vt 0.750000 0.500000
vt 0.750000 1.000000
vt 0.687500 1.000000
vt 0.687500 0.500000
vt 0.625000 1.000000
vt 0.625000 0.500000
vt 0.562500 1.000000
vt 0.562500 0.500000
vt 0.500000 1.000000
vt 0.500000 0.500000
vt 0.437500 1.000000
vt 0.437500 0.500000
vt 0.375000 1.000000
vt 0.375000 0.500000
vt 0.312500 1.000000
vt 0.312500 0.500000
vt 0.250000 1.000000
vt 0.250000 0.500000
vt 0.750000 0.500000
vt 0.687500 0.500000
vt 0.687500 1.000000
vt 0.750000 1.000000
vt 0.625000 0.500000
vt 0.625000 1.000000
vt 0.562500 0.500000
vt 0.562500 1.000000
vt 0.500000 0.500000
vt 0.500000 1.000000
vt 0.437500 0.500000
vt 0.437500 1.000000
vt 0.375000 0.500000
vt 0.375000 1.000000
vt 0.312500 0.500000
vt 0.312500 1.000000
vt 0.250000 0.500000
vt 0.250000 1.000000
vn -0.9808 0.0000 -0.1951
vn -0.8315 0.0000 -0.5556
vn -0.5556 0.0000 -0.8315
vn -0.1951 0.0000 -0.9808
vn 0.1951 0.0000 -0.9808
vn 0.5556 0.0000 -0.8315
vn 0.8315 0.0000 -0.5556
vn 0.9808 0.0000 -0.1951
vn 0.9808 0.0000 0.1951
vn 0.8315 0.0000 0.5556
vn 0.5556 0.0000 0.8315
vn 0.1951 0.0000 0.9808
vn -0.1951 0.0000 0.9808
vn -0.5556 0.0000 0.8315
vn -0.8315 0.0000 0.5556
vn -0.9808 0.0000 0.1951
vn 0.0000 -1.0000 0.0000
vn -0.0000 0.0000 1.0000
vn 0.0000 1.0000 0.0000
usemtl None
s off
f 1/1/1 2/2/1 4/3/1 3/4/1
f 3/4/2 4/3/2 6/5/2 5/6/2
f 5/6/3 6/5/3 8/7/3 7/8/3
f 7/8/4 8/7/4 10/9/4 9/10/4
f 9/10/5 10/9/5 12/11/5 11/12/5
f 11/12/6 12/11/6 14/13/6 13/14/6
f 13/14/7 14/13/7 16/15/7 15/16/7
f 15/16/8 16/15/8 18/17/8 17/18/8
f 19/19/9 21/20/9 22/21/9 20/22/9
f 21/20/10 23/23/10 24/24/10 22/21/10
f 23/23/11 25/25/11 26/26/11 24/24/11
f 25/25/12 27/27/12 28/28/12 26/26/12
f 27/27/13 29/29/13 30/30/13 28/28/13
f 29/29/14 31/31/14 32/32/14 30/30/14
f 31/31/15 33/33/15 34/34/15 32/32/15
f 33/33/16 35/35/16 36/36/16 34/34/16
f 17/18/17 35/35/17 33/33/17 15/16/17
f 1/1/18 19/19/18 20/22/18 2/2/18
f 6/5/19 24/24/19 26/26/19 8/7/19
f 16/15/19 34/34/19 36/36/19 18/17/19
f 3/4/17 21/20/17 19/19/17 1/1/17
f 13/14/17 31/31/17 29/29/17 11/12/17
f 18/17/18 36/36/18 35/35/18 17/18/18
f 2/2/19 20/22/19 22/21/19 4/3/19
f 12/11/19 30/30/19 32/32/19 14/13/19
f 9/10/17 27/27/17 25/25/17 7/8/17
f 8/7/19 26/26/19 28/28/19 10/9/19
f 5/6/17 23/23/17 21/20/17 3/4/17
f 15/16/17 33/33/17 31/31/17 13/14/17
f 4/3/19 22/21/19 24/24/19 6/5/19
f 14/13/19 32/32/19 34/34/19 16/15/19
f 11/12/17 29/29/17 27/27/17 9/10/17
f 10/9/19 28/28/19 30/30/19 12/11/19
f 7/8/17 25/25/17 23/23/17 5/6/17
