# Blender v2.81 (sub 16) OBJ File: 'playfield_models.blend'
# www.blender.org
mtllib col_lower_left_guide.mtl
o lower_left_col_Plane.010
v 0.423266 -0.000000 -6.158847
v 0.212913 -0.000000 -6.421140
v 0.075274 -0.000000 -6.706804
v -0.010425 -0.000000 -7.034020
v 0.646604 -0.000000 -5.912137
v 0.807615 -0.000000 -5.621278
v 0.890718 -0.000000 -5.400537
v 0.888121 -0.000000 -3.324070
v 0.924478 -0.000000 -3.046196
v 1.101070 -0.000000 -2.757935
v 1.475032 -0.000000 -2.464479
v 2.725320 -0.000000 -1.693088
v 2.491479 -0.000000 -1.333246
v 2.491479 0.001371 0.007687
v 0.000000 0.001371 0.007687
v 0.032424 -0.000000 -6.870412
v -0.005213 -0.000000 -3.324070
v -0.007819 -0.000000 -5.275516
v 0.423266 0.400000 -6.158847
v 0.212913 0.400000 -6.421140
v 0.075274 0.400000 -6.706804
v -0.010425 0.400000 -7.034020
v 0.646604 0.400000 -5.912137
v 0.807615 0.400000 -5.621278
v 0.890718 0.400000 -5.400537
v 0.888121 0.400000 -3.324070
v 0.924478 0.400000 -3.046196
v 1.101071 0.400000 -2.757935
v 1.475032 0.400000 -2.464479
v 2.725320 0.400000 -1.693088
v 2.491479 0.400000 -1.333246
v 2.491479 0.396999 -0.033895
v 0.000000 0.601121 -0.055350
v 0.032425 0.400000 -6.870412
v -0.005213 0.601730 -3.324070
v -0.007819 0.601730 -5.275516
vt 0.000000 0.000000
vt 0.000000 0.000000
vt 0.000000 0.000000
vt 0.000000 0.000000
vt 0.000000 0.000000
vt 0.000000 0.000000
vt 0.000000 0.000000
vt 0.000000 0.000000
vt 0.000000 0.000000
vt 0.000000 0.000000
vt 0.000000 0.000000
vt 0.000000 0.000000
vt 0.000000 0.000000
vt 0.000000 0.000000
vt 0.000000 0.000000
vt 0.000000 0.000000
vt 0.000000 0.000000
vt 0.000000 0.000000
vt 0.000000 0.000000
vt 0.000000 0.000000
vt 0.000000 0.000000
vt 0.000000 0.000000
vt 0.000000 0.000000
vt 0.000000 0.000000
vt 0.000000 0.000000
vt 0.000000 0.000000
vt 0.000000 0.000000
vt 0.000000 0.000000
vt 0.000000 0.000000
vt 0.000000 0.000000
vt 0.000000 0.000000
vt 0.000000 0.000000
vt 0.000000 0.000000
vt 0.000000 0.000000
vt 0.000000 0.000000
vt 0.000000 0.000000
vn 0.0000 -1.0000 0.0000
vn -0.0002 -1.0000 0.0004
vn -0.0003 -1.0000 0.0004
vn 0.0000 -1.0000 0.0010
vn -0.0008 -1.0000 -0.0005
vn 0.4009 0.9101 -0.1050
vn 0.2508 0.9605 -0.1208
vn 0.1726 0.9752 -0.1385
vn 0.1600 0.9764 -0.1449
vn 0.1953 0.9748 -0.1081
vn 0.2080 0.9750 -0.0783
vn 0.2190 0.9757 -0.0003
vn 0.2203 0.9754 0.0003
vn 0.1794 0.9838 -0.0001
vn 0.2536 0.9548 -0.1554
vn 0.0441 0.9974 -0.0562
vn 0.2202 0.9750 -0.0288
vn 0.0816 0.9967 0.0023
vn 0.0373 0.9975 -0.0604
vn 0.0000 0.1045 0.9945
vn 1.0000 0.0000 0.0013
vn -1.0000 0.0001 0.0016
vn 0.9915 0.0000 -0.1297
vn 0.7414 0.0000 -0.6711
vn 0.9674 -0.0000 -0.2534
vn 0.8527 0.0000 -0.5224
vn 0.7801 0.0000 -0.6256
vn -1.0000 0.0000 0.0013
vn 0.6173 -0.0000 -0.7867
vn 0.9009 0.0000 -0.4341
vn -1.0000 -0.0000 0.0015
vn 0.5251 0.0000 -0.8511
vn 0.8385 0.0000 0.5449
vn 0.8749 0.0000 -0.4843
vn 1.0000 0.0000 0.0000
vn 0.9359 0.0000 -0.3523
vn 0.1198 0.9897 0.0779
usemtl None
s off
f 16/1/1 18/2/1 4/3/1
f 3/4/1 18/2/1 16/1/1
f 2/5/1 18/2/1 3/4/1
f 1/6/1 18/2/1 2/5/1
f 5/7/1 18/2/1 1/6/1
f 6/8/1 18/2/1 5/7/1
f 7/9/1 18/2/1 6/8/1
f 18/2/1 7/9/1 17/10/1
f 17/10/1 7/9/1 8/11/1
f 17/10/2 10/12/2 15/13/2
f 9/14/1 10/12/1 17/10/1
f 11/15/3 15/13/3 10/12/3
f 9/14/1 17/10/1 8/11/1
f 14/16/4 15/13/4 13/17/4
f 15/13/5 12/18/5 13/17/5
f 34/19/6 22/20/6 36/21/6
f 21/22/6 34/19/6 36/21/6
f 20/23/7 21/22/7 36/21/7
f 19/24/8 20/23/8 36/21/8
f 23/25/9 19/24/9 36/21/9
f 24/26/10 23/25/10 36/21/10
f 25/27/11 24/26/11 36/21/11
f 36/21/12 35/28/12 25/27/12
f 35/28/13 26/29/13 25/27/13
f 35/28/14 33/30/14 28/31/14
f 27/32/15 35/28/15 28/31/15
f 29/33/16 28/31/16 33/30/16
f 11/15/3 12/18/3 15/13/3
f 27/32/17 26/29/17 35/28/17
f 32/34/18 31/35/18 33/30/18
f 33/30/19 30/36/19 29/33/19
f 15/13/20 14/16/20 32/34/20 33/30/20
f 8/11/21 7/9/21 25/27/21 26/29/21
f 17/10/22 15/13/22 33/30/22 35/28/22
f 9/14/23 8/11/23 26/29/23 27/32/23
f 5/7/24 1/6/24 19/24/24 23/25/24
f 16/1/25 4/3/25 22/20/25 34/19/25
f 10/12/26 9/14/26 27/32/26 28/31/26
f 1/6/27 2/5/27 20/23/27 19/24/27
f 18/2/28 17/10/28 35/28/28 36/21/28
f 11/15/29 10/12/29 28/31/29 29/33/29
f 2/5/30 3/4/30 21/22/30 20/23/30
f 4/3/31 18/2/31 36/21/31 22/20/31
f 12/18/32 11/15/32 29/33/32 30/36/32
f 3/4/25 16/1/25 34/19/25 21/22/25
f 13/17/33 12/18/33 30/36/33 31/35/33
f 6/8/34 5/7/34 23/25/34 24/26/34
f 14/16/35 13/17/35 31/35/35 32/34/35
f 7/9/36 6/8/36 24/26/36 25/27/36
f 31/35/37 30/36/37 33/30/37
