# Blender v2.81 (sub 16) OBJ File: 'playfield_models.blend'
# www.blender.org
mtllib col_lower_left_guide.mtl
o lower_left_col_Plane.010
v 0.897987 0.000000 -6.305378
v 0.888121 -0.000000 -3.324070
v 0.924478 -0.000000 -3.046196
v 1.101070 -0.000000 -2.757935
v 1.475032 -0.000000 -2.464479
v 2.725320 -0.000000 -1.693088
v 2.491479 -0.000000 -1.333246
v 2.491479 0.001371 0.007687
v 0.000000 0.001371 0.007687
v 0.000000 0.000000 -3.324070
v 0.000000 0.000000 -7.286922
v 0.897987 0.400000 -6.305378
v 0.888121 0.400000 -3.324070
v 0.924478 0.400000 -3.046196
v 1.101071 0.400000 -2.757935
v 1.475032 0.400000 -2.464479
v 2.725320 0.400000 -1.693088
v 2.491479 0.400000 -1.333246
v 2.491479 0.396999 -0.033895
v 0.000000 0.601121 -0.055350
v 0.000000 0.601730 -3.324070
v 0.000000 0.400000 -7.286922
v 0.000000 0.000000 -8.306763
v 0.000000 0.400000 -8.306763
vt 0.000000 0.000000
vt 0.000000 0.000000
vt 0.000000 0.000000
vt 0.000000 0.000000
vt 0.000000 0.000000
vt 0.000000 0.000000
vt 0.000000 0.000000
vt 0.000000 0.000000
vt 0.000000 0.000000
vt 0.000000 0.000000
vt 0.000000 0.000000
vt 0.000000 0.000000
vt 0.000000 0.000000
vt 0.000000 0.000000
vt 0.000000 0.000000
vt 0.000000 0.000000
vt 0.000000 0.000000
vt 0.000000 0.000000
vt 0.000000 0.000000
vt 0.000000 0.000000
vt 0.000000 0.000000
vt 0.000000 0.000000
vt 0.000000 0.000000
vt 0.000000 0.000000
vn 0.0000 -1.0000 0.0000
vn -0.0002 -1.0000 0.0004
vn -0.0003 -1.0000 0.0004
vn -0.0000 -1.0000 0.0010
vn -0.0008 -1.0000 -0.0005
vn 0.0555 0.9972 -0.0508
vn 0.2215 0.9752 0.0007
vn 0.1801 0.9836 0.0002
vn 0.2552 0.9542 -0.1563
vn 0.0441 0.9974 -0.0562
vn 0.2214 0.9748 -0.0290
vn 0.0816 0.9967 0.0023
vn 0.0373 0.9975 -0.0604
vn -0.0000 0.1045 0.9945
vn 1.0000 0.0000 0.0033
vn -1.0000 0.0000 0.0000
vn 0.9915 0.0000 -0.1297
vn 0.8527 0.0000 -0.5224
vn 0.6173 -0.0000 -0.7867
vn 0.5251 0.0000 -0.8511
vn 0.8385 0.0000 0.5449
vn 1.0000 0.0000 0.0000
vn 0.1198 0.9897 0.0779
vn 0.9124 0.0000 -0.4094
vn -0.0000 1.0000 0.0000
usemtl None
s off
f 11/1/1 1/2/1 10/3/1
f 10/3/1 1/2/1 2/4/1
f 10/3/2 4/5/2 9/6/2
f 3/7/1 4/5/1 10/3/1
f 5/8/3 9/6/3 4/5/3
f 3/7/1 10/3/1 2/4/1
f 8/9/4 9/6/4 7/10/4
f 9/6/5 6/11/5 7/10/5
f 22/12/6 21/13/6 12/14/6
f 21/13/7 13/15/7 12/14/7
f 21/13/8 20/16/8 15/17/8
f 14/18/9 21/13/9 15/17/9
f 16/19/10 15/17/10 20/16/10
f 5/8/3 6/11/3 9/6/3
f 14/18/11 13/15/11 21/13/11
f 19/20/12 18/21/12 20/16/12
f 20/16/13 17/22/13 16/19/13
f 9/6/14 8/9/14 19/20/14 20/16/14
f 2/4/15 1/2/15 12/14/15 13/15/15
f 10/3/16 9/6/16 20/16/16 21/13/16
f 3/7/17 2/4/17 13/15/17 14/18/17
f 4/5/18 3/7/18 14/18/18 15/17/18
f 11/1/16 10/3/16 21/13/16 22/12/16
f 5/8/19 4/5/19 15/17/19 16/19/19
f 6/11/20 5/8/20 16/19/20 17/22/20
f 7/10/21 6/11/21 17/22/21 18/21/21
f 8/9/22 7/10/22 18/21/22 19/20/22
f 18/21/23 17/22/23 20/16/23
f 23/23/16 11/1/16 22/12/16 24/24/16
f 12/14/24 1/2/24 23/23/24 24/24/24
f 12/14/25 24/24/25 22/12/25
f 1/2/1 11/1/1 23/23/1
