# Blender v2.81 (sub 16) OBJ File: 'playfield_models.blend'
# www.blender.org
mtllib col_multiball_ship.mtl
o multiball_ship_col_Plane.013
v -1.138490 0.002051 -2.425845
v -1.228551 0.002051 -1.847253
v -1.556633 0.002051 -1.148592
v -1.771630 0.002051 -0.915108
v -1.362866 0.002051 -1.447399
v -0.980605 0.002051 -2.002602
v 0.000000 0.002051 -2.002253
v 0.000000 1.602050 -2.002253
v 0.000000 1.602050 0.168382
v -1.362866 1.602050 -1.447399
v -1.228551 0.402051 -1.847253
v -1.228551 1.602050 -1.847253
v -1.556633 1.602050 -1.148592
v -1.771630 1.602050 -0.915108
v -0.981944 0.002051 -2.425845
v -0.939682 1.602051 -2.002602
v -1.138490 0.402051 -2.425845
v -0.980605 0.402051 -2.002602
v -0.981944 0.402051 -2.425845
v -1.771630 1.602050 0.169115
v 0.000000 0.000000 -0.000000
v -1.771630 0.002050 0.000948
vt 0.000000 0.000000
vt 0.000000 0.000000
vt 0.000000 0.000000
vt 0.000000 0.000000
vt 0.000000 0.000000
vt 0.000000 0.000000
vt 0.000000 0.000000
vt 0.000000 0.000000
vt 0.000000 0.000000
vt 0.000000 0.000000
vt 0.000000 0.000000
vt 0.000000 0.000000
vt 0.000000 0.000000
vt 0.000000 0.000000
vt 0.000000 0.000000
vt 0.000000 0.000000
vt 0.000000 0.000000
vt 0.000000 0.000000
vt 0.000000 0.000000
vt 0.000000 0.000000
vt 0.000000 0.000000
vt 0.000000 0.000000
vn 0.0000 1.0000 0.0000
vn 1.0000 0.0000 -0.0032
vn -0.7356 0.0000 -0.6774
vn -1.0000 0.0000 0.0000
vn 0.0000 0.0000 -1.0000
vn -0.9881 0.0000 -0.1538
vn -0.8390 0.0000 -0.5441
vn -0.5009 0.0085 -0.8655
vn -0.9479 0.0000 -0.3184
vn 0.0004 -0.1045 0.9945
vn 1.0000 0.0000 0.0000
vn -0.0000 -1.0000 -0.0000
vn 0.0004 -0.0000 -1.0000
vn -0.0009 -1.0000 -0.0006
vn -0.0004 -1.0000 -0.0010
vn -0.0012 -1.0000 -0.0002
usemtl None
s off
f 9/1/1 8/2/1 16/3/1
f 6/4/2 15/5/2 19/6/2 18/7/2
f 14/8/3 13/9/3 3/10/3 4/11/3
f 4/11/4 22/12/4 20/13/4 14/8/4
f 10/14/1 13/9/1 9/1/1
f 12/15/1 10/14/1 9/1/1
f 13/9/1 14/8/1 9/1/1
f 15/5/5 1/16/5 17/17/5 19/6/5
f 1/16/6 2/18/6 11/19/6 17/17/6
f 16/3/1 12/15/1 9/1/1
f 3/10/7 13/9/7 10/14/7 5/20/7
f 19/6/1 17/17/1 11/19/1 18/7/1
f 16/3/8 18/7/8 11/19/8 12/15/8
f 10/14/9 12/15/9 11/19/9 2/18/9 5/20/9
f 21/21/10 9/1/10 20/13/10 22/12/10
f 14/8/1 20/13/1 9/1/1
f 9/1/11 21/21/11 7/22/11 8/2/11
f 4/11/12 3/10/12 22/12/12
f 16/3/13 8/2/13 7/22/13 6/4/13 18/7/13
f 1/16/12 15/5/12 6/4/12
f 3/10/14 5/20/14 21/21/14
f 5/20/15 7/22/15 21/21/15
f 6/4/12 5/20/12 2/18/12
f 2/18/12 1/16/12 6/4/12
f 3/10/16 21/21/16 22/12/16
f 5/20/12 6/4/12 7/22/12
