# Blender v2.81 (sub 16) OBJ File: 'playfield_models.blend'
# www.blender.org
mtllib col_boss_shield_inner_eigth.mtl
o Cylinder.003_Cylinder.009
v -1.495052 0.000000 -0.000000
v -1.495052 2.000000 -0.000000
v -1.381248 0.000000 -0.572132
v -1.381248 2.000000 -0.572132
v -1.681934 0.000000 -0.000000
v -1.681934 2.000000 -0.000000
v -1.553904 0.000000 -0.643648
v -1.553904 2.000000 -0.643648
vt 0.750000 0.500000
vt 0.687500 0.500000
vt 0.687500 1.000000
vt 0.750000 1.000000
vt 0.750000 0.500000
vt 0.750000 1.000000
vt 0.687500 1.000000
vt 0.687500 0.500000
vn 0.9808 0.0000 0.1951
vn -0.9808 0.0000 -0.1951
vn 0.3827 0.0000 -0.9239
vn -0.0000 0.0000 1.0000
vn 0.0000 -1.0000 0.0000
vn 0.0000 1.0000 0.0000
usemtl None
s off
f 1/1/1 3/2/1 4/3/1 2/4/1
f 5/5/2 6/6/2 8/7/2 7/8/2
f 3/2/3 7/8/3 8/7/3 4/3/3
f 1/1/4 2/4/4 6/6/4 5/5/4
f 3/2/5 1/1/5 5/5/5 7/8/5
f 2/4/6 4/3/6 8/7/6 6/6/6
