# Blender v2.81 (sub 16) OBJ File: 'curved_slope2.blend'
# www.blender.org
mtllib curved_ramp_center_gravity_shape.mtl
o CurvedSlopeMainMesh_Cube.001
v -0.190887 0.000064 1.675017
v 0.327267 1.052184 -1.598269
v 0.129144 0.916324 -1.052406
v -0.032987 0.758935 -0.506945
v -0.209447 0.162046 1.113794
v -0.135964 0.556985 0.037355
v -0.174562 0.367376 0.560413
v 0.363422 1.598822 -1.524880
v 0.165299 1.462962 -0.979018
v 0.003168 1.305573 -0.433557
v -0.173293 0.708684 1.187183
v -0.099809 1.103623 0.110744
v -0.138407 0.914014 0.633802
v -0.154733 0.546702 1.748405
v 0.231746 0.000128 1.678382
v 0.665355 0.819192 -1.598269
v 0.457056 0.672046 -1.054069
v 0.294779 0.521642 -0.509418
v 0.185082 0.107800 1.111426
v 0.216648 0.372020 0.035746
v 0.194997 0.254291 0.538652
v 0.267901 0.546766 1.751771
v 0.701509 1.365829 -1.524880
v 0.493210 1.218683 -0.980680
v 0.330934 1.068280 -0.436030
v 0.221237 0.654438 1.184814
v 0.252803 0.918658 0.109135
v 0.231152 0.800928 0.612040
vt 0.000000 0.000000
vt 0.000000 0.000000
vt 0.000000 0.000000
vt 0.000000 0.000000
vt 0.000000 0.000000
vt 0.000000 0.000000
vt 0.000000 0.000000
vt 0.000000 0.000000
vt 0.000000 0.000000
vt 0.000000 0.000000
vt 0.000000 0.000000
vt 0.000000 0.000000
vt 0.000000 0.000000
vt 0.000000 0.000000
vt 0.000000 0.000000
vt 0.000000 0.000000
vt 0.000000 0.000000
vt 0.000000 0.000000
vt 0.000000 0.000000
vt 0.000000 0.000000
vt 0.000000 0.000000
vt 0.000000 0.000000
vt 0.000000 0.000000
vt 0.000000 0.000000
vt 0.000000 0.000000
vt 0.000000 0.000000
vt 0.000000 0.000000
vt 0.000000 0.000000
vt 0.208333 0.750000
vt 0.291667 0.750000
vt 0.291667 0.750000
vt 0.208333 0.750000
vt 0.625000 0.333333
vt 0.625000 0.416667
vt 0.625000 0.416667
vt 0.625000 0.333333
vn -0.9963 0.0722 -0.0473
vn 0.9895 -0.0815 0.1194
vn -0.5361 -0.7467 -0.3937
vn 0.9608 -0.0983 0.2591
vn 0.9379 -0.1064 0.3302
vn -0.9429 0.1048 -0.3161
vn -0.9613 0.0981 -0.2574
vn -0.9968 0.0708 -0.0366
vn -0.9970 0.0592 0.0501
vn -0.9843 0.0858 -0.1544
vn 0.9972 -0.0695 0.0267
vn -0.5504 -0.7462 -0.3745
vn -0.4973 -0.7981 -0.3402
vn 0.9978 -0.0660 0.0004
vn -0.3734 -0.8824 -0.2863
vn 0.9943 -0.0534 -0.0920
vn -0.0641 -0.9714 -0.2285
vn -0.2131 -0.9301 -0.2991
vn 0.0376 0.5608 0.8271
vn 0.0376 0.5600 0.8276
vn -0.0079 -0.1325 0.9911
vn 0.1366 0.9549 0.2635
vn 0.1403 0.9539 0.2653
vn 0.2950 0.9093 0.2936
vn 0.2936 0.9097 0.2937
vn 0.4356 0.8437 0.3137
vn 0.4387 0.8416 0.3151
vn 0.5247 0.7724 0.3579
vn 0.5242 0.7729 0.3575
vn 0.5428 0.7465 0.3848
vn 0.5438 0.7465 0.3835
vn 0.4250 0.5967 -0.6807
vn 0.5702 0.7973 -0.1980
vn 0.0874 0.1269 -0.9881
usemtl Material.001
s off
f 13/1/1 6/2/1 7/3/1
f 20/4/2 18/5/2 27/6/2
f 17/7/3 3/8/3 2/9/3 16/10/3
f 25/11/4 17/7/4 24/12/4
f 17/7/5 16/10/5 24/12/5
f 8/13/6 2/9/6 9/14/6
f 9/14/7 3/8/7 10/15/7
f 11/16/8 7/3/8 5/17/8
f 14/18/9 5/17/9 1/19/9
f 10/15/10 4/20/10 12/21/10
f 21/22/11 20/4/11 28/23/11
f 18/5/12 4/20/12 3/8/12 17/7/12
f 9/14/6 2/9/6 3/8/6
f 20/4/13 6/2/13 4/20/13 18/5/13
f 19/24/14 21/22/14 26/25/14
f 28/23/11 20/4/11 27/6/11
f 21/22/15 7/3/15 6/2/15 20/4/15
f 26/25/14 21/22/14 28/23/14
f 27/6/2 18/5/2 25/11/2
f 12/21/10 4/20/10 6/2/10
f 18/5/4 17/7/4 25/11/4
f 24/12/5 16/10/5 23/26/5
f 10/15/7 3/8/7 4/20/7
f 13/1/8 7/3/8 11/16/8
f 12/21/1 6/2/1 13/1/1
f 11/16/9 5/17/9 14/18/9
f 22/27/16 19/24/16 26/25/16
f 15/28/16 19/24/16 22/27/16
f 15/28/17 1/19/17 5/17/17 19/24/17
f 19/24/18 5/17/18 7/3/18 21/22/18
s 1
f 22/29/19 14/30/20 1/31/21 15/32/21
f 26/25/22 11/16/23 14/18/20 22/27/19
f 28/23/24 13/1/25 11/16/23 26/25/22
f 27/6/26 12/21/27 13/1/25 28/23/24
f 25/11/28 10/15/29 12/21/27 27/6/26
f 24/12/30 9/14/31 10/15/29 25/11/28
f 23/26/32 8/13/33 9/14/31 24/12/30
f 16/33/34 2/34/34 8/35/33 23/36/32
