# Blender v2.80 (sub 75) OBJ File: ''
# www.blender.org
mtllib curved_ramp_collision_detailed.mtl
o CurvedSlopeMainMesh_Cube.002
v 0.577575 -0.000000 1.109023
v 0.654380 0.000193 1.681748
v -0.613521 -0.000000 1.671651
v -0.624443 -0.000000 1.126741
v 1.005676 0.000000 -1.599393
v -0.253352 0.000000 -1.598543
v -0.010820 1.285176 -1.598269
v 1.003442 0.586199 -1.598269
v 0.784967 0.427767 -1.055731
v -0.198767 1.160602 -1.050744
v 0.622545 0.284350 -0.511891
v 0.579612 0.053555 1.109057
v -0.603977 0.216292 1.116163
v 0.569260 0.187055 0.034137
v 0.763771 0.000000 -1.054198
v -0.455222 0.000000 -1.061912
v 0.617215 0.000000 -0.509067
v -0.546874 0.000000 -0.508281
v 0.568118 -0.000000 0.035998
v -0.584039 -0.000000 0.036776
v 0.562510 -0.000000 0.516769
v -0.597645 -0.000000 0.581784
v 0.577583 -0.105814 1.109041
v -0.624435 -0.105814 1.126759
v 0.654388 -0.105622 2.581902
v -0.613513 -0.105815 2.571805
v -0.355059 0.981244 -0.504945
v -0.476530 0.740748 0.038926
v -0.544840 0.480015 0.580638
v 0.567849 0.134238 0.535126
v 0.020430 0.000096 1.676700
v 0.496311 0.935688 -1.598269
v 0.707198 0.357332 -0.783738
v 0.299935 0.792119 -1.053234
v -0.278507 1.075713 -0.777694
v 0.142838 0.636640 -0.508236
v 0.895372 0.507296 -1.326973
v -0.104253 1.222060 -1.324533
v 0.618240 0.027588 1.394997
v -0.003014 0.141770 1.112779
v -0.607701 0.109143 1.394355
v 0.599188 0.237735 -0.240150
v -0.422447 0.867065 -0.232818
v 0.050414 0.468189 0.031259
v 0.568332 0.164331 0.276475
v -0.514933 0.611000 0.310373
v 0.011505 0.307127 0.557882
v 0.573740 0.097223 0.814847
v -0.573091 0.349318 0.849425
v 0.214345 0.716522 -0.780716
v 0.395560 0.864678 -1.325753
v 0.005270 0.068366 1.394676
v 0.088371 0.552400 -0.236484
v 0.026700 0.387665 0.293424
v 0.000324 0.223271 0.832136
vt 0.000000 0.000000
vt 0.000000 0.000000
vt 0.000000 0.000000
vt 0.000000 0.000000
vt 0.375000 0.250000
vt 0.375000 0.500000
vt 0.625000 0.500000
vt 0.625000 0.250000
vt 0.125000 0.500000
vt 0.125000 0.541667
vt 0.375000 0.541667
vt 0.125000 0.583333
vt 0.375000 0.583333
vt 0.125000 0.625000
vt 0.375000 0.625000
vt 0.125000 0.666667
vt 0.375000 0.666667
vt 0.125000 0.708333
vt 0.375000 0.708333
vt 0.000000 0.000000
vt 0.000000 0.000000
vt 0.000000 0.000000
vt 0.000000 0.000000
vt 0.000000 0.000000
vt 0.000000 0.000000
vt 0.000000 0.000000
vt 0.000000 0.000000
vt 0.000000 0.000000
vt 0.000000 0.000000
vt 0.000000 0.000000
vt 0.000000 0.000000
vt 0.000000 0.000000
vt 0.000000 0.000000
vt 0.000000 0.000000
vt 0.000000 0.000000
vt 0.000000 0.000000
vt 0.000000 0.000000
vt 0.000000 0.000000
vt 0.000000 0.000000
vt 0.000000 0.000000
vt 0.125000 0.708333
vt 0.125000 0.750000
vt 0.375000 0.750000
vt 0.375000 0.708333
vt 0.000000 0.000000
vt 0.000000 0.000000
vt 0.000000 0.000000
vt 0.000000 0.000000
vt 0.000000 0.000000
vt 0.000000 0.000000
vt 0.000000 0.000000
vt 0.000000 0.000000
vt 0.000000 0.000000
vt 0.000000 0.000000
vt 0.000000 0.000000
vt 0.000000 0.000000
vt 0.000000 0.000000
vt 0.000000 0.000000
vt 0.000000 0.000000
vt 0.000000 0.000000
vt 0.000000 0.000000
vt 0.000000 0.000000
vt 0.000000 0.000000
vt 0.000000 0.000000
vt 0.000000 0.000000
vt 0.000000 0.000000
vt 0.000000 0.000000
vt 0.000000 0.000000
vt 0.000000 0.000000
vt 0.000000 0.000000
vt 0.000000 0.000000
vt 0.000000 0.000000
vt 0.000000 0.000000
vt 0.000000 0.000000
vn -0.9989 0.0466 0.0110
vn -0.0001 0.0008 -1.0000
vn -0.0000 -1.0000 -0.0000
vn 0.0003 -1.0000 0.0030
vn 0.0030 -1.0000 -0.0004
vn -0.0018 -1.0000 0.0010
vn 0.0010 -1.0000 0.0018
vn 0.9132 -0.0438 0.4052
vn 0.9654 -0.0185 0.2601
vn 0.9656 -0.0155 0.2596
vn 0.9990 -0.0380 -0.0254
vn 0.9962 -0.0035 0.0872
vn 0.9957 -0.0043 0.0924
vn 0.9961 -0.0062 0.0879
vn 0.9991 -0.0413 0.0117
vn 0.9991 -0.0397 0.0129
vn 0.9990 -0.0432 0.0124
vn -0.9874 0.1435 -0.0673
vn -0.9686 0.1899 -0.1604
vn -0.9937 0.1093 -0.0248
vn -0.9946 0.0917 -0.0489
vn -0.9159 0.2057 -0.3446
vn 0.0001 -1.0000 0.0001
vn 0.9503 -0.3032 -0.0713
vn -0.0011 0.9932 0.1167
vn -0.0147 -0.0002 -0.9999
vn 0.5547 0.7469 0.3667
vn 0.5475 0.7432 0.3845
vn 0.5359 0.7510 0.3857
vn 0.5506 0.7491 0.3683
vn 0.5250 0.7472 0.4076
vn 0.5328 0.7583 0.3756
vn 0.5462 0.7495 0.3740
vn 0.5401 0.7349 0.4102
vn 0.1063 0.9809 0.1629
vn 0.0908 0.9481 0.3049
vn 0.0298 0.9529 0.3018
vn 0.0315 0.9861 0.1630
vn 0.5393 0.7979 0.2693
vn 0.5049 0.7683 0.3934
vn 0.4567 0.7996 0.3900
vn 0.4827 0.8338 0.2680
vn 0.4229 0.8835 0.2015
vn 0.3972 0.8371 0.3761
vn 0.3270 0.8690 0.3713
vn 0.3388 0.9184 0.2044
vn 0.2571 0.9437 0.2084
vn 0.2498 0.8942 0.3714
vn 0.1628 0.9151 0.3688
vn 0.1819 0.9610 0.2084
vn 0.9890 -0.0607 -0.1348
vn 0.0000 -1.0000 0.0001
vn -0.9948 0.0995 0.0217
vn 0.9275 0.0010 0.3738
vn -0.9424 0.1784 -0.2829
vn -0.7401 -0.6256 0.2467
vn 0.9606 -0.0542 0.2726
vn 0.9956 -0.0296 0.0892
vn 0.9953 -0.0286 0.0920
vn 0.9951 -0.0304 0.0942
vn 0.9990 -0.0368 -0.0256
vn 0.9991 -0.0361 -0.0238
vn 1.0000 -0.0029 0.0012
vn 1.0000 -0.0047 0.0023
vn 1.0000 -0.0062 0.0010
vn -0.9559 0.2110 -0.2044
vn -0.9923 0.1116 -0.0546
vn -0.9736 0.1831 -0.1365
vn -0.9887 0.1379 -0.0583
usemtl Material.002
s off
f 3/1/1 4/2/1 24/3/1 26/4/1
f 5/5/2 6/6/2 7/7/2 8/8/2
f 5/9/3 15/10/3 16/11/3 6/6/3
f 15/10/3 17/12/4 18/13/3 16/11/3
f 17/12/5 19/14/6 20/15/3 18/13/3
f 19/14/7 21/16/3 22/17/3 20/15/3
f 21/16/3 1/18/3 4/19/3 22/17/3
f 15/20/8 5/21/8 9/22/8
f 17/23/9 15/20/10 11/24/10
f 21/25/11 12/26/11 1/27/11
f 17/23/12 14/28/13 19/29/14
f 21/25/15 19/29/16 30/30/17
f 28/31/18 18/32/18 20/33/18
f 27/34/19 16/35/19 18/32/19
f 22/36/20 29/37/20 20/33/20
f 4/2/21 13/38/21 22/36/21
f 10/39/22 6/40/22 16/35/22
f 23/41/23 25/42/23 26/43/23 24/44/23
f 1/27/24 2/45/24 25/46/24 23/47/24
f 2/45/25 3/1/25 26/4/25 25/46/25
f 4/19/26 1/18/26 23/41/26 24/44/26
f 9/22/27 34/48/27 50/49/27 33/50/27
f 34/48/28 10/39/28 35/51/28 50/49/28
f 50/49/29 35/51/29 27/34/29 36/52/29
f 33/50/30 50/49/30 36/52/30 11/24/30
f 8/53/31 32/54/31 51/55/31 37/56/31
f 32/54/32 7/57/32 38/58/32 51/55/32
f 51/55/33 38/58/33 10/39/33 34/48/33
f 37/56/34 51/55/34 34/48/34 9/22/34
f 12/26/35 40/59/35 52/60/35 39/61/35
f 40/59/36 13/38/36 41/62/36 52/60/36
f 52/60/37 41/62/37 3/1/37 31/63/37
f 39/61/38 52/60/38 31/63/38 2/45/38
f 11/24/39 36/52/39 53/64/39 42/65/39
f 36/52/40 27/34/40 43/66/40 53/64/40
f 53/64/41 43/66/41 28/31/41 44/67/41
f 42/65/42 53/64/42 44/67/42 14/28/42
f 14/28/43 44/67/43 54/68/43 45/69/43
f 44/67/44 28/31/44 46/70/44 54/68/44
f 54/68/45 46/70/45 29/37/45 47/71/45
f 45/69/46 54/68/46 47/71/46 30/30/46
f 30/30/47 47/71/47 55/72/47 48/73/47
f 47/71/48 29/37/48 49/74/48 55/72/48
f 55/72/49 49/74/49 13/38/49 40/59/49
f 48/73/50 55/72/50 40/59/50 12/26/50
f 1/27/51 12/26/51 39/61/51 2/45/51
f 3/1/52 2/45/52 31/63/52
f 4/2/53 3/1/53 41/62/53 13/38/53
f 5/21/54 8/53/54 37/56/54 9/22/54
f 6/40/55 10/39/55 38/58/55 7/57/55
f 8/53/56 7/57/56 32/54/56
f 15/20/57 9/22/57 33/50/57 11/24/57
f 17/23/58 11/24/59 42/65/59 14/28/60
f 21/25/61 30/30/62 48/73/61 12/26/61
f 19/29/63 14/28/64 45/69/64 30/30/65
f 16/35/66 27/34/66 35/51/66 10/39/66
f 22/36/67 13/38/67 49/74/67 29/37/67
f 27/34/68 18/32/68 28/31/68 43/66/68
f 28/31/69 20/33/69 29/37/69 46/70/69
