# Blender v2.81 (sub 16) OBJ File: 'curved_slope2.blend'
# www.blender.org
mtllib curved_ramp_right_gravity_shape.mtl
o CurvedSlopeMainMesh.002_Cube.003
v 0.654380 0.000193 1.681748
v 1.003442 0.586199 -1.598269
v 0.784967 0.427767 -1.055731
v 0.622545 0.284350 -0.511891
v 0.579612 0.053555 1.109057
v 0.569260 0.187055 0.034137
v 0.564556 0.141205 0.516890
v 0.231746 0.000128 1.678382
v 0.665355 0.819192 -1.598269
v 0.457056 0.672046 -1.054069
v 0.294779 0.521642 -0.509418
v 0.185082 0.107800 1.111426
v 0.216648 0.372020 0.035746
v 0.194997 0.254291 0.538652
v 0.267901 0.546766 1.751771
v 0.690535 0.546830 1.755136
v 0.821122 0.974405 -0.982342
v 0.658700 0.830988 -0.438502
v 1.039597 1.132837 -1.524880
v 0.615767 0.600193 1.182445
v 0.605415 0.733693 0.107526
v 0.600711 0.687843 0.590279
v 0.701509 1.365829 -1.524880
v 0.493210 1.218683 -0.980680
v 0.330934 1.068280 -0.436030
v 0.221237 0.654438 1.184814
v 0.252803 0.918658 0.109135
v 0.231152 0.800928 0.612040
vt 0.000000 0.000000
vt 0.000000 0.000000
vt 0.000000 0.000000
vt 0.000000 0.000000
vt 0.000000 0.000000
vt 0.000000 0.000000
vt 0.000000 0.000000
vt 0.000000 0.000000
vt 0.000000 0.000000
vt 0.000000 0.000000
vt 0.000000 0.000000
vt 0.000000 0.000000
vt 0.000000 0.000000
vt 0.000000 0.000000
vt 0.000000 0.000000
vt 0.000000 0.000000
vt 0.000000 0.000000
vt 0.000000 0.000000
vt 0.000000 0.000000
vt 0.000000 0.000000
vt 0.000000 0.000000
vt 0.000000 0.000000
vt 0.125000 0.750000
vt 0.125000 0.750000
vt 0.208333 0.750000
vt 0.208333 0.750000
vt 0.000000 0.000000
vt 0.000000 0.000000
vt 0.000000 0.000000
vt 0.000000 0.000000
vt 0.000000 0.000000
vt 0.000000 0.000000
vt 0.625000 0.333333
vt 0.625000 0.333333
vt 0.625000 0.250000
vt 0.625000 0.250000
vn -0.5470 -0.7315 -0.4071
vn 0.0009 -0.9957 -0.0929
vn -0.5466 -0.7511 -0.3703
vn -0.1357 -0.9806 -0.1417
vn -0.5622 -0.7734 -0.2928
vn -0.4559 -0.8675 -0.1991
vn -0.4538 -0.8631 -0.2216
vn -0.2963 -0.9505 -0.0932
vn -0.2969 -0.9239 -0.2414
vn -0.1352 -0.9754 -0.1741
vn -0.5578 -0.7462 -0.3634
vn -0.5138 -0.7455 -0.4246
vn -0.6821 -0.0528 0.7293
vn -0.5182 0.5167 0.6815
vn -0.6695 0.7257 0.1584
vn -0.9943 0.0534 0.0920
vn 0.9978 -0.0665 0.0034
vn 0.9976 -0.0687 0.0079
vn 0.9975 -0.0710 0.0012
vn -0.9895 0.0815 -0.1194
vn -0.5265 0.8432 0.1085
vn -0.4112 0.9012 0.1369
vn 0.9936 -0.0769 0.0833
vn 0.9943 -0.0734 0.0770
vn 0.9938 -0.0705 0.0865
vn -0.9972 0.0695 -0.0267
vn -0.5747 0.8111 0.1090
vn -0.5152 0.8490 0.1173
vn 0.7419 -0.1372 0.6563
vn 0.7507 -0.1364 0.6464
vn 0.2157 0.9575 0.1915
vn -0.5643 0.8114 0.1523
vn -0.6304 0.7632 0.1419
vn 0.3810 0.9104 0.1613
vn 0.5120 0.8225 0.2478
vn 0.0654 0.9890 0.1328
vn 0.5304 0.7387 0.4160
vn -0.1894 0.8768 -0.4420
vn -0.5637 0.8257 0.0202
vn 0.5522 0.7487 0.3668
vn -0.3137 0.9360 0.1600
vn -0.5405 0.8388 0.0663
vn 0.9603 -0.0985 0.2608
vn -0.9379 0.1064 -0.3302
vn -0.4693 0.1479 -0.8706
vn 0.9975 -0.0614 -0.0344
vn -0.9608 0.0983 -0.2591
vn 0.6835 0.0525 -0.7281
vn 0.9694 -0.0314 -0.2436
vn 0.9327 -0.1079 0.3441
vn -0.9978 0.0660 -0.0004
vn 0.9899 -0.0475 -0.1337
usemtl Material.001
s off
f 10/1/1 9/2/1 3/3/1
f 8/4/2 5/5/2 1/6/2
f 11/7/3 10/1/3 4/8/3
f 12/9/4 7/10/4 5/5/4
f 4/8/5 13/11/5 11/7/5
f 6/12/6 13/11/6 4/8/6
f 6/12/7 14/13/7 13/11/7
f 7/10/8 14/13/8 6/12/8
f 14/13/9 7/10/9 12/9/9
f 12/9/10 5/5/10 8/4/10
f 4/8/11 10/1/11 3/3/11
f 3/3/12 9/2/12 2/14/12
s 1
f 8/4/13 15/15/14 26/16/15 12/9/16
f 6/12/17 21/17/17 22/18/18 7/10/19
f 13/11/20 27/19/21 25/20/22 11/7/20
f 4/8/23 18/21/23 21/17/24 6/12/25
f 14/13/26 28/22/27 27/19/28 13/11/26
f 1/23/29 16/24/30 15/25/14 8/26/13
f 22/18/31 28/22/32 26/16/33 20/27/31
f 21/17/34 27/19/28 28/22/27 22/18/34
f 18/21/35 25/20/22 27/19/21 21/17/35
f 20/27/36 26/16/15 15/15/14 16/28/36
f 19/29/37 23/30/38 24/31/39 17/32/37
f 17/32/40 24/31/41 25/20/42 18/21/40
f 3/3/43 17/32/43 18/21/43 4/8/43
f 10/1/44 24/31/39 23/30/38 9/2/45
f 7/10/46 22/18/46 20/27/46 5/5/46
f 11/7/47 25/20/42 24/31/41 10/1/47
f 9/33/45 23/34/38 19/35/48 2/36/49
f 2/14/49 19/29/48 17/32/50 3/3/50
f 12/9/51 26/16/33 28/22/32 14/13/51
f 5/5/52 20/27/52 16/28/30 1/6/29
