# Blender v2.80 (sub 75) OBJ File: 'rampcollisionmeshes.blend'
# www.blender.org
mtllib curved_ramp_collision_very_detailed_r.mtl
o rampsubdiv2right_CurvedSlopeMainMesh_Cube.000
v -0.577575 -0.000000 1.109023
v -0.654380 0.000193 1.681748
v 0.624443 -0.000000 1.126741
v -1.005676 0.000000 -1.599393
v 0.253352 0.000000 -1.598543
v -0.784967 0.427767 -1.055731
v -0.622545 0.284350 -0.511891
v -0.579612 0.053555 1.109057
v 0.603977 0.216292 1.116163
v -0.569260 0.187055 0.034137
v -0.763771 0.000000 -1.054198
v 0.455222 0.000000 -1.061912
v -0.617215 0.000000 -0.509067
v 0.546874 0.000000 -0.508281
v -0.568118 -0.000000 0.035998
v 0.584039 -0.000000 0.036776
v -0.562510 -0.000000 0.516769
v 0.597645 -0.000000 0.581784
v -0.577583 -0.105814 1.109041
v 0.624435 -0.105814 1.126759
v -0.654388 -0.105622 2.581902
v 0.613513 -0.105815 2.571805
v 0.476530 0.740748 0.038926
v 0.544840 0.480015 0.580638
v -0.567849 0.134238 0.535126
v 0.613521 -0.000000 1.671651
v 0.010820 1.285176 -1.598269
v -1.003442 0.586199 -1.598269
v 0.194440 1.153969 -1.050953
v 0.355059 0.981244 -0.504945
v -0.337405 0.000144 1.679224
v -0.020430 0.000096 1.676700
v 0.296546 0.000048 1.674176
v -0.242746 1.110432 -1.598269
v -0.496311 0.935688 -1.598269
v -0.749877 0.760944 -1.598269
v -0.748587 0.393089 -0.919674
v -0.707198 0.357332 -0.783738
v -0.670970 0.323486 -0.647694
v -0.547122 0.611194 -1.054374
v -0.299935 0.792119 -1.053234
v -0.052747 0.973044 -1.052093
v 0.237349 1.116476 -0.914272
v 0.278507 1.075713 -0.777694
v 0.317787 1.030896 -0.641243
v 0.106111 0.808942 -0.506591
v -0.142838 0.636640 -0.508236
v -0.391786 0.464339 -0.509881
v -0.948969 0.546630 -1.462631
v -0.895372 0.507296 -1.326973
v -0.843527 0.468431 -1.191274
v 0.057739 1.253929 -1.461391
v 0.104253 1.222060 -1.324533
v 0.149955 1.188947 -1.187713
v -0.635844 0.013623 1.538525
v -0.618240 0.027588 1.394997
v -0.602503 0.042625 1.250860
v -0.293275 0.100520 1.109295
v 0.003014 0.141770 1.112779
v 0.299303 0.183021 1.116263
v 0.611004 0.054197 1.532835
v 0.607701 0.109143 1.394355
v 0.602825 0.165585 1.256547
v -0.617024 0.263403 -0.375395
v -0.599188 0.237735 -0.240150
v -0.586281 0.215116 -0.106813
v 0.390118 0.926318 -0.368813
v 0.422447 0.867065 -0.232818
v 0.451449 0.804778 -0.096918
v 0.213058 0.604468 0.035093
v -0.050414 0.468189 0.031259
v -0.313885 0.331909 0.027425
v -0.571551 0.179101 0.150661
v -0.568332 0.164331 0.276475
v -0.567248 0.149862 0.403730
v 0.497391 0.676064 0.174727
v 0.514933 0.611000 0.310373
v 0.530350 0.545627 0.445723
v 0.266667 0.393571 0.569260
v -0.011505 0.307127 0.557882
v -0.289677 0.220682 0.546504
v -0.580098 0.077769 0.959931
v -0.573740 0.097223 0.814847
v -0.569865 0.116443 0.672574
v 0.585487 0.285694 0.984154
v 0.573091 0.349318 0.849425
v 0.559257 0.414356 0.715080
v -0.502103 0.573936 -0.918323
v -0.255619 0.754782 -0.916973
v -0.009135 0.935629 -0.915622
v -0.460771 0.536927 -0.782227
v -0.214345 0.716522 -0.780716
v 0.032081 0.896118 -0.779205
v -0.423781 0.500339 -0.646081
v -0.176592 0.677191 -0.644468
v 0.070598 0.854044 -0.642856
v -0.697292 0.723455 -1.462321
v -0.445615 0.900280 -1.462011
v -0.193938 1.077104 -1.461701
v -0.645466 0.685987 -1.326363
v -0.395560 0.864678 -1.325753
v -0.145654 1.043369 -1.325143
v -0.595157 0.648560 -1.190384
v -0.346786 0.828689 -1.189494
v -0.098416 1.008818 -1.188604
v -0.301171 0.073365 1.252282
v 0.000161 0.104105 1.253704
v 0.301493 0.134845 1.255125
v -0.311755 0.047977 1.394837
v -0.005270 0.068366 1.394676
v 0.301216 0.088754 1.394516
v -0.324132 0.023766 1.537102
v -0.012420 0.033910 1.535680
v 0.299292 0.044054 1.534257
v -0.365238 0.429132 -0.373750
v -0.113453 0.594861 -0.372104
v 0.138333 0.760589 -0.370459
v -0.343779 0.395068 -0.238317
v -0.088371 0.552400 -0.236484
v 0.167038 0.709733 -0.234651
v -0.326849 0.362532 -0.104340
v -0.067416 0.509947 -0.101866
v 0.192017 0.657363 -0.099392
v -0.304316 0.303342 0.156678
v -0.037080 0.427582 0.162694
v 0.230156 0.551823 0.168711
v -0.297516 0.275998 0.284949
v -0.026700 0.387665 0.293424
v 0.244116 0.499333 0.301898
v -0.292848 0.248803 0.414228
v -0.018449 0.347744 0.424727
v 0.255950 0.446686 0.435225
v -0.287584 0.190921 0.683201
v -0.005304 0.265399 0.693827
v 0.276977 0.339877 0.704453
v -0.287032 0.160247 0.823492
v -0.000324 0.223271 0.832136
v 0.286383 0.286295 0.840780
v -0.288702 0.129750 0.965986
v 0.002694 0.181732 0.972042
v 0.294091 0.233713 0.978098
vt 0.000000 0.000000
vt 0.000000 0.000000
vt 0.000000 0.000000
vt 0.000000 0.000000
vt 0.375000 0.250000
vt 0.625000 0.250000
vt 0.625000 0.500000
vt 0.375000 0.500000
vt 0.125000 0.500000
vt 0.375000 0.541667
vt 0.125000 0.541667
vt 0.375000 0.583333
vt 0.125000 0.583333
vt 0.375000 0.625000
vt 0.125000 0.625000
vt 0.375000 0.666667
vt 0.125000 0.666667
vt 0.375000 0.708333
vt 0.125000 0.708333
vt 0.000000 0.000000
vt 0.000000 0.000000
vt 0.000000 0.000000
vt 0.000000 0.000000
vt 0.000000 0.000000
vt 0.000000 0.000000
vt 0.000000 0.000000
vt 0.000000 0.000000
vt 0.000000 0.000000
vt 0.000000 0.000000
vt 0.000000 0.000000
vt 0.000000 0.000000
vt 0.000000 0.000000
vt 0.000000 0.000000
vt 0.000000 0.000000
vt 0.000000 0.000000
vt 0.000000 0.000000
vt 0.000000 0.000000
vt 0.000000 0.000000
vt 0.000000 0.000000
vt 0.000000 0.000000
vt 0.125000 0.708333
vt 0.375000 0.708333
vt 0.375000 0.750000
vt 0.125000 0.750000
vt 0.000000 0.000000
vt 0.000000 0.000000
vt 0.000000 0.000000
vt 0.000000 0.000000
vt 0.000000 0.000000
vt 0.000000 0.000000
vt 0.000000 0.000000
vt 0.000000 0.000000
vt 0.000000 0.000000
vt 0.000000 0.000000
vt 0.000000 0.000000
vt 0.000000 0.000000
vt 0.000000 0.000000
vt 0.000000 0.000000
vt 0.000000 0.000000
vt 0.000000 0.000000
vt 0.000000 0.000000
vt 0.000000 0.000000
vt 0.000000 0.000000
vt 0.000000 0.000000
vt 0.000000 0.000000
vt 0.000000 0.000000
vt 0.000000 0.000000
vt 0.000000 0.000000
vt 0.000000 0.000000
vt 0.000000 0.000000
vt 0.000000 0.000000
vt 0.000000 0.000000
vt 0.000000 0.000000
vt 0.000000 0.000000
vt 0.000000 0.000000
vt 0.000000 0.000000
vt 0.000000 0.000000
vt 0.000000 0.000000
vt 0.000000 0.000000
vt 0.000000 0.000000
vt 0.000000 0.000000
vt 0.000000 0.000000
vt 0.000000 0.000000
vt 0.000000 0.000000
vt 0.000000 0.000000
vt 0.000000 0.000000
vt 0.000000 0.000000
vt 0.000000 0.000000
vt 0.000000 0.000000
vt 0.000000 0.000000
vt 0.000000 0.000000
vt 0.000000 0.000000
vt 0.000000 0.000000
vt 0.000000 0.000000
vt 0.000000 0.000000
vt 0.000000 0.000000
vt 0.000000 0.000000
vt 0.000000 0.000000
vt 0.000000 0.000000
vt 0.000000 0.000000
vt 0.000000 0.000000
vt 0.000000 0.000000
vt 0.000000 0.000000
vt 0.000000 0.000000
vt 0.000000 0.000000
vt 0.000000 0.000000
vt 0.000000 0.000000
vt 0.000000 0.000000
vt 0.000000 0.000000
vt 0.000000 0.000000
vt 0.000000 0.000000
vt 0.000000 0.000000
vt 0.000000 0.000000
vt 0.000000 0.000000
vt 0.000000 0.000000
vt 0.000000 0.000000
vt 0.000000 0.000000
vt 0.000000 0.000000
vt 0.000000 0.000000
vt 0.000000 0.000000
vt 0.000000 0.000000
vt 0.000000 0.000000
vt 0.000000 0.000000
vt 0.000000 0.000000
vt 0.000000 0.000000
vt 0.000000 0.000000
vt 0.000000 0.000000
vt 0.000000 0.000000
vt 0.000000 0.000000
vt 0.000000 0.000000
vt 0.000000 0.000000
vt 0.000000 0.000000
vt 0.000000 0.000000
vt 0.000000 0.000000
vt 0.000000 0.000000
vt 0.000000 0.000000
vt 0.000000 0.000000
vt 0.000000 0.000000
vt 0.000000 0.000000
vt 0.000000 0.000000
vt 0.000000 0.000000
vt 0.000000 0.000000
vt 0.000000 0.000000
vt 0.000000 0.000000
vt 0.000000 0.000000
vt 0.000000 0.000000
vt 0.000000 0.000000
vt 0.000000 0.000000
vt 0.000000 0.000000
vt 0.000000 0.000000
vt 0.000000 0.000000
vt 0.000000 0.000000
vt 0.000000 0.000000
vt 0.000000 0.000000
vt 0.000000 0.000000
vt 0.000000 0.000000
vt 0.000000 0.000000
vt 0.000000 0.000000
vt 0.000000 0.000000
vt 0.000000 0.000000
vn 0.9989 0.0466 0.0110
vn 0.0001 0.0008 -1.0000
vn 0.0000 -1.0000 -0.0000
vn -0.0028 -1.0000 0.0010
vn -0.0007 -1.0000 -0.0029
vn -0.0012 -1.0000 -0.0017
vn 0.0018 -1.0000 -0.0010
vn -0.9132 -0.0438 0.4052
vn -0.9648 -0.0161 0.2625
vn -0.9656 -0.0155 0.2596
vn -0.9990 -0.0380 -0.0254
vn -0.9961 -0.0076 0.0879
vn -0.9959 -0.0034 0.0907
vn -0.9960 -0.0024 0.0896
vn -0.9991 -0.0413 0.0117
vn -0.9991 -0.0408 0.0097
vn -0.9990 -0.0426 0.0133
vn 0.9874 0.1435 -0.0673
vn 0.9686 0.1899 -0.1604
vn 0.9937 0.1093 -0.0248
vn 0.9946 0.0917 -0.0489
vn 0.9151 0.2101 -0.3442
vn -0.0001 -1.0000 0.0001
vn -0.9503 -0.3032 -0.0713
vn 0.0011 0.9932 0.1167
vn 0.0147 -0.0002 -0.9999
vn -0.9866 -0.0887 -0.1371
vn -0.9607 -0.0637 0.2701
vn -0.9278 -0.0014 0.3732
vn -0.9949 -0.0450 0.0897
vn -0.9950 -0.0399 0.0916
vn -0.9951 -0.0419 0.0897
vn -0.9986 -0.0460 -0.0271
vn -0.9985 -0.0476 -0.0282
vn -0.9999 -0.0099 0.0039
vn -1.0000 -0.0079 0.0004
vn -1.0000 -0.0093 0.0019
vn 0.9920 0.1142 -0.0533
vn 0.9942 0.1049 0.0238
vn 0.9889 0.1365 -0.0590
vn 0.9738 0.1812 -0.1374
vn -0.5490 0.7479 0.3732
vn -0.5478 0.7461 0.3785
vn -0.5475 0.7551 0.3607
vn -0.5440 0.7500 0.3762
vn -0.5611 0.7433 0.3643
vn -0.5472 0.7441 0.3833
vn -0.5478 0.7449 0.3808
vn -0.5484 0.7458 0.3782
vn -0.5465 0.7443 0.3838
vn -0.5404 0.7449 0.3914
vn -0.5289 0.7478 0.4012
vn -0.5354 0.7572 0.3741
vn -0.5415 0.7662 0.3460
vn -0.5576 0.7431 0.3701
vn -0.5510 0.7600 0.3449
vn -0.5503 0.7496 0.3678
vn -0.5307 0.7476 0.3993
vn -0.5344 0.7530 0.3840
vn -0.5373 0.7445 0.3963
vn -0.5404 0.7488 0.3838
vn -0.5195 0.7461 0.4165
vn -0.5236 0.7522 0.4001
vn -0.5277 0.7580 0.3834
vn -0.5316 0.7636 0.3664
vn -0.5380 0.7581 0.3685
vn -0.5434 0.7530 0.3711
vn -0.5471 0.7487 0.3743
vn -0.5451 0.7460 0.3827
vn -0.5430 0.7431 0.3910
vn -0.5442 0.7251 0.4220
vn -0.5342 0.7400 0.4087
vn -0.5268 0.7422 0.4143
vn -0.0825 0.9752 0.2056
vn -0.0811 0.9572 0.2777
vn -0.0478 0.9787 0.1994
vn -0.0468 0.9618 0.2697
vn -0.1305 0.9845 0.1175
vn -0.1185 0.9690 0.2167
vn -0.1168 0.9496 0.2911
vn -0.0998 0.9378 0.3325
vn -0.0793 0.9345 0.3470
vn -0.0456 0.9404 0.3370
vn -0.0131 0.9431 0.3323
vn -0.0138 0.9638 0.2664
vn -0.0145 0.9801 0.1977
vn -0.0151 0.9918 0.1271
vn -0.0486 0.9907 0.1272
vn -0.0834 0.9878 0.1316
vn -0.5116 0.7999 0.3137
vn -0.5012 0.7829 0.3685
vn -0.4881 0.8204 0.2979
vn -0.4770 0.8007 0.3625
vn -0.5680 0.7904 0.2296
vn -0.5297 0.7814 0.3298
vn -0.5210 0.7681 0.3722
vn -0.5116 0.7538 0.4124
vn -0.4897 0.7643 0.4196
vn -0.4645 0.7787 0.4217
vn -0.4369 0.7960 0.4188
vn -0.4493 0.8203 0.3540
vn -0.4601 0.8418 0.2821
vn -0.4785 0.8462 0.2347
vn -0.4973 0.8370 0.2282
vn -0.5207 0.8147 0.2554
vn -0.3940 0.8829 0.2554
vn -0.3857 0.8591 0.3364
vn -0.3565 0.9004 0.2496
vn -0.3498 0.8757 0.3329
vn -0.4529 0.8799 0.1442
vn -0.4287 0.8632 0.2667
vn -0.4189 0.8404 0.3438
vn -0.4076 0.8148 0.4123
vn -0.3758 0.8321 0.4079
vn -0.3415 0.8473 0.4068
vn -0.3048 0.8604 0.4084
vn -0.3118 0.8900 0.3328
vn -0.3169 0.9152 0.2491
vn -0.3197 0.9342 0.1581
vn -0.3606 0.9193 0.1574
vn -0.3998 0.9016 0.1652
vn -0.2354 0.9392 0.2501
vn -0.2322 0.9146 0.3309
vn -0.1952 0.9501 0.2433
vn -0.1926 0.9269 0.3221
vn -0.2782 0.9464 0.1643
vn -0.2762 0.9276 0.2516
vn -0.2722 0.9024 0.3341
vn -0.2665 0.8721 0.4105
vn -0.2276 0.8845 0.4072
vn -0.1887 0.8980 0.3975
vn -0.1330 0.9013 0.4123
vn -0.1539 0.9388 0.3082
vn -0.1561 0.9602 0.2316
vn -0.1681 0.9701 0.1750
vn -0.1965 0.9670 0.1625
vn -0.2369 0.9572 0.1662
vn 0.0000 -1.0000 0.0001
vn 0.2711 0.9625 0.0000
vn 0.9537 0.2119 -0.2135
vn 0.9452 0.1765 -0.2748
usemtl Material.007
s off
f 26/1/1 22/2/1 20/3/1 3/4/1
f 4/5/2 28/6/2 27/7/2 5/8/2
f 4/9/3 5/8/3 12/10/3 11/11/3
f 11/11/3 12/10/3 14/12/3 13/13/4
f 13/13/5 14/12/3 16/14/3 15/15/6
f 15/15/7 16/14/3 18/16/3 17/17/3
f 17/17/3 18/16/3 3/18/3 1/19/3
f 11/20/8 6/21/8 4/22/8
f 13/23/9 7/24/10 11/20/10
f 17/25/11 1/26/11 8/27/11
f 13/23/12 15/28/13 10/29/14
f 17/25/15 25/30/16 15/28/17
f 23/31/18 16/32/18 14/33/18
f 30/34/19 14/33/19 12/35/19
f 18/36/20 16/32/20 24/37/20
f 3/4/21 18/36/21 9/38/21
f 29/39/22 12/35/22 5/40/22
f 19/41/23 20/42/23 22/43/23 21/44/23
f 1/26/24 19/45/24 21/46/24 2/47/24
f 2/47/25 21/46/25 22/2/25 26/1/25
f 3/18/26 20/42/26 19/41/26 1/19/26
f 1/26/27 2/47/27 55/48/27 56/49/27 57/50/27 8/27/27
f 11/20/28 7/24/28 39/51/28 38/52/28 37/53/28 6/21/28
f 6/21/29 51/54/29 50/55/29 49/56/29 28/57/29 4/5/29
f 13/23/30 10/29/31 66/58/32 65/59/32 64/60/32 7/24/32
f 17/25/33 8/27/33 82/61/33 83/62/33 84/63/33 25/30/34
f 15/28/35 25/30/36 75/64/37 74/65/37 73/66/37 10/29/37
f 18/36/38 24/37/38 87/67/38 86/68/38 85/69/38 9/38/38
f 9/38/39 63/70/39 62/71/39 61/72/39 26/1/39 3/4/39
f 16/32/40 23/31/40 76/73/40 77/74/40 78/75/40 24/37/40
f 23/31/41 14/33/41 30/34/41 67/76/41 68/77/41 69/78/41
usemtl Material.008
f 88/79/42 91/80/42 92/81/42 89/82/42
f 89/82/43 92/81/43 93/83/43 90/84/43
f 91/80/44 94/85/44 95/86/44 92/81/44
f 92/81/45 95/86/45 96/87/45 93/83/45
f 6/21/46 37/53/46 88/79/46 40/88/46
f 40/88/47 88/79/47 89/82/47 41/89/47
f 41/89/48 89/82/48 90/84/48 42/90/48
f 42/90/49 90/84/49 43/91/49 29/39/49
f 90/84/50 93/83/50 44/92/50 43/91/50
f 93/83/51 96/87/51 45/93/51 44/92/51
f 96/87/52 46/94/52 30/34/52 45/93/52
f 95/86/53 47/95/53 46/94/53 96/87/53
f 94/85/54 48/96/54 47/95/54 95/86/54
f 39/51/55 7/24/55 48/96/55 94/85/55
f 38/52/56 39/51/56 94/85/56 91/80/56
f 37/53/57 38/52/57 91/80/57 88/79/57
f 97/97/58 100/98/58 101/99/58 98/100/58
f 98/100/59 101/99/59 102/101/59 99/102/59
f 100/98/60 103/103/60 104/104/60 101/99/60
f 101/99/61 104/104/61 105/105/61 102/101/61
f 28/57/62 49/56/62 97/97/62 36/106/62
f 36/106/63 97/97/63 98/100/63 35/107/63
f 35/107/64 98/100/64 99/102/64 34/108/64
f 34/108/65 99/102/65 52/109/65 27/110/65
f 99/102/66 102/101/66 53/111/66 52/109/66
f 102/101/67 105/105/67 54/112/67 53/111/67
f 105/105/68 42/90/68 29/39/68 54/112/68
f 104/104/69 41/89/69 42/90/69 105/105/69
f 103/103/70 40/88/70 41/89/70 104/104/70
f 51/54/71 6/21/71 40/88/71 103/103/71
f 50/55/72 51/54/72 103/103/72 100/98/72
f 49/56/73 50/55/73 100/98/73 97/97/73
f 106/113/74 109/114/74 110/115/74 107/116/74
f 107/116/75 110/115/75 111/117/75 108/118/75
f 109/114/76 112/119/76 113/120/76 110/115/76
f 110/115/77 113/120/77 114/121/77 111/117/77
f 8/27/78 57/50/78 106/113/78 58/122/78
f 58/122/79 106/113/79 107/116/79 59/123/79
f 59/123/80 107/116/80 108/118/80 60/124/80
f 60/124/81 108/118/81 63/70/81 9/38/81
f 108/118/82 111/117/82 62/71/82 63/70/82
f 111/117/83 114/121/83 61/72/83 62/71/83
f 114/121/84 33/125/84 26/1/84 61/72/84
f 113/120/85 32/126/85 33/125/85 114/121/85
f 112/119/86 31/127/86 32/126/86 113/120/86
f 55/48/87 2/47/87 31/127/87 112/119/87
f 56/49/88 55/48/88 112/119/88 109/114/88
f 57/50/89 56/49/89 109/114/89 106/113/89
f 115/128/90 118/129/90 119/130/90 116/131/90
f 116/131/91 119/130/91 120/132/91 117/133/91
f 118/129/92 121/134/92 122/135/92 119/130/92
f 119/130/93 122/135/93 123/136/93 120/132/93
f 7/24/94 64/60/94 115/128/94 48/96/94
f 48/96/95 115/128/95 116/131/95 47/95/95
f 47/95/96 116/131/96 117/133/96 46/94/96
f 46/94/97 117/133/97 67/76/97 30/34/97
f 117/133/98 120/132/98 68/77/98 67/76/98
f 120/132/99 123/136/99 69/78/99 68/77/99
f 123/136/100 70/137/100 23/31/100 69/78/100
f 122/135/101 71/138/101 70/137/101 123/136/101
f 121/134/102 72/139/102 71/138/102 122/135/102
f 66/58/103 10/29/103 72/139/103 121/134/103
f 65/59/104 66/58/104 121/134/104 118/129/104
f 64/60/105 65/59/105 118/129/105 115/128/105
f 124/140/106 127/141/106 128/142/106 125/143/106
f 125/143/107 128/142/107 129/144/107 126/145/107
f 127/141/108 130/146/108 131/147/108 128/142/108
f 128/142/109 131/147/109 132/148/109 129/144/109
f 10/29/110 73/66/110 124/140/110 72/139/110
f 72/139/111 124/140/111 125/143/111 71/138/111
f 71/138/112 125/143/112 126/145/112 70/137/112
f 70/137/113 126/145/113 76/73/113 23/31/113
f 126/145/114 129/144/114 77/74/114 76/73/114
f 129/144/115 132/148/115 78/75/115 77/74/115
f 132/148/116 79/149/116 24/37/116 78/75/116
f 131/147/117 80/150/117 79/149/117 132/148/117
f 130/146/118 81/151/118 80/150/118 131/147/118
f 75/64/119 25/30/119 81/151/119 130/146/119
f 74/65/120 75/64/120 130/146/120 127/141/120
f 73/66/121 74/65/121 127/141/121 124/140/121
f 133/152/122 136/153/122 137/154/122 134/155/122
f 134/155/123 137/154/123 138/156/123 135/157/123
f 136/153/124 139/158/124 140/159/124 137/154/124
f 137/154/125 140/159/125 141/160/125 138/156/125
f 25/30/126 84/63/126 133/152/126 81/151/126
f 81/151/127 133/152/127 134/155/127 80/150/127
f 80/150/128 134/155/128 135/157/128 79/149/128
f 79/149/129 135/157/129 87/67/129 24/37/129
f 135/157/130 138/156/130 86/68/130 87/67/130
f 138/156/131 141/160/131 85/69/131 86/68/131
f 141/160/132 60/124/132 9/38/132 85/69/132
f 140/159/133 59/123/133 60/124/133 141/160/133
f 139/158/134 58/122/134 59/123/134 140/159/134
f 82/61/135 8/27/135 58/122/135 139/158/135
f 83/62/136 82/61/136 139/158/136 136/153/136
f 84/63/137 83/62/137 136/153/137 133/152/137
f 31/127/138 2/47/138 26/1/138 33/125/138 32/126/138
f 27/7/139 28/6/139 36/106/139 35/107/139 34/108/139
f 29/39/140 43/91/140 44/92/140 45/93/140 30/34/140 12/35/140
f 27/7/141 52/109/141 53/111/141 54/112/141 29/39/141 5/8/141
