# Blender v2.92.0 OBJ File: ''
# www.blender.org
mtllib multiball_ship_collision_v2.mtl
o multiball_ship
v -1.099728 0.606782 1.240849
v -0.186149 2.136624 3.053388
v -0.318142 0.189601 -1.045812
v -0.076878 -0.000000 0.984821
v -0.112560 0.484910 1.965657
v -0.514765 0.985700 -1.786614
v -0.541257 1.712935 -1.854442
v -0.336159 1.756423 3.120155
v -1.510923 1.583315 -0.008940
v -1.141249 3.837696 -0.096369
v -1.585665 0.797881 0.114173
v -1.473224 1.157923 -1.446378
v -1.593889 0.797881 -1.446378
v -0.053371 4.332265 -0.161902
v 0.003457 4.213202 -1.134246
v 1.099728 0.606782 1.240849
v 0.186149 2.136624 3.053388
v 0.318142 0.189601 -1.045812
v 0.076878 -0.000000 0.984821
v 0.112560 0.484910 1.965657
v 0.514765 0.985700 -1.786614
v 0.541257 1.712935 -1.854442
v 0.336159 1.756423 3.120155
v 1.510923 1.583315 -0.008940
v 1.141249 3.837696 -0.096369
v 1.585665 0.797881 0.114173
v 1.473224 1.157923 -1.446378
v 1.593889 0.797881 -1.446378
v 0.053371 4.332265 -0.161902
v -0.003457 4.213202 -1.134246
vn 0.0000 -0.8964 0.4432
vn 0.4447 -0.8955 -0.0164
vn 0.0000 -0.6722 0.7404
vn 0.0000 0.8258 0.5639
vn -0.3932 -0.8298 0.3960
vn -0.4965 -0.8654 0.0674
vn -0.9196 -0.0294 0.3917
vn -0.9293 0.1419 0.3410
vn -0.9954 0.0955 0.0052
vn -0.2835 -0.0993 -0.9538
vn -0.1051 -0.6912 -0.7149
vn -0.9865 0.1606 -0.0308
vn -0.8811 0.2953 -0.3695
vn 0.4965 -0.8654 0.0674
vn 0.3932 -0.8298 0.3960
vn 0.0000 -0.6812 -0.7321
vn -0.5105 -0.6255 0.5901
vn -0.4447 -0.8955 -0.0164
vn 0.6383 0.3757 -0.6719
vn 0.0000 0.9926 -0.1215
vn 0.0000 0.1730 0.9849
vn -0.4168 0.8994 -0.1315
vn -0.3262 0.7869 0.5239
vn 0.1051 -0.6912 -0.7149
vn 0.2835 -0.0993 -0.9538
vn 0.8811 0.2953 -0.3695
vn 0.9865 0.1606 -0.0308
vn 0.9954 0.0955 0.0052
vn 0.9293 0.1419 0.3410
vn 0.9196 -0.0294 0.3917
vn 0.5105 -0.6255 0.5901
vn -0.9118 0.2008 0.3582
vn 0.0000 -0.0929 -0.9957
vn 0.0000 -0.9957 -0.0930
vn 0.9118 0.2008 0.3582
vn 0.4168 0.8994 -0.1315
vn 0.3262 0.7869 0.5239
vn -0.5362 0.2352 -0.8107
vn -0.4169 0.3486 -0.8394
vn -0.4738 0.1588 -0.8662
vn 0.0000 0.2768 -0.9609
vn -0.2981 0.3418 -0.8913
vn -0.6383 0.3757 -0.6719
vn 0.4738 0.1588 -0.8662
usemtl initialShadingGroup
s off
f 5//1 4//1 19//1 20//1
f 28//2 26//2 19//2 18//2
f 8//3 5//3 20//3 23//3
f 14//4 2//4 17//4 29//4
f 5//5 1//5 4//5
f 1//6 11//6 4//6
f 1//7 8//7 11//7
f 8//8 9//8 11//8
f 9//9 13//9 11//9
f 7//10 6//10 13//10
f 6//11 3//11 13//11
f 9//12 10//12 13//12
f 10//13 12//13 13//13
f 26//14 16//14 19//14
f 16//15 20//15 19//15
f 18//16 3//16 6//16 21//16
f 8//17 1//17 5//17
f 13//18 3//18 4//18 11//18
f 15//19 25//19 27//19 22//19
f 15//20 30//20 14//20 29//20
f 2//21 8//21 23//21 17//21
f 14//22 30//22 10//22
f 2//23 14//23 10//23
f 21//24 28//24 18//24
f 21//25 22//25 28//25
f 27//26 25//26 28//26
f 25//27 24//27 28//27
f 24//28 26//28 28//28
f 24//29 23//29 26//29
f 23//30 16//30 26//30
f 23//31 20//31 16//31
f 10//32 9//32 8//32 2//32
f 6//33 7//33 22//33 21//33
f 19//34 4//34 3//34 18//34
f 25//35 17//35 23//35 24//35
f 15//36 29//36 25//36
f 29//37 17//37 25//37
s 1
f 12//38 7//39 13//40
f 22//41 7//39 30//42 15//41
f 30//42 7//39 12//38 10//43
f 22//44 27//44 28//44
