{
  "accessors": [
    {
      "bufferView": 0,
      "componentType": 5125,
      "count": 900,
      "type": "SCALAR"
    },
    {
      "bufferView": 1,
      "componentType": 5126,
      "count": 496,
      "max": [
        0.615353643894196,
        0.309249490499496,
        1.00000011920929
      ],
      "min": [
        -0.615353643894196,
        -0.309249430894852,
        -1.0
      ],
      "type": "VEC3"
    },
    {
      "bufferView": 2,
      "componentType": 5126,
      "count": 496,
      "type": "VEC3"
    },
    {
      "bufferView": 3,
      "componentType": 5126,
      "count": 496,
      "type": "VEC2"
    }
  ],
  "asset": {
    "generator": "Substance Painter 2019.1.0",
    "version": "2.0"
  },
  "bufferViews": [
    {
      "buffer": 0,
      "byteLength": 3600,
      "target": 34963
    },
    {
      "buffer": 0,
      "byteLength": 5952,
      "byteOffset": 3600,
      "target": 34962
    },
    {
      "buffer": 0,
      "byteLength": 5952,
      "byteOffset": 9552,
      "target": 34962
    },
    {
      "buffer": 0,
      "byteLength": 3968,
      "byteOffset": 15504,
      "target": 34962
    }
  ],
  "buffers": [
    {
      "byteLength": 19472,
      "uri": "Crazy_Rocket_02.bin"
    }
  ],
  "images": [
    {
      "uri": "initialShadingGroup_baseColor.png"
    },
    {
      "uri": "initialShadingGroup_occlusionRoughnessMetallic.png"
    },
    {
      "uri": "initialShadingGroup_normal.png"
    },
    {
      "uri": "initialShadingGroup_emissive.png"
    }
  ],
  "materials": [
    {
      "alphaMode": "OPAQUE",
      "emissiveFactor": [
        1.0,
        1.0,
        1.0
      ],
      "emissiveTexture": {
        "index": 3
      },
      "name": "initialShadingGroup",
      "normalTexture": {
        "index": 2
      },
      "occlusionTexture": {
        "index": 1
      },
      "pbrMetallicRoughness": {
        "baseColorTexture": {
          "index": 0
        },
        "metallicRoughnessTexture": {
          "index": 1
        }
      }
    }
  ],
  "meshes": [
    {
      "name": "Rocket_Completo",
      "primitives": [
        {
          "attributes": {
            "NORMAL": 2,
            "POSITION": 1,
            "TEXCOORD_0": 3
          },
          "indices": 0,
          "material": 0,
          "mode": 4
        }
      ]
    }
  ],
  "nodes": [
    {
      "children": [
        1
      ],
      "name": "New_Rocket_UV_02.obj",
      "scale": [
        1.03836393356323,
        1.03836393356323,
        1.03836393356323
      ],
      "translation": [
        0.0,
        0.648242473602295,
        -0.0669350624084473
      ]
    },
    {
      "children": [
        2
      ],
      "name": "g Rocket_Completo"
    },
    {
      "mesh": 0,
      "name": "Rocket_Completo"
    }
  ],
  "samplers": [
    {
      "magFilter": 9729,
      "minFilter": 9985,
      "wrapS": 10497,
      "wrapT": 10497
    }
  ],
  "scene": 0,
  "scenes": [
    {
      "name": "Scene",
      "nodes": [
        0
      ]
    }
  ],
  "textures": [
    {
      "sampler": 0,
      "source": 0
    },
    {
      "sampler": 0,
      "source": 1
    },
    {
      "sampler": 0,
      "source": 2
    },
    {
      "sampler": 0,
      "source": 3
    }
  ]
}