# This file uses centimeters as units for non-parametric coordinates.

mtllib SebasHexagon.mtl
g default
v 0.000000 -0.366343 0.000000
v 0.449853 -0.143888 0.000000
v 0.449853 0.301022 0.000000
v -0.449853 -0.143888 0.000000
v -0.449853 0.301022 0.000000
v 0.000000 0.523477 0.000000
v 0.449853 -0.143888 0.030000
v 0.000000 -0.366343 0.030000
v 0.449853 0.301022 0.030000
v -0.449853 -0.143888 0.030000
v 0.000000 0.523477 0.030000
v -0.449853 0.301022 0.030000
vt 0.518519 0.518519
vt 0.592593 0.481481
vt 0.629630 0.518519
vt 0.481481 0.592593
vt 0.518519 0.629630
vt 0.592593 0.592593
vt 0.592593 0.481481
vt 0.518519 0.518519
vt 0.629630 0.518519
vt 0.481481 0.592593
vt 0.592593 0.592593
vt 0.518519 0.629630
vn 0.000000 0.000000 1.000000
vn 0.000000 0.000000 1.000000
vn 0.000000 0.000000 1.000000
vn 0.000000 0.000000 1.000000
vn 0.000000 0.000000 1.000000
vn 0.000000 0.000000 1.000000
vn 0.000000 0.000000 -1.000000
vn 0.000000 0.000000 -1.000000
vn 0.000000 0.000000 -1.000000
vn 0.000000 0.000000 -1.000000
vn 0.000000 0.000000 -1.000000
vn 0.000000 0.000000 -1.000000
vn 0.443269 -0.896389 0.000000
vn 0.443269 -0.896389 0.000000
vn 0.443269 -0.896389 0.000000
vn 0.443269 -0.896389 0.000000
vn 1.000000 0.000000 0.000000
vn 1.000000 0.000000 0.000000
vn 1.000000 0.000000 0.000000
vn 1.000000 0.000000 0.000000
vn 0.443269 0.896388 0.000000
vn 0.443269 0.896388 0.000000
vn 0.443269 0.896388 0.000000
vn 0.443269 0.896388 0.000000
vn -0.443269 0.896388 0.000000
vn -0.443269 0.896388 0.000000
vn -0.443269 0.896388 0.000000
vn -0.443269 0.896388 0.000000
vn -1.000000 0.000000 0.000000
vn -1.000000 0.000000 0.000000
vn -1.000000 0.000000 0.000000
vn -1.000000 0.000000 0.000000
vn -0.443269 -0.896389 0.000000
vn -0.443269 -0.896389 0.000000
vn -0.443269 -0.896389 0.000000
vn -0.443269 -0.896389 0.000000
s off
g pPlane2
usemtl initialShadingGroup
f 10/4/1 8/1/2 7/2/3 9/3/4 11/6/5 12/5/6
f 4/10/7 5/12/8 6/11/9 3/9/10 2/7/11 1/8/12
f 1/8/13 2/7/14 7/2/15 8/1/16
f 2/7/17 3/9/18 9/3/19 7/2/20
f 3/9/21 6/11/22 11/6/23 9/3/24
f 6/11/25 5/12/26 12/5/27 11/6/28
f 5/12/29 4/10/30 10/4/31 12/5/32
f 4/10/33 1/8/34 8/1/35 10/4/36
