# Blender v2.82 (sub 7) OBJ File: ''
# www.blender.org
mtllib circle.mtl
o Cube
v 8.376266 1.000000 -9.376266
v 8.376266 -1.000000 -9.376266
v 10.376266 1.000000 -9.376266
v 10.376266 -1.000000 -9.376266
v -8.376266 1.000000 -9.376266
v -8.376266 -1.000000 -9.376266
v -10.376266 1.000000 -9.376266
v -10.376266 -1.000000 -9.376266
v -0.003409 -1.000000 -1.000001
v -0.004223 1.000000 0.999999
v -0.004223 -1.000000 0.999999
v -0.003409 1.000000 -1.000001
v 7.335636 -1.000000 -2.037646
v 5.921710 1.000000 -3.452147
v 5.921710 -1.000000 -3.452147
v 7.335635 1.000000 -2.037646
v -5.924120 -1.000000 -3.454558
v -7.338622 1.000000 -2.040632
v -7.338622 -1.000000 -2.040632
v -5.924120 1.000000 -3.454558
v -3.973752 -1.000000 0.208941
v -3.207821 1.000000 -1.638585
v -3.207821 -1.000000 -1.638585
v -3.973752 1.000000 0.208941
v -2.027934 -1.000000 0.799901
v -1.637054 1.000000 -1.161530
v -1.637054 -1.000000 -1.161530
v -2.027933 1.000000 0.799901
v 3.203096 -1.000000 -1.636628
v 3.967899 1.000000 0.211365
v 3.967899 -1.000000 0.211364
v 3.203096 1.000000 -1.636628
v 5.762550 -1.000000 -0.747250
v 4.651833 1.000000 -2.410472
v 4.651833 -1.000000 -2.410472
v 5.762550 1.000000 -0.747250
v 9.586017 -1.000000 -5.404467
v 7.738336 1.000000 -6.170022
v 7.738335 -1.000000 -6.170021
v 9.586016 1.000000 -5.404466
v 6.963901 -1.000000 -4.721600
v 8.626672 1.000000 -3.610206
v 8.626672 -1.000000 -3.610206
v 6.963901 1.000000 -4.721600
v 10.176786 -1.000000 -7.351441
v 8.215236 1.000000 -7.741721
v 8.215236 -1.000000 -7.741720
v 10.176786 1.000000 -7.351439
v 10.326276 -1.000000 -8.358952
v 8.335912 1.000000 -8.555037
v 8.335912 -1.000000 -8.555037
v 10.326276 1.000000 -8.358952
v 8.015402 -1.000000 -6.944153
v 9.929238 1.000000 -6.363437
v 9.929238 -1.000000 -6.363439
v 8.015402 1.000000 -6.944154
v 9.150428 -1.000000 -4.483766
v 7.386706 1.000000 -5.426783
v 7.386706 -1.000000 -5.426783
v 9.150428 1.000000 -4.483766
v 6.473996 -1.000000 -4.061267
v 8.019791 1.000000 -2.792205
v 8.019791 -1.000000 -2.792205
v 6.473996 1.000000 -4.061267
v 6.580797 -1.000000 -1.353798
v 5.312365 1.000000 -2.900109
v 5.312365 -1.000000 -2.900109
v 6.580797 1.000000 -1.353797
v 3.946477 -1.000000 -1.987955
v 4.888777 1.000000 -0.223849
v 4.888777 -1.000000 -0.223849
v 3.946478 1.000000 -1.987955
v 1.631203 -1.000000 -1.160367
v 2.020685 1.000000 0.801342
v 2.020685 -1.000000 0.801342
v 1.631203 1.000000 -1.160367
v 3.008788 -1.000000 0.554196
v 2.428851 1.000000 -1.359876
v 2.428851 -1.000000 -1.359876
v 3.008788 1.000000 0.554196
v 0.817837 -1.000000 -1.040022
v 1.013112 1.000000 0.950422
v 1.013112 -1.000000 0.950422
v 0.817837 1.000000 -1.040022
v -1.020992 -1.000000 0.949646
v -0.824198 1.000000 -1.040649
v -0.824198 -1.000000 -1.040649
v -1.020992 1.000000 0.949646
v -2.434152 -1.000000 -1.361484
v -3.015355 1.000000 0.552205
v -3.015355 -1.000000 0.552205
v -2.434153 1.000000 -1.361484
v -4.655376 -1.000000 -2.412840
v -5.766939 1.000000 -0.750184
v -5.766939 -1.000000 -0.750184
v -4.655376 1.000000 -2.412840
v -4.893899 -1.000000 -0.226586
v -3.950612 1.000000 -1.990165
v -3.950612 -1.000000 -1.990165
v -4.893899 1.000000 -0.226586
v -5.315330 -1.000000 -2.902542
v -6.584471 1.000000 -1.356812
v -6.584471 -1.000000 -1.356812
v -5.315330 1.000000 -2.902542
v -7.738987 -1.000000 -6.171597
v -9.586825 1.000000 -5.406417
v -9.586825 -1.000000 -5.406417
v -7.738987 1.000000 -6.171597
v -8.628430 -1.000000 -3.612839
v -6.965322 1.000000 -4.723726
v -6.965322 -1.000000 -4.723726
v -8.628430 1.000000 -3.612839
v -7.387710 -1.000000 -5.428662
v -9.151672 1.000000 -4.486093
v -9.151672 -1.000000 -4.486093
v -7.387710 1.000000 -5.428662
v -8.022135 -1.000000 -2.795061
v -6.475887 1.000000 -4.063572
v -6.475887 -1.000000 -4.063572
v -8.022135 1.000000 -2.795061
v -8.215402 -1.000000 -7.742557
v -10.176992 1.000000 -7.352477
v -10.176992 -1.000000 -7.352477
v -8.215402 1.000000 -7.742557
v -9.929698 -1.000000 -6.364955
v -8.015773 1.000000 -6.945378
v -8.015773 -1.000000 -6.945378
v -9.929698 1.000000 -6.364955
v -8.335954 -1.000000 -8.555462
v -10.326328 1.000000 -8.359478
v -10.326328 -1.000000 -8.359478
v -8.335954 1.000000 -8.555462
vt 0.867190 0.500000
vt 0.875000 0.500000
vt 0.875000 0.750000
vt 0.867190 0.750000
vt 0.375000 0.992190
vt 0.625000 0.992190
vt 0.625000 1.000000
vt 0.375000 1.000000
vt 0.375000 0.000000
vt 0.625000 0.000000
vt 0.625000 0.250000
vt 0.375000 0.250000
vt 0.367185 0.500000
vt 0.375000 0.500000
vt 0.375000 0.750000
vt 0.367185 0.750000
vt 0.625000 0.500000
vt 0.625000 0.750000
vt 0.375000 0.492186
vt 0.625000 0.492186
vt 0.375000 0.367157
vt 0.625000 0.367157
vt 0.625000 0.374968
vt 0.375000 0.374968
vt 0.242157 0.500000
vt 0.249968 0.500000
vt 0.249968 0.750000
vt 0.242157 0.750000
vt 0.375000 0.867218
vt 0.625000 0.867218
vt 0.625000 0.875032
vt 0.375000 0.875032
vt 0.742218 0.500000
vt 0.750032 0.500000
vt 0.750032 0.750000
vt 0.742218 0.750000
vt 0.679702 0.500000
vt 0.687516 0.500000
vt 0.687516 0.750000
vt 0.679702 0.750000
vt 0.375000 0.804702
vt 0.625000 0.804702
vt 0.625000 0.812516
vt 0.375000 0.812516
vt 0.375000 0.429669
vt 0.625000 0.429669
vt 0.625000 0.437484
vt 0.375000 0.437484
vt 0.304669 0.500000
vt 0.312484 0.500000
vt 0.312484 0.750000
vt 0.304669 0.750000
vt 0.179673 0.500000
vt 0.187484 0.500000
vt 0.187484 0.750000
vt 0.179673 0.750000
vt 0.375000 0.304673
vt 0.625000 0.304673
vt 0.625000 0.312484
vt 0.375000 0.312484
vt 0.375000 0.929706
vt 0.625000 0.929706
vt 0.625000 0.937516
vt 0.375000 0.937516
vt 0.804706 0.500000
vt 0.812516 0.500000
vt 0.812516 0.750000
vt 0.804706 0.750000
vt 0.773464 0.500000
vt 0.781274 0.500000
vt 0.781274 0.750000
vt 0.773464 0.750000
vt 0.375000 0.898464
vt 0.625000 0.898464
vt 0.625000 0.906274
vt 0.375000 0.906274
vt 0.210915 0.500000
vt 0.218726 0.500000
vt 0.218726 0.750000
vt 0.210915 0.750000
vt 0.375000 0.335915
vt 0.625000 0.335915
vt 0.625000 0.343726
vt 0.375000 0.343726
vt 0.375000 0.882843
vt 0.625000 0.882843
vt 0.625000 0.890653
vt 0.375000 0.890653
vt 0.757843 0.500000
vt 0.765653 0.500000
vt 0.765653 0.750000
vt 0.757843 0.750000
vt 0.226536 0.500000
vt 0.234347 0.500000
vt 0.234347 0.750000
vt 0.226536 0.750000
vt 0.375000 0.351536
vt 0.625000 0.351536
vt 0.625000 0.359347
vt 0.375000 0.359347
vt 0.273411 0.500000
vt 0.281226 0.500000
vt 0.281226 0.750000
vt 0.273411 0.750000
vt 0.375000 0.398411
vt 0.625000 0.398411
vt 0.625000 0.406226
vt 0.375000 0.406226
vt 0.710960 0.500000
vt 0.718774 0.500000
vt 0.718774 0.750000
vt 0.710960 0.750000
vt 0.375000 0.835960
vt 0.625000 0.835960
vt 0.625000 0.843774
vt 0.375000 0.843774
vt 0.375000 0.820331
vt 0.625000 0.820331
vt 0.625000 0.828145
vt 0.375000 0.828145
vt 0.695331 0.500000
vt 0.703145 0.500000
vt 0.703145 0.750000
vt 0.695331 0.750000
vt 0.289040 0.500000
vt 0.296855 0.500000
vt 0.296855 0.750000
vt 0.289040 0.750000
vt 0.375000 0.414040
vt 0.625000 0.414040
vt 0.625000 0.421855
vt 0.375000 0.421855
vt 0.375000 0.773444
vt 0.625000 0.773444
vt 0.625000 0.781258
vt 0.375000 0.781258
vt 0.648444 0.500000
vt 0.656258 0.500000
vt 0.656258 0.750000
vt 0.648444 0.750000
vt 0.375000 0.460927
vt 0.625000 0.460927
vt 0.625000 0.468742
vt 0.375000 0.468742
vt 0.335927 0.500000
vt 0.343742 0.500000
vt 0.343742 0.750000
vt 0.335927 0.750000
vt 0.320298 0.500000
vt 0.328113 0.500000
vt 0.328113 0.750000
vt 0.320298 0.750000
vt 0.375000 0.445298
vt 0.625000 0.445298
vt 0.625000 0.453113
vt 0.375000 0.453113
vt 0.375000 0.789073
vt 0.625000 0.789073
vt 0.625000 0.796887
vt 0.375000 0.796887
vt 0.664073 0.500000
vt 0.671887 0.500000
vt 0.671887 0.750000
vt 0.664073 0.750000
vt 0.632815 0.500000
vt 0.640629 0.500000
vt 0.640629 0.750000
vt 0.632815 0.750000
vt 0.375000 0.757815
vt 0.625000 0.757815
vt 0.625000 0.765629
vt 0.375000 0.765629
vt 0.375000 0.476556
vt 0.625000 0.476556
vt 0.625000 0.484371
vt 0.375000 0.484371
vt 0.351556 0.500000
vt 0.359371 0.500000
vt 0.359371 0.750000
vt 0.351556 0.750000
vt 0.375000 0.382782
vt 0.625000 0.382782
vt 0.625000 0.390597
vt 0.375000 0.390597
vt 0.257782 0.500000
vt 0.265597 0.500000
vt 0.265597 0.750000
vt 0.257782 0.750000
vt 0.726589 0.500000
vt 0.734403 0.500000
vt 0.734403 0.750000
vt 0.726589 0.750000
vt 0.375000 0.851589
vt 0.625000 0.851589
vt 0.625000 0.859403
vt 0.375000 0.859403
vt 0.375000 0.320294
vt 0.625000 0.320294
vt 0.625000 0.328105
vt 0.375000 0.328105
vt 0.195294 0.500000
vt 0.203105 0.500000
vt 0.203105 0.750000
vt 0.195294 0.750000
vt 0.789085 0.500000
vt 0.796895 0.500000
vt 0.796895 0.750000
vt 0.789085 0.750000
vt 0.375000 0.914085
vt 0.625000 0.914085
vt 0.625000 0.921895
vt 0.375000 0.921895
vt 0.375000 0.273431
vt 0.625000 0.273431
vt 0.625000 0.281242
vt 0.375000 0.281242
vt 0.148431 0.500000
vt 0.156242 0.500000
vt 0.156242 0.750000
vt 0.148431 0.750000
vt 0.375000 0.960948
vt 0.625000 0.960948
vt 0.625000 0.968758
vt 0.375000 0.968758
vt 0.835948 0.500000
vt 0.843758 0.500000
vt 0.843758 0.750000
vt 0.835948 0.750000
vt 0.820327 0.500000
vt 0.828137 0.500000
vt 0.828137 0.750000
vt 0.820327 0.750000
vt 0.375000 0.945327
vt 0.625000 0.945327
vt 0.625000 0.953137
vt 0.375000 0.953137
vt 0.375000 0.289052
vt 0.625000 0.289052
vt 0.625000 0.296863
vt 0.375000 0.296863
vt 0.164052 0.500000
vt 0.171863 0.500000
vt 0.171863 0.750000
vt 0.164052 0.750000
vt 0.132810 0.500000
vt 0.140621 0.500000
vt 0.140621 0.750000
vt 0.132810 0.750000
vt 0.375000 0.257810
vt 0.625000 0.257810
vt 0.625000 0.265621
vt 0.375000 0.265621
vt 0.375000 0.976569
vt 0.625000 0.976569
vt 0.625000 0.984379
vt 0.375000 0.984379
vt 0.851569 0.500000
vt 0.859379 0.500000
vt 0.859379 0.750000
vt 0.851569 0.750000
vt 0.125000 0.500000
vt 0.125000 0.750000
vn 0.0000 1.0000 0.0000
vn -0.9988 0.0000 0.0491
vn 0.0000 0.0000 -1.0000
vn 0.0000 -1.0000 0.0000
vn -0.9988 0.0000 -0.0491
vn 0.0495 0.0000 -0.9988
vn 0.0487 0.0000 0.9988
vn 0.7408 0.0000 0.6717
vn -0.6714 0.0000 -0.7411
vn 0.7411 0.0000 -0.6714
vn -0.6717 0.0000 0.7408
vn -0.3372 0.0000 0.9414
vn 0.4278 0.0000 -0.9039
vn -0.1471 0.0000 0.9891
vn 0.2433 0.0000 -0.9699
vn -0.3366 -0.0000 -0.9417
vn 0.4273 -0.0000 0.9041
vn 0.5955 -0.0000 0.8034
vn -0.5139 0.0000 -0.8579
vn 0.9415 -0.0000 0.3370
vn -0.9039 -0.0000 -0.4277
vn -0.8031 0.0000 -0.5958
vn 0.8577 0.0000 0.5142
vn 0.9892 0.0000 0.1468
vn -0.9700 -0.0000 -0.2430
vn 0.9988 0.0000 0.0491
vn -0.9892 0.0000 -0.1468
vn -0.9415 -0.0000 -0.3370
vn 0.9700 -0.0000 0.2430
vn 0.9039 0.0000 0.4277
vn -0.8577 0.0000 -0.5142
vn -0.7408 0.0000 -0.6717
vn 0.8031 0.0000 0.5958
vn 0.6714 0.0000 0.7411
vn -0.5955 -0.0000 -0.8034
vn -0.4273 0.0000 -0.9041
vn 0.5139 0.0000 0.8579
vn -0.1464 0.0000 -0.9892
vn 0.2426 0.0000 0.9701
vn 0.3366 -0.0000 0.9417
vn -0.2426 0.0000 -0.9701
vn -0.0487 0.0000 -0.9988
vn 0.1464 0.0000 0.9892
vn -0.0495 0.0000 0.9988
vn 0.1471 0.0000 -0.9891
vn 0.3372 0.0000 -0.9414
vn -0.2433 0.0000 0.9699
vn 0.5959 0.0000 -0.8031
vn -0.5143 0.0000 0.8576
vn -0.4278 0.0000 0.9039
vn 0.5143 0.0000 -0.8576
vn 0.6717 0.0000 -0.7408
vn -0.5959 0.0000 0.8031
vn 0.9416 0.0000 -0.3368
vn -0.9040 0.0000 0.4275
vn -0.8033 0.0000 0.5956
vn 0.8578 0.0000 -0.5140
vn 0.9040 0.0000 -0.4275
vn -0.8578 0.0000 0.5140
vn -0.7411 0.0000 0.6714
vn 0.8033 0.0000 -0.5956
vn 0.9892 0.0000 -0.1467
vn -0.9700 0.0000 0.2429
vn -0.9416 0.0000 0.3368
vn 0.9700 0.0000 -0.2429
vn 0.9988 0.0000 -0.0491
vn -0.9892 0.0000 0.1467
usemtl Material
s off
f 132/1/1 5/2/1 7/3/1 130/4/1
f 131/5/2 130/6/2 7/7/2 8/8/2
f 8/9/3 7/10/3 5/11/3 6/12/3
f 51/13/4 2/14/4 4/15/4 49/16/4
f 2/14/3 1/17/3 3/18/3 4/15/3
f 51/19/5 50/20/5 1/17/5 2/14/5
f 87/21/6 86/22/6 12/23/6 9/24/6
f 87/25/4 9/26/4 11/27/4 85/28/4
f 83/29/7 82/30/7 10/31/7 11/32/7
f 84/33/1 12/34/1 10/35/1 82/36/1
f 64/37/1 14/38/1 16/39/1 62/40/1
f 63/41/8 62/42/8 16/43/8 13/44/8
f 67/45/9 66/46/9 14/47/9 15/48/9
f 67/49/4 15/50/4 13/51/4 65/52/4
f 119/53/4 17/54/4 19/55/4 117/56/4
f 119/57/10 118/58/10 20/59/10 17/60/10
f 103/61/11 102/62/11 18/63/11 19/64/11
f 104/65/1 20/66/1 18/67/1 102/68/1
f 92/69/1 22/70/1 24/71/1 90/72/1
f 91/73/12 90/74/12 24/75/12 21/76/12
f 99/77/4 23/78/4 21/79/4 97/80/4
f 99/81/13 98/82/13 22/83/13 23/84/13
f 85/85/14 88/86/14 28/87/14 25/88/14
f 86/89/1 26/90/1 28/91/1 88/92/1
f 89/93/4 27/94/4 25/95/4 91/96/4
f 89/97/15 92/98/15 26/99/15 27/100/15
f 79/101/4 29/102/4 31/103/4 77/104/4
f 79/105/16 78/106/16 32/107/16 29/108/16
f 72/109/1 32/110/1 30/111/1 70/112/1
f 71/113/17 70/114/17 30/115/17 31/116/17
f 65/117/18 68/118/18 36/119/18 33/120/18
f 66/121/1 34/122/1 36/123/1 68/124/1
f 69/125/4 35/126/4 33/127/4 71/128/4
f 69/129/19 72/130/19 34/131/19 35/132/19
f 55/133/20 54/134/20 40/135/20 37/136/20
f 56/137/1 38/138/1 40/139/1 54/140/1
f 59/141/21 58/142/21 38/143/21 39/144/21
f 59/145/4 39/146/4 37/147/4 57/148/4
f 61/149/4 41/150/4 43/151/4 63/152/4
f 61/153/22 64/154/22 44/155/22 41/156/22
f 57/157/23 60/158/23 42/159/23 43/160/23
f 58/161/1 44/162/1 42/163/1 60/164/1
f 50/165/1 46/166/1 48/167/1 52/168/1
f 49/169/24 52/170/24 48/171/24 45/172/24
f 53/173/25 56/174/25 46/175/25 47/176/25
f 53/177/4 47/178/4 45/179/4 55/180/4
f 4/15/26 3/18/26 52/170/26 49/169/26
f 1/17/1 50/165/1 52/168/1 3/18/1
f 47/176/27 46/175/27 50/20/27 51/19/27
f 47/178/4 51/13/4 49/16/4 45/179/4
f 39/146/4 53/177/4 55/180/4 37/147/4
f 39/144/28 38/143/28 56/174/28 53/173/28
f 46/166/1 56/137/1 54/140/1 48/167/1
f 45/172/29 48/171/29 54/134/29 55/133/29
f 38/138/1 58/161/1 60/164/1 40/139/1
f 37/136/30 40/135/30 60/158/30 57/157/30
f 41/150/4 59/145/4 57/148/4 43/151/4
f 41/156/31 44/155/31 58/142/31 59/141/31
f 15/48/32 14/47/32 64/154/32 61/153/32
f 15/50/4 61/149/4 63/152/4 13/51/4
f 43/160/33 42/159/33 62/42/33 63/41/33
f 44/162/1 64/37/1 62/40/1 42/163/1
f 14/38/1 66/121/1 68/124/1 16/39/1
f 13/44/34 16/43/34 68/118/34 65/117/34
f 35/126/4 67/49/4 65/52/4 33/127/4
f 35/132/35 34/131/35 66/46/35 67/45/35
f 29/108/36 32/107/36 72/130/36 69/129/36
f 29/102/4 69/125/4 71/128/4 31/103/4
f 33/120/37 36/119/37 70/114/37 71/113/37
f 34/122/1 72/109/1 70/112/1 36/123/1
f 81/181/38 84/182/38 76/183/38 73/184/38
f 81/185/4 73/186/4 75/187/4 83/188/4
f 78/189/1 76/190/1 74/191/1 80/192/1
f 77/193/39 80/194/39 74/195/39 75/196/39
f 31/116/40 30/115/40 80/194/40 77/193/40
f 32/110/1 78/189/1 80/192/1 30/111/1
f 73/184/41 76/183/41 78/106/41 79/105/41
f 73/186/4 79/101/4 77/104/4 75/187/4
f 9/26/4 81/185/4 83/188/4 11/27/4
f 9/24/42 12/23/42 84/182/42 81/181/42
f 76/190/1 84/33/1 82/36/1 74/191/1
f 75/196/43 74/195/43 82/30/43 83/29/43
f 12/34/1 86/89/1 88/92/1 10/35/1
f 11/32/44 10/31/44 88/86/44 85/85/44
f 27/94/4 87/25/4 85/28/4 25/95/4
f 27/100/45 26/99/45 86/22/45 87/21/45
f 23/84/46 22/83/46 92/98/46 89/97/46
f 23/78/4 89/93/4 91/96/4 21/79/4
f 25/88/47 28/87/47 90/74/47 91/73/47
f 26/90/1 92/69/1 90/72/1 28/91/1
f 101/197/48 104/198/48 96/199/48 93/200/48
f 101/201/4 93/202/4 95/203/4 103/204/4
f 98/205/1 96/206/1 94/207/1 100/208/1
f 97/209/49 100/210/49 94/211/49 95/212/49
f 21/76/50 24/75/50 100/210/50 97/209/50
f 22/70/1 98/205/1 100/208/1 24/71/1
f 93/200/51 96/199/51 98/82/51 99/81/51
f 93/202/4 99/77/4 97/80/4 95/203/4
f 17/54/4 101/201/4 103/204/4 19/55/4
f 17/60/52 20/59/52 104/198/52 101/197/52
f 96/206/1 104/65/1 102/68/1 94/207/1
f 95/212/53 94/211/53 102/62/53 103/61/53
f 127/213/54 126/214/54 108/215/54 105/216/54
f 127/217/4 105/218/4 107/219/4 125/220/4
f 115/221/55 114/222/55 106/223/55 107/224/55
f 116/225/1 108/226/1 106/227/1 114/228/1
f 118/229/1 110/230/1 112/231/1 120/232/1
f 117/233/56 120/234/56 112/235/56 109/236/56
f 113/237/57 116/238/57 110/239/57 111/240/57
f 113/241/4 111/242/4 109/243/4 115/244/4
f 105/218/4 113/241/4 115/244/4 107/219/4
f 105/216/58 108/215/58 116/238/58 113/237/58
f 110/230/1 116/225/1 114/228/1 112/231/1
f 109/236/59 112/235/59 114/222/59 115/221/59
f 19/64/60 18/63/60 120/234/60 117/233/60
f 20/66/1 118/229/1 120/232/1 18/67/1
f 111/240/61 110/239/61 118/58/61 119/57/61
f 111/242/4 119/53/4 117/56/4 109/243/4
f 129/245/4 121/246/4 123/247/4 131/248/4
f 129/249/62 132/250/62 124/251/62 121/252/62
f 125/253/63 128/254/63 122/255/63 123/256/63
f 126/257/1 124/258/1 122/259/1 128/260/1
f 108/226/1 126/257/1 128/260/1 106/227/1
f 107/224/64 106/223/64 128/254/64 125/253/64
f 121/246/4 127/217/4 125/220/4 123/247/4
f 121/252/65 124/251/65 126/214/65 127/213/65
f 6/12/66 5/11/66 132/250/66 129/249/66
f 6/261/4 129/245/4 131/248/4 8/262/4
f 123/256/67 122/255/67 130/6/67 131/5/67
f 124/258/1 132/1/1 130/4/1 122/259/1
