# Blender v2.81 (sub 16) OBJ File: ''
# www.blender.org
mtllib boss_missile.mtl
o Cylinder
v -0.100000 0.000000 0.326762
v -0.100000 0.000000 -0.326762
v -0.050000 -0.086603 0.326762
v -0.050000 -0.086603 -0.326762
v 0.050000 -0.086603 0.326762
v 0.050000 -0.086603 -0.326762
v 0.100000 0.000000 0.326762
v 0.100000 0.000000 -0.326762
v 0.050000 0.086603 0.326762
v 0.050000 0.086603 -0.326762
v -0.050000 0.086603 0.326762
v -0.050000 0.086603 -0.326762
v 0.000000 -0.000000 -0.494631
v 0.050000 0.086603 0.151090
v 0.100000 0.000000 0.151090
v 0.050000 -0.086603 0.151090
v -0.050000 -0.086603 0.151090
v -0.100000 0.000000 0.151090
v -0.050000 0.086603 0.151090
v -0.168782 -0.055328 0.402047
v -0.132306 -0.118505 0.402047
v -0.132306 -0.118505 0.273893
v 0.132306 -0.118505 0.273893
v 0.132306 -0.118505 0.402047
v 0.168782 -0.055328 0.402047
v 0.168782 -0.055328 0.273893
v 0.036476 0.173833 0.273893
v 0.036476 0.173833 0.402047
v -0.036476 0.173833 0.402047
v -0.036476 0.173833 0.273893
v -0.168782 -0.055328 0.273893
vt 1.000000 0.634404
vt 1.000000 1.000000
vt 0.833333 1.000000
vt 0.833333 0.634404
vt 0.666667 1.000000
vt 0.666667 0.634404
vt 0.500000 1.000000
vt 0.500000 0.634404
vt 0.333333 1.000000
vt 0.333333 0.634404
vt 0.666667 1.000000
vt 0.166667 1.000000
vt 0.166667 0.634404
vt -0.000000 1.000000
vt -0.000000 0.634404
vt 0.750000 0.490000
vt 0.957846 0.370000
vt 0.957846 0.130000
vt 0.750000 0.010000
vt 0.542154 0.130000
vt 0.542154 0.370000
vt 0.542154 0.130000
vt 0.542154 0.370000
vt 0.166667 1.000000
vt 0.833333 1.000000
vt 0.500000 1.000000
vt -0.000000 1.000000
vt 0.333333 1.000000
vt 0.500000 0.500000
vt 0.333333 0.500000
vt 0.666667 0.500000
vt 0.666667 0.634404
vt 0.666667 0.500000
vt 0.166667 0.500000
vt -0.000000 0.500000
vt 0.833333 0.500000
vt 0.500000 0.500000
vt 0.500000 0.634404
vt 0.333333 0.500000
vt 0.333333 0.634404
vt 0.166667 0.634404
vt 0.166667 0.500000
vt 1.000000 0.500000
vt 1.000000 0.634404
vt 0.833333 0.634404
vt 0.833333 0.500000
vt 0.750000 0.490000
vt 0.957846 0.370000
vt 0.957846 0.130000
vt 0.750000 0.010000
vt -0.000000 0.634404
vt -0.000000 0.500000
vn -0.9811 0.1186 -0.1525
vn -0.9693 0.0000 -0.2460
vn -0.4846 -0.8394 -0.2460
vn -0.3878 -0.9090 -0.1525
vn 0.4846 -0.8394 -0.2460
vn 0.3878 -0.9090 -0.1525
vn 0.9693 0.0000 -0.2460
vn 0.9811 0.1186 -0.1525
vn 0.4846 0.8394 -0.2460
vn 0.5933 0.7904 -0.1525
vn 0.0000 0.0000 -1.0000
vn -0.4846 0.8394 -0.2460
vn -0.5933 0.7904 -0.1525
vn -0.4072 0.6290 0.6622
vn 0.3411 -0.6671 0.6622
vn -0.3411 -0.6671 0.6622
vn 0.4072 0.6290 0.6622
vn 0.7483 0.0382 0.6622
vn -0.7483 0.0382 0.6622
vn 0.5178 0.3640 0.7742
vn -0.5178 0.3640 0.7742
vn 0.3816 -0.8962 -0.2261
vn 0.0563 -0.6304 0.7742
vn 0.5741 0.2664 0.7742
vn 0.9669 0.1176 -0.2261
vn 0.5853 0.7786 -0.2261
vn -0.5853 0.7786 -0.2261
vn -0.5741 0.2664 0.7742
vn -0.9669 0.1176 -0.2261
vn -0.3816 -0.8962 -0.2261
vn -0.0563 -0.6304 0.7742
usemtl None
s 1
f 18/1/1 2/2/2 4/3/3 17/4/4
f 17/4/4 4/3/3 6/5/5 16/6/6
f 16/6/6 6/5/5 8/7/7 15/8/8
f 15/8/8 8/7/7 10/9/9 14/10/10
f 6/5/5 4/3/3 13/11/11
f 14/10/10 10/9/9 12/12/12 19/13/13
f 19/13/13 12/12/12 2/14/2 18/15/1
f 1/16/14 3/17/15 5/18/16 7/19/17 9/20/18 11/21/19
f 11/21/19 9/20/18 28/22/20 29/23/21
f 12/12/12 10/9/9 13/24/11
f 4/3/3 2/2/2 13/25/11
f 8/7/7 6/5/5 13/26/11
f 2/14/2 12/12/12 13/27/11
f 10/9/9 8/7/7 13/28/11
f 7/29/17 15/8/8 14/10/10 9/30/18
f 5/31/16 16/6/6 23/32/22 24/33/23
f 11/34/19 19/13/13 18/15/1 1/35/14
f 3/36/15 17/4/4 16/6/6 5/31/16
f 15/8/8 7/29/17 25/37/24 26/38/25
f 24/33/23 23/32/22 26/38/25 25/37/24
f 28/39/20 27/40/26 30/41/27 29/42/21
f 20/43/28 31/44/29 22/45/30 21/46/31
f 17/4/4 3/36/15 21/46/31 22/45/30
f 18/1/1 17/4/4 22/45/30 31/44/29
f 3/17/15 1/16/14 20/47/28 21/48/31
f 7/19/17 5/18/16 24/49/23 25/50/24
f 14/10/10 19/13/13 30/41/27 27/40/26
f 1/35/14 18/15/1 31/51/29 20/52/28
f 19/13/13 11/34/19 29/42/21 30/41/27
f 16/6/6 15/8/8 26/38/25 23/32/22
f 9/30/18 14/10/10 27/40/26 28/39/20
