# Blender v2.81 (sub 16) OBJ File: ''
# www.blender.org
mtllib box_v3.mtl
o box_v3
v 4.496499 1.002065 7.993173
v 4.496498 1.004120 -8.001312
v 4.496498 -3.375134 -7.070477
v 4.496499 -1.732382 8.575104
v -4.496500 -3.375131 -7.070474
v -4.496500 1.004120 -8.001312
v -4.496499 1.002065 7.993173
v -4.496499 -1.732382 8.575104
vt 0.000000 1.000000
vt 0.000000 0.000000
vt 0.000000 0.000000
vt 0.000000 1.000000
vt 1.000000 0.000000
vt 1.000000 0.000000
vt 1.000000 1.000000
vt 1.000000 1.000000
vn -1.0000 0.0000 0.0000
vn 0.0000 0.2079 0.9781
vn 0.0000 -0.2082 -0.9781
vn 1.0000 0.0000 -0.0000
vn 0.0000 0.9945 -0.1044
usemtl initialShadingGroup
s 1
f 1/1/1 2/2/1 3/3/1 4/4/1
f 5/5/2 3/3/2 2/2/2 6/6/2
f 7/7/3 1/1/3 4/4/3 8/8/3
f 8/8/4 5/5/4 6/6/4 7/7/4
f 5/5/5 8/8/5 4/4/5 3/3/5
