# This file uses centimeters as units for non-parametric coordinates.

mtllib Box_07.mtl
g default
v -4.500000 2.846332 7.397264
v 4.500000 2.846332 7.397264
v -4.500000 2.846332 -8.602736
v 4.500000 2.846332 -8.602736
v -4.500000 0.833142 7.825181
v -4.500000 -0.811776 -7.825181
v 4.500000 -0.811777 -7.825181
v 4.500000 0.833141 7.825181
vt 0.681724 0.046619
vt 0.611661 0.957291
vt 0.611661 0.864493
vt 0.681724 0.142187
vt 0.388339 0.957291
vt 0.000000 0.874747
vt 0.284580 0.142187
vt 0.284580 0.840474
vt 0.284580 0.046619
vt 1.000000 0.874747
vt 1.000000 0.823677
vt 0.000000 0.823677
vt 0.388339 0.864493
vt 0.681724 0.142187
vt 0.284580 0.142187
vt 0.681724 0.840474
vn -1.000000 0.000000 0.000000
vn -1.000000 0.000000 0.000000
vn -1.000000 0.000000 0.000000
vn -1.000000 0.000000 0.000000
vn 1.000000 -0.000000 0.000000
vn 1.000000 -0.000000 0.000000
vn 1.000000 -0.000000 0.000000
vn 1.000000 -0.000000 0.000000
vn 0.000000 0.207910 0.978148
vn 0.000000 0.207910 0.978148
vn 0.000000 0.207910 0.978148
vn 0.000000 0.207910 0.978148
vn 0.000000 -0.207910 -0.978148
vn 0.000000 -0.207910 -0.978148
vn 0.000000 -0.207910 -0.978148
vn 0.000000 -0.207910 -0.978148
vn 0.000000 0.994525 -0.104503
vn 0.000000 0.994525 -0.104503
vn 0.000000 0.994525 -0.104503
vn 0.000000 0.994525 -0.104503
s off
g Mesh
usemtl lambert2SG
f 2/10/1 4/2/2 7/3/3 8/11/4
f 3/5/5 1/6/6 5/12/7 6/13/8
f 4/2/9 3/5/10 6/13/11 7/3/12
f 1/9/13 2/1/14 8/14/15 5/7/16
f 7/16/17 6/8/18 5/15/19 8/4/20
