# Blender v2.81 (sub 16) OBJ File: ''
# www.blender.org
mtllib bumper_cage.mtl
o Cylinder_Cylinder.001
v 0.923880 -0.300000 0.382684
v 0.923880 0.300000 0.382684
v 0.707107 -0.300000 0.707107
v 0.707107 0.300000 0.707107
v 0.382683 -0.300000 0.923880
v 0.382683 0.300000 0.923880
v 0.000000 -0.300000 1.000000
v 0.000000 0.300000 1.000000
v -0.382683 -0.300000 0.923880
v -0.382683 0.300000 0.923880
v -0.707107 -0.300000 0.707107
v -0.707107 0.300000 0.707107
v -0.923880 -0.300000 0.382684
v -0.923880 0.300000 0.382684
v -1.000000 -0.300000 -0.000000
v -1.000000 0.300000 -0.000000
v -0.923879 -0.300000 -0.382684
v -0.923879 0.300000 -0.382684
v -0.707107 -0.300000 -0.707107
v -0.707107 0.300000 -0.707107
v -0.382683 -0.300000 -0.923880
v -0.382683 0.300000 -0.923880
v 0.819956 -0.300000 0.339637
v 0.819956 0.300000 0.339637
v 0.627567 -0.300000 0.627567
v 0.627567 0.300000 0.627567
v 0.339637 -0.300000 0.819956
v 0.339637 0.300000 0.819956
v 0.000000 -0.300000 0.887514
v 0.000000 0.300000 0.887514
v -0.339637 -0.300000 0.819956
v -0.339637 0.300000 0.819956
v -0.627567 -0.300000 0.627567
v -0.627567 0.300000 0.627567
v -0.819956 -0.300000 0.339637
v -0.819956 0.300000 0.339637
v -0.887514 -0.300000 -0.000000
v -0.887514 0.300000 -0.000000
v -0.819956 -0.300000 -0.339637
v -0.819956 0.300000 -0.339637
v -0.627567 -0.300000 -0.627567
v -0.627567 0.300000 -0.627567
v -0.339636 -0.300000 -0.819956
v -0.339636 0.300000 -0.819956
vt 0.687500 0.500000
vt 0.687500 1.000000
vt 0.625000 1.000000
vt 0.625000 0.500000
vt 0.562500 1.000000
vt 0.562500 0.500000
vt 0.500000 1.000000
vt 0.500000 0.500000
vt 0.437500 1.000000
vt 0.437500 0.500000
vt 0.375000 1.000000
vt 0.375000 0.500000
vt 0.312500 1.000000
vt 0.312500 0.500000
vt 0.250000 1.000000
vt 0.250000 0.500000
vt 0.187500 1.000000
vt 0.187500 0.500000
vt 0.125000 1.000000
vt 0.125000 0.500000
vt 0.062500 1.000000
vt 0.062500 0.500000
vt 0.687500 0.500000
vt 0.625000 0.500000
vt 0.625000 1.000000
vt 0.687500 1.000000
vt 0.562500 0.500000
vt 0.562500 1.000000
vt 0.500000 0.500000
vt 0.500000 1.000000
vt 0.437500 0.500000
vt 0.437500 1.000000
vt 0.375000 0.500000
vt 0.375000 1.000000
vt 0.312500 0.500000
vt 0.312500 1.000000
vt 0.250000 0.500000
vt 0.250000 1.000000
vt 0.187500 0.500000
vt 0.187500 1.000000
vt 0.125000 0.500000
vt 0.125000 1.000000
vt 0.062500 0.500000
vt 0.062500 1.000000
vt 0.000000 0.000000
vt 0.000000 0.000000
vt 0.000000 0.000000
vt 0.000000 0.000000
vt 0.000000 0.000000
vt 0.000000 0.000000
vt 0.000000 0.000000
vt 0.000000 0.000000
vn 0.8315 0.0000 0.5556
vn 0.5556 0.0000 0.8315
vn 0.1951 0.0000 0.9808
vn -0.1951 0.0000 0.9808
vn -0.5556 0.0000 0.8315
vn -0.8315 0.0000 0.5556
vn -0.9808 0.0000 0.1951
vn -0.9808 0.0000 -0.1951
vn -0.8315 0.0000 -0.5556
vn -0.5556 0.0000 -0.8315
vn -0.1951 0.0000 -0.9808
vn 0.1951 0.0000 -0.9808
vn 0.5556 0.0000 -0.8315
vn 0.8315 0.0000 -0.5556
vn 0.9808 0.0000 -0.1951
vn 0.9808 0.0000 0.1951
vn 0.0000 1.0000 -0.0000
vn 0.0000 -1.0000 0.0000
vn 0.3827 0.0000 -0.9239
vn 0.9239 0.0000 -0.3827
usemtl None
s off
f 1/1/1 2/2/1 4/3/1 3/4/1
f 3/4/2 4/3/2 6/5/2 5/6/2
f 5/6/3 6/5/3 8/7/3 7/8/3
f 7/8/4 8/7/4 10/9/4 9/10/4
f 9/10/5 10/9/5 12/11/5 11/12/5
f 11/12/6 12/11/6 14/13/6 13/14/6
f 13/14/7 14/13/7 16/15/7 15/16/7
f 15/16/8 16/15/8 18/17/8 17/18/8
f 17/18/9 18/17/9 20/19/9 19/20/9
f 19/20/10 20/19/10 22/21/10 21/22/10
f 23/23/9 25/24/9 26/25/9 24/26/9
f 25/24/10 27/27/10 28/28/10 26/25/10
f 27/27/11 29/29/11 30/30/11 28/28/11
f 29/29/12 31/31/12 32/32/12 30/30/12
f 31/31/13 33/33/13 34/34/13 32/32/13
f 33/33/14 35/35/14 36/36/14 34/34/14
f 35/35/15 37/37/15 38/38/15 36/36/15
f 37/37/16 39/39/16 40/40/16 38/38/16
f 39/39/1 41/41/1 42/42/1 40/40/1
f 41/41/2 43/43/2 44/44/2 42/42/2
f 6/5/17 28/28/17 30/30/17 8/7/17
f 17/18/18 39/39/18 37/37/18 15/16/18
f 16/15/17 38/38/17 40/40/17 18/17/17
f 9/10/18 31/31/18 29/29/18 7/8/18
f 8/7/17 30/30/17 32/32/17 10/9/17
f 19/20/18 41/41/18 39/39/18 17/18/18
f 18/17/17 40/40/17 42/42/17 20/19/17
f 11/12/18 33/33/18 31/31/18 9/10/18
f 10/9/17 32/32/17 34/34/17 12/11/17
f 3/4/18 25/24/18 23/23/18 1/1/18
f 21/22/18 43/43/18 41/41/18 19/20/18
f 2/2/17 24/26/17 26/25/17 4/3/17
f 20/19/17 42/42/17 44/44/17 22/21/17
f 13/14/18 35/35/18 33/33/18 11/12/18
f 12/11/17 34/34/17 36/36/17 14/13/17
f 5/6/18 27/27/18 25/24/18 3/4/18
f 4/3/17 26/25/17 28/28/17 6/5/17
f 15/16/18 37/37/18 35/35/18 13/14/18
f 14/13/17 36/36/17 38/38/17 16/15/17
f 7/8/18 29/29/18 27/27/18 5/6/18
f 2/45/19 1/46/19 23/47/19
f 2/45/19 23/47/19 24/48/19
f 22/49/20 43/50/20 21/51/20
f 22/49/20 44/52/20 43/50/20
