# Blender v2.81 (sub 16) OBJ File: ''
# www.blender.org
mtllib bumper_cage_v2.mtl
o Cylinder.001_Cylinder.003
v 0.849979 -0.203119 -0.849676
v 0.849979 0.203119 -0.849676
v 1.108655 -0.199800 -0.459220
v 1.108655 0.199800 -0.459220
v 1.200000 -0.199800 0.000000
v 1.200000 0.199800 0.000000
v 1.108655 -0.199800 0.459220
v 1.108655 0.199800 0.459220
v 0.848528 -0.199800 0.848528
v 0.848528 0.199800 0.848528
v 0.459220 -0.199800 1.108655
v 0.459220 0.199800 1.108655
v 0.000000 -0.199800 1.200000
v 0.000000 0.199800 1.200000
v -0.459220 -0.199800 1.108656
v -0.459220 0.199800 1.108656
v -0.848528 -0.199800 0.848528
v -0.848528 0.199800 0.848528
v -1.108655 -0.199800 0.459220
v -1.108655 0.199800 0.459220
v -1.200000 -0.199800 -0.000000
v -1.200000 0.199800 -0.000000
v -1.108655 -0.199800 -0.459220
v -1.108655 0.199800 -0.459220
v -0.848528 -0.199800 -0.848528
v -0.848528 0.199800 -0.848528
v 0.752946 -0.203119 -0.752642
v 0.752946 0.203119 -0.752642
v 0.987647 -0.203119 -0.401386
v 0.987647 0.203119 -0.401386
v 1.065017 -0.199800 0.000000
v 1.065017 0.199800 0.000000
v 0.983947 -0.199800 0.407564
v 0.983947 0.199800 0.407564
v 0.753080 -0.199800 0.753080
v 0.753080 0.199800 0.753080
v 0.407564 -0.199800 0.983947
v 0.407564 0.199800 0.983947
v 0.000000 -0.199800 1.065017
v 0.000000 0.199800 1.065017
v -0.407564 -0.199800 0.983947
v -0.407564 0.199800 0.983947
v -0.753080 -0.199800 0.753081
v -0.753080 0.199800 0.753081
v -0.983947 -0.199800 0.407564
v -0.983947 0.199800 0.407564
v -1.065017 -0.199800 -0.000000
v -1.065017 0.199800 -0.000000
v -0.983947 -0.199800 -0.407564
v -0.983947 0.199800 -0.407564
v -0.753080 -0.199800 -0.753081
v -0.753080 0.199800 -0.753081
v 0.520078 -0.203119 -0.519606
v 0.520078 0.203119 -0.519606
v 0.682163 -0.203119 -0.277028
v 0.682163 0.203119 -0.277028
v 0.679608 0.199800 0.281635
v 0.679608 -0.199800 0.281635
v 0.520171 -0.199800 0.520249
v 0.520171 0.199800 0.520249
v 0.281557 -0.199800 0.679686
v 0.281557 0.199800 0.679686
v -0.281372 0.199800 0.679686
v -0.281372 -0.199800 0.679686
v -0.519987 -0.199800 0.520249
v -0.519987 0.199800 0.520249
v -0.679424 -0.199800 0.281635
v -0.679424 0.199800 0.281635
v -0.679423 0.199800 -0.281294
v -0.679423 -0.199800 -0.281294
v -0.519987 -0.199800 -0.519908
v -0.519987 0.199800 -0.519908
vt 0.875000 0.500000
vt 0.875000 1.000000
vt 0.812500 1.000000
vt 0.812500 0.500000
vt 0.750000 1.000000
vt 0.750000 0.500000
vt 0.687500 1.000000
vt 0.687500 0.500000
vt 0.625000 1.000000
vt 0.625000 0.500000
vt 0.562500 1.000000
vt 0.562500 0.500000
vt 0.500000 1.000000
vt 0.500000 0.500000
vt 0.437500 1.000000
vt 0.437500 0.500000
vt 0.375000 1.000000
vt 0.375000 0.500000
vt 0.312500 1.000000
vt 0.312500 0.500000
vt 0.250000 1.000000
vt 0.250000 0.500000
vt 0.187500 1.000000
vt 0.187500 0.500000
vt 0.125000 1.000000
vt 0.125000 0.500000
vt 0.187500 1.000000
vt 0.187500 1.000000
vt 0.125000 1.000000
vt 0.125000 1.000000
vt 0.812500 0.500000
vt 0.750000 0.500000
vt 0.750000 1.000000
vt 0.812500 1.000000
vt 0.687500 0.500000
vt 0.687500 1.000000
vt 0.312500 1.000000
vt 0.312500 1.000000
vt 0.312500 0.500000
vt 0.312500 0.500000
vt 0.562500 0.500000
vt 0.500000 0.500000
vt 0.500000 1.000000
vt 0.562500 1.000000
vt 0.437500 0.500000
vt 0.437500 1.000000
vt 0.125000 0.500000
vt 0.125000 0.500000
vt 0.187500 0.500000
vt 0.187500 0.500000
vt 0.375000 1.000000
vt 0.375000 1.000000
vt 0.250000 0.500000
vt 0.250000 1.000000
vt 0.687500 1.000000
vt 0.625000 1.000000
vt 0.625000 1.000000
vt 0.375000 0.500000
vt 0.625000 0.500000
vt 0.875000 0.500000
vt 0.875000 1.000000
vt 0.000000 0.000000
vt 0.000000 0.000000
vt 0.000000 0.000000
vt 0.875000 0.500000
vt 0.812500 0.500000
vt 0.812500 1.000000
vt 0.875000 1.000000
vt 0.687500 0.500000
vt 0.625000 0.500000
vt 0.562500 0.500000
vt 0.562500 1.000000
vt 0.437500 0.500000
vt 0.375000 0.500000
vt 0.437500 1.000000
vt 0.000000 0.000000
vt 0.000000 0.000000
vt 0.000000 0.000000
vt 0.000000 0.000000
vt 0.000000 0.000000
vt 0.000000 0.000000
vt 0.000000 0.000000
vt 0.000000 0.000000
vt 0.000000 0.000000
vn 0.8337 0.0000 -0.5523
vn 0.9808 0.0000 -0.1951
vn 0.9808 0.0000 0.1951
vn 0.8315 0.0000 0.5556
vn 0.5556 0.0000 0.8315
vn 0.1951 0.0000 0.9808
vn -0.1951 0.0000 0.9808
vn -0.5556 0.0000 0.8315
vn -0.8315 0.0000 0.5556
vn -0.9808 0.0000 0.1951
vn -0.9808 0.0000 -0.1951
vn -0.8315 0.0000 -0.5556
vn 0.0000 1.0000 0.0000
vn -0.9819 0.0000 0.1893
vn -0.3821 0.0000 -0.9241
vn -0.1951 0.0000 -0.9808
vn 0.1951 0.0000 -0.9808
vn 0.0000 -1.0000 0.0000
vn -0.3830 0.0000 0.9237
vn 0.0132 -0.9999 0.0013
vn 0.0132 0.9999 0.0013
vn 0.0125 -0.9999 -0.0038
vn 0.0125 0.9999 -0.0038
vn -0.7071 0.0000 -0.7071
vn -0.5556 0.0000 -0.8315
vn 0.5556 0.0000 -0.8315
vn 0.8315 0.0000 -0.5556
vn -0.7074 0.0000 -0.7069
vn 0.9237 0.0000 0.3831
vn -0.9239 0.0000 0.3826
vn 0.3823 0.0000 -0.9240
vn 0.3770 0.0000 0.9262
vn 0.7072 0.0000 -0.7070
vn 0.7071 0.0000 -0.7071
usemtl None
s off
f 1/1/1 2/2/1 4/3/1 3/4/1
f 3/4/2 4/3/2 6/5/2 5/6/2
f 5/6/3 6/5/3 8/7/3 7/8/3
f 7/8/4 8/7/4 10/9/4 9/10/4
f 9/10/5 10/9/5 12/11/5 11/12/5
f 11/12/6 12/11/6 14/13/6 13/14/6
f 13/14/7 14/13/7 16/15/7 15/16/7
f 15/16/8 16/15/8 18/17/8 17/18/8
f 17/18/9 18/17/9 20/19/9 19/20/9
f 19/20/10 20/19/10 22/21/10 21/22/10
f 21/22/11 22/21/11 24/23/11 23/24/11
f 23/24/12 24/23/12 26/25/12 25/26/12
f 50/27/13 69/28/13 72/29/13 52/30/13
f 29/31/14 31/32/14 32/33/14 30/34/14
f 31/32/11 33/35/11 34/36/11 32/33/11
f 46/37/15 68/38/15 67/39/15 45/40/15
f 37/41/16 39/42/16 40/43/16 38/44/16
f 39/42/17 41/45/17 42/46/17 40/43/17
f 51/47/18 71/48/18 70/49/18 49/50/18
f 44/51/13 66/52/13 68/38/13 46/37/13
f 45/40/2 47/53/2 48/54/2 46/37/2
f 47/53/3 49/50/3 50/27/3 48/54/3
f 34/36/13 57/55/13 60/56/13 36/57/13
f 49/50/19 70/49/19 69/28/19 50/27/19
f 12/11/13 38/44/13 40/43/13 14/13/13
f 5/6/20 31/32/20 29/31/20 3/4/20
f 23/24/18 49/50/18 47/53/18 21/22/18
f 4/3/21 30/34/21 32/33/21 6/5/21
f 22/21/13 48/54/13 50/27/13 24/23/13
f 15/16/18 41/45/18 39/42/18 13/14/18
f 14/13/13 40/43/13 42/46/13 16/15/13
f 7/8/18 33/35/18 31/32/18 5/6/18
f 25/26/18 51/47/18 49/50/18 23/24/18
f 6/5/13 32/33/13 34/36/13 8/7/13
f 24/23/13 50/27/13 52/30/13 26/25/13
f 17/18/18 43/58/18 41/45/18 15/16/18
f 16/15/13 42/46/13 44/51/13 18/17/13
f 9/10/18 35/59/18 33/35/18 7/8/18
f 8/7/13 34/36/13 36/57/13 10/9/13
f 19/20/18 45/40/18 43/58/18 17/18/18
f 18/17/13 44/51/13 46/37/13 20/19/13
f 11/12/18 37/41/18 35/59/18 9/10/18
f 10/9/13 36/57/13 38/44/13 12/11/13
f 3/4/22 29/31/22 27/60/22 1/1/22
f 21/22/18 47/53/18 45/40/18 19/20/18
f 2/2/23 28/61/23 30/34/23 4/3/23
f 20/19/13 46/37/13 48/54/13 22/21/13
f 13/14/18 39/42/18 37/41/18 11/12/18
f 1/62/24 27/63/24 28/64/24
f 53/65/9 55/66/9 56/67/9 54/68/9
f 58/69/12 59/70/12 60/56/12 57/55/12
f 59/70/25 61/71/25 62/72/25 60/56/25
f 64/73/26 65/74/26 66/52/26 63/75/26
f 65/74/27 67/39/27 68/38/27 66/52/27
f 70/49/4 71/48/4 72/29/4 69/28/4
f 54/76/28 27/63/28 53/77/28
f 37/41/18 61/71/18 59/70/18 35/59/18
f 41/45/29 64/73/29 63/75/29 42/46/29
f 36/57/13 60/56/13 62/72/13 38/44/13
f 43/58/18 65/74/18 64/73/18 41/45/18
f 38/44/30 62/72/30 61/71/30 37/41/30
f 42/46/13 63/75/13 66/52/13 44/51/13
f 29/31/18 55/66/18 53/65/18 27/60/18
f 33/35/31 58/69/31 57/55/31 34/36/31
f 28/61/13 54/68/13 56/67/13 30/34/13
f 35/59/18 59/70/18 58/69/18 33/35/18
f 45/40/18 67/39/18 65/74/18 43/58/18
f 30/34/32 56/67/32 55/66/32 29/31/32
f 2/78/24 1/62/24 28/64/24
f 28/64/28 27/63/28 54/76/28
f 72/79/33 71/80/33 51/81/33
f 72/79/33 51/81/33 52/82/33
f 52/82/34 51/81/34 25/83/34
f 52/82/34 25/83/34 26/84/34
