# Blender v2.81 (sub 16) OBJ File: 'curved_slope_3.blend'
# www.blender.org
mtllib curved_ramp_V7_L.mtl
o Plane.004_Plane.006
v -0.500000 0.000000 1.100000
v 0.035063 0.752444 -0.896881
v -0.099565 0.684040 -0.736230
v -0.210018 0.615636 -0.566404
v -0.298338 0.547232 -0.389923
v -0.366778 0.478828 -0.208807
v -0.417744 0.410424 -0.024627
v -0.453743 0.342020 0.161447
v -0.477342 0.273616 0.348587
v -0.491144 0.205212 0.536254
v -0.497769 0.136808 0.724130
v -0.499845 0.068404 0.912062
v -0.300000 0.000000 1.100000
v -0.100000 0.000000 1.100000
v 0.100000 0.000000 1.100000
v 0.300000 0.000000 1.100000
v 0.842097 0.000000 -0.817810
v 0.648130 0.118582 -0.866656
v 0.451419 0.271514 -0.905264
v 0.300165 0.000000 0.900677
v 0.100165 0.010780 0.900787
v -0.099836 0.024683 0.901860
v -0.299839 0.044058 0.905078
v 0.302360 0.000000 0.704787
v 0.102360 0.021560 0.704149
v -0.097651 0.049366 0.705439
v -0.297688 0.088115 0.711020
v 0.309325 0.000000 0.512688
v 0.109336 0.032340 0.510370
v -0.090697 0.074049 0.510943
v -0.290832 0.132173 0.517953
v 0.323746 0.000000 0.324540
v 0.123804 0.043121 0.319610
v -0.076254 0.098732 0.318532
v -0.276572 0.176231 0.326035
v 0.348251 0.000000 0.140673
v 0.148426 0.053901 0.132199
v -0.051636 0.123415 0.128538
v -0.252227 0.220289 0.135593
v 0.385396 0.000000 -0.038350
v 0.185809 0.064681 -0.051296
v -0.014200 0.148098 -0.058475
v -0.215149 0.264346 -0.052814
v 0.437648 0.000000 -0.211678
v 0.238482 0.075461 -0.230019
v 0.038632 0.172781 -0.241649
v -0.162739 0.308404 -0.238335
v 0.507359 0.000000 -0.378112
v 0.308871 0.086241 -0.402761
v 0.109350 0.197464 -0.419770
v -0.092474 0.352462 -0.419768
v 0.596723 0.000000 -0.536055
v 0.399260 0.097021 -0.567908
v 0.200311 0.222147 -0.591217
v -0.001950 0.396520 -0.595499
v 0.707730 0.000000 -0.683464
v 0.511737 0.107801 -0.723394
v 0.313692 0.246830 -0.753909
v 0.111074 0.440577 -0.763459
v -0.445038 0.192299 1.099358
v -0.044602 0.876339 -0.736872
v -0.155056 0.807935 -0.567046
v -0.243375 0.739531 -0.390565
v -0.311815 0.671127 -0.209449
v -0.362782 0.602723 -0.025269
v -0.398781 0.534319 0.160805
v -0.422380 0.465915 0.347946
v -0.436182 0.397511 0.535612
v -0.442807 0.329107 0.723488
v -0.444882 0.260703 0.911420
v -0.545038 0.192299 1.099358
v -0.144602 0.876339 -0.736872
v -0.255056 0.807935 -0.567046
v -0.343375 0.739531 -0.390565
v -0.411815 0.671127 -0.209449
v -0.462782 0.602723 -0.025269
v -0.498781 0.534319 0.160805
v -0.522380 0.465915 0.347946
v -0.536182 0.397511 0.535612
v -0.542807 0.329107 0.723488
v -0.544882 0.260703 0.911420
v -0.621702 0.000000 1.098988
v -0.661080 0.000000 -0.210651
v -0.553609 0.000000 -0.568486
v -0.467352 0.000000 -0.738428
v -0.670647 0.000000 0.722871
v -0.699448 0.000000 0.159837
v -0.687311 0.000000 0.534883
v -0.617662 0.000000 -0.391888
v -0.697917 0.000000 0.347099
v -0.648441 0.000000 0.910920
v -0.688275 0.000000 -0.026357
v 0.248600 0.484635 -0.921071
v 0.090025 0.944743 -0.897523
v -0.009975 0.944743 -0.897523
v -0.296980 0.000000 -0.827528
v 0.035063 0.000000 -0.896881
v 0.648130 0.000000 -0.866656
v 0.451419 0.000000 -0.905264
v 0.248600 0.000000 -0.921071
v -0.500000 -0.100714 1.100000
v -0.300000 -0.100714 1.100000
v -0.100000 -0.100714 1.100000
v 0.100000 -0.100714 1.100000
v 0.300000 -0.100714 1.100000
v 0.842097 -0.100714 -0.817810
v 0.300165 -0.100714 0.900677
v 0.302360 -0.100714 0.704787
v 0.309325 -0.100714 0.512688
v 0.323746 -0.100714 0.324540
v 0.348251 -0.100714 0.140673
v 0.385396 -0.100714 -0.038350
v 0.437648 -0.100714 -0.211678
v 0.507359 -0.100714 -0.378112
v 0.596723 -0.100714 -0.536055
v 0.707730 -0.100714 -0.683464
v -0.621702 -0.100714 1.098988
v -0.661080 -0.100714 -0.210651
v -0.553609 -0.100714 -0.568486
v -0.467352 -0.100714 -0.738428
v -0.670647 -0.100714 0.722871
v -0.699448 -0.100714 0.159837
v -0.687311 -0.100714 0.534883
v -0.617662 -0.100714 -0.391888
v -0.697917 -0.100714 0.347099
v -0.648441 -0.100714 0.910920
v -0.688275 -0.100714 -0.026357
v -0.296980 -0.100714 -0.827528
v 0.035063 -0.100714 -0.896881
v 0.648130 -0.100714 -0.866656
v 0.451419 -0.100714 -0.905264
v 0.248600 -0.100714 -0.921071
vt 0.000000 0.818182
vt 0.200000 0.818182
vt 0.200000 0.909091
vt 0.000000 0.909091
vt 0.400000 0.818182
vt 0.400000 0.909091
vt 0.600000 0.818182
vt 0.600000 0.909091
vt 0.800000 0.818182
vt 0.800000 0.909091
vt 0.000000 0.727273
vt 0.200000 0.727273
vt 0.400000 0.727273
vt 0.600000 0.727273
vt 0.800000 0.727273
vt 0.000000 0.636364
vt 0.200000 0.636364
vt 0.400000 0.636364
vt 0.600000 0.636364
vt 0.800000 0.636364
vt 0.000000 0.545455
vt 0.200000 0.545455
vt 0.400000 0.545455
vt 0.600000 0.545455
vt 0.800000 0.545455
vt 0.000000 0.454545
vt 0.200000 0.454545
vt 0.400000 0.454546
vt 0.600000 0.454546
vt 0.800000 0.454546
vt 0.000000 0.363636
vt 0.200000 0.363636
vt 0.400000 0.363636
vt 0.600000 0.363636
vt 0.800000 0.363636
vt 0.000000 0.272727
vt 0.200000 0.272727
vt 0.400000 0.272727
vt 0.600000 0.272727
vt 0.800000 0.272727
vt 0.000000 0.181818
vt 0.200000 0.181818
vt 0.400000 0.181818
vt 0.600000 0.181818
vt 0.800000 0.181818
vt 0.000000 0.090909
vt 0.200000 0.090909
vt 0.400000 0.090909
vt 0.600000 0.090909
vt 0.800000 0.090909
vt 0.000000 0.000000
vt 0.200000 0.000000
vt 0.400000 0.000000
vt 0.600000 0.000000
vt 0.800000 0.000000
vt 0.200000 1.000000
vt 0.000000 1.000000
vt 0.400000 1.000000
vt 0.600000 1.000000
vt 0.800000 1.000000
vt 0.000000 0.454545
vt 0.000000 0.363636
vt 0.000000 0.727273
vt 0.000000 0.636364
vt 0.000000 1.000000
vt 0.000000 0.909091
vt 0.000000 0.272727
vt 0.000000 0.545455
vt 0.000000 0.818182
vt 0.000000 0.181818
vt 0.000000 0.090909
vt 0.000000 0.000000
vt 0.000000 0.090909
vt 0.000000 0.000000
vt 0.000000 0.454545
vt 0.000000 0.363636
vt 0.000000 0.727273
vt 0.000000 0.636364
vt 0.000000 1.000000
vt 0.000000 0.909091
vt 0.000000 0.272727
vt 0.000000 0.545455
vt 0.000000 0.818182
vt 0.000000 0.181818
vt 0.000000 1.000000
vt 0.000000 0.909091
vt 0.000000 0.363636
vt 0.000000 0.272727
vt 0.000000 0.636364
vt 0.000000 0.545455
vt 0.000000 0.818182
vt 0.000000 0.181818
vt 0.000000 0.454545
vt 0.000000 0.727273
vt 0.000000 0.090909
vt 0.000000 0.000000
vt 0.000000 1.000000
vt 0.600000 1.000000
vt 0.400000 1.000000
vt 0.200000 1.000000
vt 0.000000 0.363636
vt 0.000000 0.272727
vt 0.400000 0.000000
vt 0.600000 0.000000
vt 0.800000 0.727273
vt 0.800000 0.818182
vt 0.000000 0.090909
vt 0.000000 0.000000
vt 0.800000 0.000000
vt 0.000000 0.545455
vt 0.000000 0.454545
vt 0.800000 0.090909
vt 0.800000 0.181818
vt 0.000000 0.636364
vt 0.800000 0.363636
vt 0.800000 0.454546
vt 0.800000 0.636364
vt 0.000000 0.818182
vt 0.000000 0.727273
vt 0.000000 0.000000
vt 0.000000 1.000000
vt 0.000000 0.909091
vt 0.800000 0.272727
vt 0.800000 1.000000
vt 0.600000 1.000000
vt 0.800000 0.545455
vt 0.200000 1.000000
vt 0.000000 1.000000
vt 0.800000 0.909091
vt 0.400000 1.000000
vt 0.200000 0.000000
vt 0.000000 0.181818
vt 0.000000 0.000000
vt 0.000000 0.000000
vt 0.000000 0.000000
vt 0.000000 0.000000
vt 0.000000 0.000000
vt 0.000000 0.000000
vt 0.000000 0.000000
vt 0.000000 0.000000
vt 0.000000 0.000000
vt 0.000000 0.000000
vt 0.000000 0.000000
vt 0.000000 0.000000
vt 0.000000 0.000000
vt 0.000000 0.000000
vt 0.000000 0.000000
vt 0.000000 0.000000
vt 0.000000 0.000000
vt 0.000000 0.000000
vt 0.000000 0.000000
vt 0.000000 0.000000
vt 0.000000 0.000000
vt 0.000000 0.000000
vt 0.000000 0.000000
vt 0.000000 0.000000
vt 0.000000 0.000000
vt 0.000000 0.000000
vt 0.000000 0.000000
vt 0.000000 0.000000
vt 0.000000 0.000000
vt 0.000000 0.000000
vn 0.6344 0.5028 0.5871
vn 0.5648 0.6408 0.5200
vn 0.4638 0.7820 0.4164
vn 0.3911 0.8632 0.3193
vn 0.6437 0.5712 0.5092
vn 0.5662 0.7003 0.4347
vn 0.4560 0.8255 0.3326
vn 0.3792 0.8935 0.2408
vn 0.6321 0.6380 0.4397
vn 0.5476 0.7557 0.3592
vn 0.4321 0.8633 0.2610
vn 0.3545 0.9184 0.1756
vn 0.6008 0.7024 0.3817
vn 0.5115 0.8065 0.2964
vn 0.3954 0.8958 0.2030
vn 0.3203 0.9391 0.1242
vn 0.5510 0.7635 0.3368
vn 0.4603 0.8526 0.2475
vn 0.3488 0.9237 0.1588
vn 0.2793 0.9563 0.0859
vn 0.4835 0.8202 0.3057
vn 0.3962 0.8932 0.2124
vn 0.2947 0.9471 0.1274
vn 0.2336 0.9705 0.0591
vn 0.3992 0.8706 0.2875
vn 0.3211 0.9278 0.1899
vn 0.2349 0.9661 0.1071
vn 0.1845 0.9819 0.0420
vn 0.2993 0.9122 0.2799
vn 0.2368 0.9551 0.1778
vn 0.1708 0.9806 0.0957
vn 0.1332 0.9906 0.0325
vn 0.1860 0.9420 0.2794
vn 0.1453 0.9741 0.1731
vn 0.1038 0.9905 0.0905
vn 0.0805 0.9964 0.0283
vn 0.0632 0.9575 0.2813
vn 0.0490 0.9839 0.1721
vn 0.0348 0.9954 0.0889
vn 0.0269 0.9993 0.0271
vn 0.6035 0.4334 0.6692
vn 0.5415 0.5776 0.6109
vn 0.4524 0.7322 0.5091
vn 0.3866 0.8265 0.4092
vn 0.9613 -0.2747 0.0208
vn 0.9308 -0.2652 0.2516
vn 0.7918 -0.2244 0.5680
vn 0.9611 -0.2748 -0.0295
vn 0.9489 -0.2707 0.1621
vn 0.8550 -0.2428 0.4583
vn 0.9593 -0.2744 -0.0661
vn 0.9567 -0.2738 -0.0989
vn 0.9581 -0.2736 0.0848
vn 0.9005 -0.2562 0.3513
vn 0.9576 -0.2740 -0.0892
vn 0.0000 0.9397 0.3420
vn 0.0000 0.9392 0.3433
vn 0.0000 0.9355 0.3533
vn 0.0000 0.9201 0.3918
vn 0.0000 0.9395 0.3425
vn 0.0000 0.9374 0.3482
vn 0.0000 0.9276 0.3736
vn 0.0000 0.9397 0.3421
vn 0.0000 0.9386 0.3450
vn 0.0000 0.9324 0.3614
vn -0.6472 0.1889 -0.7386
vn -0.9338 0.3532 0.0564
vn -0.9287 0.3464 -0.1327
vn -0.8478 0.3135 -0.4277
vn -0.9298 0.3568 0.0898
vn -0.9350 0.3505 -0.0541
vn -0.8884 0.3295 -0.3196
vn -0.9248 0.3626 0.1155
vn -0.9212 0.3662 0.1318
vn -0.9360 0.3520 0.0091
vn -0.9148 0.3399 -0.2182
vn -0.0046 0.0023 1.0000
vn -0.1746 -0.0091 -0.9846
vn 0.1926 0.0000 -0.9813
vn -0.1126 0.0000 -0.9936
vn 0.0777 0.0000 -0.9970
vn 0.2442 0.0000 -0.9697
vn -0.9984 0.0000 0.0564
vn 0.0000 0.0000 1.0000
vn 0.8703 0.0000 0.4924
vn -0.9900 0.0000 0.1408
vn -0.9982 0.0000 -0.0599
vn 0.9999 0.0000 0.0112
vn -0.9893 0.0000 -0.1460
vn 0.9912 0.0000 0.1321
vn -1.0000 0.0000 0.0082
vn 0.9224 0.0000 0.3863
vn -0.9401 0.0000 -0.3410
vn -0.0083 0.0000 1.0000
vn 1.0000 0.0000 0.0008
vn -0.4634 0.0000 -0.8861
vn 0.9971 0.0000 0.0764
vn 0.9574 0.0000 0.2886
vn 0.7071 0.0000 0.7072
vn -0.8917 0.0000 -0.4526
vn 0.7988 0.0000 0.6016
vn -0.9725 0.0000 -0.2330
vn 0.9993 0.0000 0.0362
vn -0.9931 0.0000 0.1173
vn -0.9961 0.0000 0.0883
vn 0.9791 0.0000 0.2032
vn -0.2045 0.0000 -0.9789
vn -0.0000 -1.0000 -0.0000
usemtl None
s off
f 4/1/1 55/2/1 59/3/1 3/4/1
f 55/2/2 54/5/2 58/6/2 59/3/2
f 54/5/3 53/7/3 57/8/3 58/6/3
f 53/7/4 52/9/4 56/10/4 57/8/4
f 5/11/5 51/12/5 55/2/5 4/1/5
f 51/12/6 50/13/6 54/5/6 55/2/6
f 50/13/7 49/14/7 53/7/7 54/5/7
f 49/14/8 48/15/8 52/9/8 53/7/8
f 6/16/9 47/17/9 51/12/9 5/11/9
f 47/17/10 46/18/10 50/13/10 51/12/10
f 46/18/11 45/19/11 49/14/11 50/13/11
f 45/19/12 44/20/12 48/15/12 49/14/12
f 7/21/13 43/22/13 47/17/13 6/16/13
f 43/22/14 42/23/14 46/18/14 47/17/14
f 42/23/15 41/24/15 45/19/15 46/18/15
f 41/24/16 40/25/16 44/20/16 45/19/16
f 8/26/17 39/27/17 43/22/17 7/21/17
f 39/27/18 38/28/18 42/23/18 43/22/18
f 38/28/19 37/29/19 41/24/19 42/23/19
f 37/29/20 36/30/20 40/25/20 41/24/20
f 9/31/21 35/32/21 39/27/21 8/26/21
f 35/32/22 34/33/22 38/28/22 39/27/22
f 34/33/23 33/34/23 37/29/23 38/28/23
f 33/34/24 32/35/24 36/30/24 37/29/24
f 10/36/25 31/37/25 35/32/25 9/31/25
f 31/37/26 30/38/26 34/33/26 35/32/26
f 30/38/27 29/39/27 33/34/27 34/33/27
f 29/39/28 28/40/28 32/35/28 33/34/28
f 11/41/29 27/42/29 31/37/29 10/36/29
f 27/42/30 26/43/30 30/38/30 31/37/30
f 26/43/31 25/44/31 29/39/31 30/38/31
f 25/44/32 24/45/32 28/40/32 29/39/32
f 12/46/33 23/47/33 27/42/33 11/41/33
f 23/47/34 22/48/34 26/43/34 27/42/34
f 22/48/35 21/49/35 25/44/35 26/43/35
f 21/49/36 20/50/36 24/45/36 25/44/36
f 1/51/37 13/52/37 23/47/37 12/46/37
f 13/52/38 14/53/38 22/48/38 23/47/38
f 14/53/39 15/54/39 21/49/39 22/48/39
f 15/54/40 16/55/40 20/50/40 21/49/40
f 3/4/41 59/3/41 93/56/41 2/57/41
f 59/3/42 58/6/42 19/58/42 93/56/42
f 58/6/43 57/8/43 18/59/43 19/58/43
f 57/8/44 56/10/44 17/60/44 18/59/44
f 9/31/45 8/26/45 66/61/45 67/62/45
f 6/16/46 5/11/46 63/63/46 64/64/46
f 3/4/47 2/57/47 94/65/47 61/66/47
f 10/36/48 9/31/48 67/62/48 68/67/48
f 7/21/49 6/16/49 64/64/49 65/68/49
f 4/1/50 3/4/50 61/66/50 62/69/50
f 11/41/51 10/36/51 68/67/51 69/70/51
f 1/51/52 12/46/52 70/71/52 60/72/52
f 8/26/53 7/21/53 65/68/53 66/61/53
f 5/11/54 4/1/54 62/69/54 63/63/54
f 12/46/55 11/41/55 69/70/55 70/71/55
f 60/72/56 70/71/56 81/73/56 71/74/56
f 67/62/57 66/61/57 77/75/57 78/76/57
f 64/64/58 63/63/58 74/77/58 75/78/58
f 61/66/59 94/65/59 95/79/59 72/80/59
f 68/67/60 67/62/60 78/76/60 79/81/60
f 65/68/61 64/64/61 75/78/61 76/82/61
f 62/69/62 61/66/62 72/80/62 73/83/62
f 69/70/63 68/67/63 79/81/63 80/84/63
f 66/61/64 65/68/64 76/82/64 77/75/64
f 63/63/65 62/69/65 73/83/65 74/77/65
f 70/71/56 69/70/56 80/84/56 81/73/56
f 72/80/66 95/79/66 96/85/66 85/86/66
f 79/81/67 78/76/67 90/87/67 88/88/67
f 76/82/68 75/78/68 83/89/68 92/90/68
f 73/83/69 72/80/69 85/86/69 84/91/69
f 80/84/70 79/81/70 88/88/70 86/92/70
f 77/75/71 76/82/71 92/90/71 87/93/71
f 74/77/72 73/83/72 84/91/72 89/94/72
f 81/73/73 80/84/73 86/92/73 91/95/73
f 71/74/74 81/73/74 91/95/74 82/96/74
f 78/76/75 77/75/75 87/93/75 90/87/75
f 75/78/76 74/77/76 89/94/76 83/89/76
f 60/72/77 71/74/77 82/96/77 1/51/77
f 94/65/78 2/57/78 97/97/78 96/85/78 95/79/78
f 19/58/79 18/59/79 98/98/79 99/99/79
f 2/57/80 93/56/80 100/100/80 97/97/80
f 93/56/81 19/58/81 99/99/81 100/100/81
f 18/59/82 17/60/82 98/98/82
f 88/88/83 90/87/83 125/101/83 123/102/83
f 15/54/84 14/53/84 103/103/84 104/104/84
f 52/9/85 48/15/85 114/105/85 115/106/85
f 82/96/86 91/95/86 126/107/86 117/108/86
f 16/55/84 15/54/84 104/104/84 105/109/84
f 87/93/87 92/90/87 127/110/87 122/111/87
f 24/45/88 20/50/88 107/112/88 108/113/88
f 92/90/89 83/89/89 118/114/89 127/110/89
f 36/30/90 32/35/90 110/115/90 111/116/90
f 90/87/91 87/93/91 122/111/91 125/101/91
f 48/15/92 44/20/92 113/117/92 114/105/92
f 89/94/93 84/91/93 119/118/93 124/119/93
f 1/51/94 82/96/94 117/108/94 101/120/94
f 20/50/95 16/55/95 105/109/95 107/112/95
f 85/86/96 96/85/96 128/121/96 120/122/96
f 32/35/97 28/40/97 109/123/97 110/115/97
f 98/98/82 17/60/82 106/124/82 130/125/82
f 44/20/98 40/25/98 112/126/98 113/117/98
f 97/97/80 100/100/80 132/127/80 129/128/80
f 17/60/99 56/10/99 116/129/99 106/124/99
f 84/91/100 85/86/100 120/122/100 119/118/100
f 99/99/79 98/98/79 130/125/79 131/130/79
f 56/10/101 52/9/101 115/106/101 116/129/101
f 83/89/102 89/94/102 124/119/102 118/114/102
f 100/100/81 99/99/81 131/130/81 132/127/81
f 28/40/103 24/45/103 108/113/103 109/123/103
f 13/52/84 1/51/84 101/120/84 102/131/84
f 91/95/104 86/92/104 121/132/104 126/107/104
f 86/92/105 88/88/105 123/102/105 121/132/105
f 14/53/84 13/52/84 102/131/84 103/103/84
f 40/25/106 36/30/106 111/116/106 112/126/106
f 96/85/107 97/97/107 129/128/107 128/121/107
f 115/133/108 114/134/108 131/135/108
f 130/136/108 115/133/108 131/135/108
f 123/137/108 125/138/108 102/139/108
f 106/140/108 116/141/108 130/136/108
f 121/142/108 102/139/108 101/120/108
f 116/141/108 115/133/108 130/136/108
f 120/143/108 128/144/108 119/145/108
f 114/134/108 113/146/108 132/147/108
f 119/145/108 128/144/108 124/148/108
f 103/149/108 102/139/108 128/144/108
f 124/148/108 128/144/108 118/150/108
f 112/151/108 111/152/108 129/153/108
f 109/154/108 108/155/108 104/156/108
f 111/152/108 128/144/108 129/153/108
f 111/152/108 110/157/108 128/144/108
f 110/157/108 103/149/108 128/144/108
f 102/139/108 127/158/108 118/150/108
f 109/154/108 103/149/108 110/157/108
f 129/153/108 132/147/108 112/151/108
f 102/139/108 125/138/108 122/159/108
f 114/134/108 132/147/108 131/135/108
f 121/142/108 123/137/108 102/139/108
f 108/155/108 107/160/108 104/156/108
f 105/161/108 104/156/108 107/160/108
f 102/139/108 118/150/108 128/144/108
f 103/149/108 109/154/108 104/156/108
f 126/162/108 121/142/108 101/120/108
f 122/159/108 127/158/108 102/139/108
f 117/108/108 126/162/108 101/120/108
f 132/147/108 113/146/108 112/151/108
