# Blender v2.81 (sub 16) OBJ File: 'curved_slope2.blend'
# www.blender.org
mtllib curved_ramp.mtl
o CurvedSlopeMainMesh_Cube.001
v 0.577575 -0.000000 1.109023
v -0.624443 -0.000000 1.126741
v -0.613521 -0.000000 1.671651
v 0.654380 0.000193 1.681748
v 1.005676 0.000000 -1.599393
v 1.003442 0.586199 -1.598269
v -0.010820 1.285176 -1.598269
v -0.253352 0.000000 -1.598543
v 0.784967 0.427767 -1.055731
v 0.622545 0.284350 -0.511891
v -0.360753 0.996227 -0.504473
v -0.198767 1.160602 -1.050744
v 0.579612 0.053555 1.109057
v -0.603977 0.216292 1.116163
v 0.569260 0.187055 0.034137
v -0.488576 0.741950 0.038964
v 0.564556 0.141205 0.516890
v -0.544121 0.480462 0.582175
v -0.455222 0.000000 -1.061912
v 0.763771 0.000000 -1.054198
v -0.546874 0.000000 -0.508281
v 0.617215 0.000000 -0.509067
v -0.584039 -0.000000 0.036776
v 0.568118 -0.000000 0.035998
v -0.597645 -0.000000 0.581784
v 0.562510 -0.000000 0.516769
vt 0.125000 0.708333
vt 0.125000 0.750000
vt 0.375000 0.750000
vt 0.375000 0.708333
vt 0.375000 0.250000
vt 0.375000 0.500000
vt 0.625000 0.500000
vt 0.625000 0.250000
vt 0.000000 0.000000
vt 0.000000 0.000000
vt 0.000000 0.000000
vt 0.000000 0.000000
vt 0.000000 0.000000
vt 0.000000 0.000000
vt 0.000000 0.000000
vt 0.000000 0.000000
vt 0.000000 0.000000
vt 0.000000 0.000000
vt 0.000000 0.000000
vt 0.000000 0.000000
vt 0.000000 0.000000
vt 0.000000 0.000000
vt 0.125000 0.500000
vt 0.125000 0.541667
vt 0.375000 0.541667
vt 0.125000 0.583333
vt 0.375000 0.583333
vt 0.125000 0.625000
vt 0.375000 0.625000
vt 0.125000 0.666667
vt 0.375000 0.666667
vt 0.000000 0.000000
vt 0.000000 0.000000
vt 0.000000 0.000000
vt 0.000000 0.000000
vt 0.000000 0.000000
vt 0.000000 0.000000
vt 0.000000 0.000000
vt 0.000000 0.000000
vt 0.000000 0.000000
vt 0.000000 0.000000
vt 0.000000 0.000000
vt 0.000000 0.000000
vn 0.0000 -1.0000 0.0001
vn 0.0001 -1.0000 0.0002
vn -0.0001 0.0008 -1.0000
vn 0.5504 0.7462 0.3745
vn 0.5361 0.7467 0.3937
vn 0.0641 0.9714 0.2285
vn 0.4973 0.7981 0.3402
vn 0.3734 0.8824 0.2863
vn 0.2131 0.9301 0.2991
vn -0.0000 -1.0000 -0.0000
vn 0.9132 -0.0438 0.4052
vn 0.9656 -0.0155 0.2596
vn 0.9990 -0.0380 -0.0254
vn 0.9604 -0.0466 0.2746
vn 0.9948 -0.0175 0.1003
vn 0.9964 -0.0054 0.0847
vn 0.9960 -0.0052 0.0897
vn 0.9998 -0.0145 0.0117
vn 1.0000 -0.0061 0.0046
vn 0.9998 -0.0144 0.0158
vn 0.9999 -0.0060 0.0092
vn -0.9425 0.1779 -0.2830
vn 0.9273 0.0028 0.3742
vn 0.9995 -0.0145 -0.0276
vn 0.9904 -0.0376 -0.1328
vn 0.9954 -0.0177 0.0940
vn -0.9910 0.1276 -0.0399
vn -0.9727 0.1823 -0.1435
vn -0.9524 0.2126 -0.2185
vn -0.9895 0.1275 -0.0675
vn -0.9701 0.1819 -0.1606
vn -0.9935 0.1107 -0.0248
vn -0.9923 0.1106 -0.0565
vn -0.9946 0.0917 -0.0489
vn -0.9953 0.0951 0.0199
vn -0.9159 0.2057 -0.3446
usemtl Material.001
s 1
f 1/1/1 4/2/2 3/3/2 2/4/1
f 5/5/3 8/6/3 7/7/3 6/8/3
f 9/9/4 12/10/4 11/11/4 10/12/4
f 6/13/5 7/14/5 12/10/5 9/9/5
f 13/15/6 14/16/6 3/17/6 4/18/6
f 10/12/7 11/11/7 16/19/7 15/20/7
f 15/20/8 16/19/8 18/21/8 17/22/8
f 17/22/9 18/21/9 14/16/9 13/15/9
f 5/23/10 20/24/10 19/25/10 8/6/10
f 20/24/10 22/26/10 21/27/10 19/25/10
f 22/26/10 24/28/10 23/29/10 21/27/10
f 24/28/10 26/30/10 25/31/10 23/29/10
f 26/30/10 1/1/1 2/4/1 25/31/10
f 20/32/11 5/33/11 9/9/11
f 22/34/12 20/32/12 10/12/12
f 26/35/13 13/15/13 1/36/13
f 10/12/14 20/32/14 9/9/14
f 22/34/15 15/20/16 24/37/17
f 26/35/18 24/37/19 17/22/20
f 17/22/20 24/37/19 15/20/21
f 7/14/22 8/38/22 12/10/22
f 9/9/23 5/33/23 6/13/23
f 17/22/24 13/15/24 26/35/24
f 13/15/25 4/18/25 1/36/25
f 10/12/26 15/20/16 22/34/15
f 23/39/27 18/21/27 16/19/27
f 11/11/28 21/40/28 16/19/28
f 12/10/29 19/41/29 11/11/29
f 16/19/30 21/40/30 23/39/30
f 11/11/31 19/41/31 21/40/31
f 25/42/32 18/21/32 23/39/32
f 25/42/33 14/16/33 18/21/33
f 2/43/34 14/16/34 25/42/34
f 14/16/35 2/43/35 3/17/35
f 12/10/36 8/38/36 19/41/36
