# Blender v2.81 (sub 16) OBJ File: 'curved_ramp_V3.blend'
# www.blender.org
mtllib curved_ramp_V5_L.mtl
o Cube.001
v -0.400000 0.000000 1.000000
v -0.221462 -0.000000 0.600000
v 0.043727 0.753458 -1.000000
v 0.400000 0.000000 1.000000
v 0.183767 -0.000000 0.400000
v 0.756273 0.200105 -1.000000
v -0.011229 -0.000000 0.400000
v -0.206142 -0.000000 0.400000
v 0.207401 -0.000000 0.200000
v 0.014898 -0.000000 0.200000
v -0.177513 -0.000000 0.200000
v 0.242752 -0.000000 0.000000
v 0.052840 -0.000000 0.000000
v -0.136978 -0.000000 0.000000
v 0.289229 -0.000000 -0.200000
v -0.417938 0.094347 0.800000
v -0.418647 0.173273 0.600000
v -0.400985 0.243203 0.400000
v -0.369856 0.311902 0.200000
v -0.326743 0.381397 0.000000
v -0.272461 0.452735 -0.200000
v -0.207561 0.526613 -0.400000
v -0.132485 0.603589 -0.600000
v -0.047660 0.684063 -0.800000
v 0.101939 -0.000000 -0.200000
v -0.085269 -0.000000 -0.200000
v 0.346458 -0.000000 -0.400000
v 0.161754 -0.000000 -0.400000
v -0.022907 -0.000000 -0.400000
v 0.414145 -0.000000 -0.600000
v 0.231912 -0.000000 -0.600000
v 0.049700 -0.000000 -0.600000
v 0.492017 -0.000000 -0.800000
v 0.672007 0.167672 -0.800000
v 0.596487 0.132611 -0.600000
v 0.531303 0.102099 -0.400000
v 0.476661 0.075867 -0.200000
v 0.432796 0.053749 0.000000
v 0.400020 0.035683 0.200000
v 0.378858 0.021708 0.400000
v 0.370484 0.011972 0.600000
v 0.379562 0.006768 0.800000
v 0.312073 -0.000000 -0.800000
v 0.132181 -0.000000 -0.800000
v 0.000000 -0.000000 1.000000
v 0.221864 0.615120 -1.000000
v 0.400000 0.476782 -1.000000
v 0.578136 0.338443 -1.000000
v -0.200000 0.000000 1.000000
v 0.200000 0.000000 1.000000
v 0.000000 0.000000 1.000000
v 0.132181 0.554564 -0.800000
v 0.312073 0.425332 -0.800000
v 0.492017 0.296369 -0.800000
v 0.049700 0.485597 -0.600000
v 0.231912 0.367782 -0.600000
v 0.414145 0.250101 -0.600000
v -0.022907 0.420394 -0.400000
v 0.161754 0.314211 -0.400000
v 0.346458 0.208083 -0.400000
v -0.085269 0.358486 -0.200000
v 0.101939 0.264222 -0.200000
v 0.289229 0.169975 -0.200000
v -0.136978 0.299438 0.000000
v 0.052840 0.217449 0.000000
v 0.242752 0.135522 0.000000
v -0.177513 0.242693 0.200000
v 0.014898 0.173543 0.200000
v 0.207401 0.104518 0.200000
v -0.206142 0.187544 0.400000
v -0.011229 0.132045 0.400000
v 0.183767 0.076752 0.400000
v -0.221462 0.132501 0.600000
v -0.024215 0.092009 0.600000
v 0.173099 0.051824 0.600000
v -0.218627 0.071770 0.800000
v -0.019274 0.049640 0.800000
v 0.180123 0.027969 0.800000
v 0.200000 -0.000000 1.000000
v -0.200000 -0.000000 1.000000
v 0.578136 -0.000000 -1.000000
v 0.400000 -0.000000 -1.000000
v 0.221864 -0.000000 -1.000000
v 0.379562 -0.000000 0.800000
v 0.370484 -0.000000 0.600000
v 0.378858 -0.000000 0.400000
v 0.400020 -0.000000 0.200000
v 0.432796 -0.000000 0.000000
v 0.476661 -0.000000 -0.200000
v 0.531303 -0.000000 -0.400000
v 0.596487 -0.000000 -0.600000
v 0.672007 -0.000000 -0.800000
v -0.047660 -0.000000 -0.800000
v -0.132485 -0.000000 -0.600000
v -0.207561 -0.000000 -0.400000
v -0.272461 -0.000000 -0.200000
v -0.326743 -0.000000 0.000000
v -0.369856 -0.000000 0.200000
v -0.400985 -0.000000 0.400000
v -0.418647 -0.000000 0.600000
v -0.417938 -0.000000 0.800000
v 0.756273 -0.000000 -1.000000
v 0.400000 -0.000000 1.000000
v 0.043727 -0.000000 -1.000000
v -0.400000 -0.000000 1.000000
v -0.024215 -0.000000 0.600000
v 0.173099 -0.000000 0.600000
v -0.218627 -0.000000 0.800000
v -0.019274 -0.000000 0.800000
v 0.180123 -0.000000 0.800000
vt 0.750000 0.500000
vt 0.812500 0.500000
vt 0.812500 0.500000
vt 0.750000 0.500000
vt 0.875000 0.500000
vt 0.875000 0.500000
vt 0.687500 0.725000
vt 0.750000 0.725000
vt 0.750000 0.750000
vt 0.687500 0.750000
vt 0.812500 0.725000
vt 0.812500 0.750000
vt 0.812500 0.725000
vt 0.812500 0.750000
vt 0.875000 0.750000
vt 0.875000 0.725000
vt 0.812500 0.525000
vt 0.875000 0.525000
vt 0.812500 0.550000
vt 0.875000 0.550000
vt 0.812500 0.575000
vt 0.875000 0.575000
vt 0.812500 0.600000
vt 0.875000 0.600000
vt 0.812500 0.625000
vt 0.875000 0.625000
vt 0.812500 0.650000
vt 0.875000 0.650000
vt 0.812500 0.675000
vt 0.875000 0.675000
vt 0.812500 0.700000
vt 0.875000 0.700000
vt 0.875000 0.525000
vt 0.625000 0.600000
vt 0.687500 0.600000
vt 0.687500 0.625000
vt 0.625000 0.625000
vt 0.750000 0.600000
vt 0.812500 0.600000
vt 0.812500 0.625000
vt 0.750000 0.625000
vt 0.687500 0.575000
vt 0.750000 0.575000
vt 0.625000 0.550000
vt 0.687500 0.550000
vt 0.625000 0.575000
vt 0.750000 0.550000
vt 0.812500 0.550000
vt 0.812500 0.575000
vt 0.687500 0.525000
vt 0.750000 0.525000
vt 0.625000 0.500000
vt 0.687500 0.500000
vt 0.625000 0.525000
vt 0.812500 0.525000
vt 0.625000 0.725000
vt 0.625000 0.700000
vt 0.625000 0.700000
vt 0.625000 0.725000
vt 0.625000 0.750000
vt 0.875000 0.675000
vt 0.875000 0.650000
vt 0.687500 0.750000
vt 0.625000 0.750000
vt 0.875000 0.625000
vt 0.875000 0.600000
vt 0.875000 0.575000
vt 0.875000 0.550000
vt 0.625000 0.650000
vt 0.625000 0.625000
vt 0.625000 0.650000
vt 0.625000 0.675000
vt 0.625000 0.675000
vt 0.625000 0.525000
vt 0.625000 0.500000
vt 0.625000 0.550000
vt 0.625000 0.575000
vt 0.812500 0.650000
vt 0.812500 0.675000
vt 0.625000 0.600000
vt 0.875000 0.700000
vt 0.812500 0.700000
vt 0.875000 0.725000
vt 0.687500 0.700000
vt 0.750000 0.700000
vt 0.687500 0.675000
vt 0.875000 0.750000
vt 0.750000 0.675000
vt 0.750000 0.750000
vt 0.687500 0.650000
vt 0.750000 0.650000
vt 0.687500 0.725000
vt 0.687500 0.700000
vt 0.750000 0.725000
vt 0.750000 0.700000
vt 0.687500 0.675000
vt 0.750000 0.675000
vt 0.687500 0.650000
vt 0.750000 0.650000
vt 0.687500 0.625000
vt 0.750000 0.625000
vt 0.687500 0.600000
vt 0.750000 0.600000
vt 0.687500 0.575000
vt 0.750000 0.575000
vt 0.687500 0.550000
vt 0.750000 0.550000
vt 0.687500 0.525000
vt 0.750000 0.525000
vt 0.687500 0.500000
vn 0.0000 0.0000 1.0000
vn 0.0000 1.0000 0.0000
vn -0.0522 -0.9239 -0.3789
vn -0.5290 -0.7071 -0.4692
vn -0.4956 -0.7250 -0.4782
vn -0.4672 -0.7644 -0.4442
vn -0.4328 -0.8028 -0.4102
vn -0.3922 -0.8389 -0.3774
vn -0.3450 -0.8720 -0.3473
vn -0.2905 -0.9009 -0.3224
vn -0.2273 -0.9240 -0.3074
vn -0.1492 -0.9340 -0.3248
vn 0.9095 0.0000 0.4156
vn -0.9990 0.0000 0.0453
vn 0.9881 0.0000 0.1538
vn 0.0000 0.0000 -1.0000
vn 0.9651 0.0000 0.2619
vn 0.9512 0.0000 0.3087
vn 0.9362 0.0000 0.3514
vn 0.9206 0.0000 0.3905
vn -0.9868 0.0000 -0.1617
vn -0.9944 0.0000 -0.1052
vn -0.9991 0.0000 -0.0418
vn -0.9215 0.0000 -0.3883
vn -0.9355 0.0000 -0.3533
vn -0.9508 0.0000 -0.3099
vn -0.9646 0.0000 -0.2635
vn -0.9768 0.0000 -0.2142
vn -0.9948 0.0000 0.1017
vn 0.9960 0.0000 -0.0893
vn -0.1517 -0.9862 -0.0655
vn -0.1521 -0.9758 -0.1570
vn -0.1513 -0.9579 -0.2440
vn -0.2340 -0.9676 -0.0950
vn -0.2331 -0.9576 -0.1693
vn -0.2308 -0.9428 -0.2404
vn -0.3017 -0.9442 -0.1323
vn -0.2994 -0.9332 -0.1988
vn -0.2956 -0.9186 -0.2624
vn -0.3607 -0.9164 -0.1738
vn -0.3569 -0.9042 -0.2347
vn -0.3516 -0.8892 -0.2927
vn -0.4122 -0.8846 -0.2182
vn -0.4070 -0.8713 -0.2742
vn -0.4002 -0.8560 -0.3273
vn -0.4566 -0.8495 -0.2643
vn -0.4500 -0.8354 -0.3157
vn -0.4419 -0.8198 -0.3643
vn -0.4941 -0.8118 -0.3113
vn -0.4862 -0.7971 -0.3580
vn -0.4771 -0.7814 -0.4023
vn -0.5247 -0.7722 -0.3582
vn -0.5158 -0.7574 -0.4004
vn -0.5060 -0.7417 -0.4403
vn -0.5543 -0.7433 -0.3745
vn -0.5460 -0.7314 -0.4086
vn -0.5375 -0.7193 -0.4401
vn -0.0528 -0.9953 -0.0811
vn -0.0532 -0.9813 -0.1852
vn -0.0530 -0.9569 -0.2854
vn 0.9775 0.0000 0.2107
vn 1.0000 0.0000 -0.0035
vn 0.9961 0.0000 0.0880
usemtl None
s off
f 47/1/1 46/2/1 83/3/1 82/4/1
f 46/2/1 3/5/1 104/6/1 83/3/1
f 110/7/2 109/8/2 45/9/2 79/10/2
f 109/8/2 108/11/2 80/12/2 45/9/2
f 76/13/3 49/14/3 1/15/3 16/16/3
f 46/2/4 52/17/4 24/18/4 3/5/4
f 52/17/5 55/19/5 23/20/5 24/18/5
f 55/19/6 58/21/6 22/22/6 23/20/6
f 58/21/7 61/23/7 21/24/7 22/22/7
f 61/23/8 64/25/8 20/26/8 21/24/8
f 64/25/9 67/27/9 19/28/9 20/26/9
f 67/27/10 70/29/10 18/30/10 19/28/10
f 70/29/11 73/31/11 17/32/11 18/30/11
f 73/31/12 76/13/12 16/16/12 17/32/12
f 3/5/13 24/18/13 93/33/13 104/6/13
f 89/34/2 15/35/2 12/36/2 88/37/2
f 25/38/2 26/39/2 14/40/2 13/41/2
f 27/42/2 28/43/2 25/38/2 15/35/2
f 91/44/2 30/45/2 27/42/2 90/46/2
f 31/47/2 32/48/2 29/49/2 28/43/2
f 33/50/2 43/51/2 31/47/2 30/45/2
f 102/52/2 81/53/2 33/50/2 92/54/2
f 82/4/2 83/3/2 44/55/2 43/51/2
f 42/56/14 41/57/14 85/58/14 84/59/14
f 15/35/2 25/38/2 13/41/2 12/36/2
f 90/46/2 27/42/2 15/35/2 89/34/2
f 28/43/2 29/49/2 26/39/2 25/38/2
f 30/45/2 31/47/2 28/43/2 27/42/2
f 92/54/2 33/50/2 30/45/2 91/44/2
f 43/51/2 44/55/2 32/48/2 31/47/2
f 81/53/2 82/4/2 43/51/2 33/50/2
f 84/59/2 110/7/2 79/10/2 103/60/2
f 19/28/15 18/30/15 99/61/15 98/62/15
f 50/63/16 4/64/16 103/60/16 79/10/16
f 21/24/17 20/26/17 97/65/17 96/66/17
f 22/22/18 21/24/18 96/66/18 95/67/18
f 23/20/19 22/22/19 95/67/19 94/68/19
f 24/18/20 23/20/20 94/68/20 93/33/20
f 39/69/21 38/70/21 88/37/21 87/71/21
f 40/72/22 39/69/22 87/71/22 86/73/22
f 41/57/23 40/72/23 86/73/23 85/58/23
f 34/74/24 6/75/24 102/52/24 92/54/24
f 44/55/2 93/33/2 94/68/2 32/48/2
f 32/48/2 94/68/2 95/67/2 29/49/2
f 35/76/25 34/74/25 92/54/25 91/44/25
f 29/49/2 95/67/2 96/66/2 26/39/2
f 26/39/2 96/66/2 97/65/2 14/40/2
f 36/77/26 35/76/26 91/44/26 90/46/26
f 14/40/2 97/65/2 98/62/2 11/78/2
f 11/78/2 98/62/2 99/61/2 8/79/2
f 37/80/27 36/77/27 90/46/27 89/34/27
f 8/79/2 99/61/2 100/81/2 2/82/2
f 2/82/2 100/81/2 101/83/2 108/11/2
f 38/70/28 37/80/28 89/34/28 88/37/28
f 85/58/2 107/84/2 110/7/2 84/59/2
f 107/84/2 106/85/2 109/8/2 110/7/2
f 4/64/29 42/56/29 84/59/29 103/60/29
f 106/85/2 2/82/2 108/11/2 109/8/2
f 86/73/2 5/86/2 107/84/2 85/58/2
f 16/16/30 1/15/30 105/87/30 101/83/30
f 5/86/2 7/88/2 106/85/2 107/84/2
f 7/88/2 8/79/2 2/82/2 106/85/2
f 49/14/16 51/89/16 45/9/16 80/12/16
f 87/71/2 9/90/2 5/86/2 86/73/2
f 9/90/2 10/91/2 7/88/2 5/86/2
f 51/89/16 50/63/16 79/10/16 45/9/16
f 10/91/2 11/78/2 8/79/2 7/88/2
f 12/36/2 13/41/2 10/91/2 9/90/2
f 41/57/31 42/56/31 78/92/31 75/93/31
f 75/93/32 78/92/32 77/94/32 74/95/32
f 74/95/33 77/94/33 76/13/33 73/31/33
f 40/72/34 41/57/34 75/93/34 72/96/34
f 72/96/35 75/93/35 74/95/35 71/97/35
f 71/97/36 74/95/36 73/31/36 70/29/36
f 39/69/37 40/72/37 72/96/37 69/98/37
f 69/98/38 72/96/38 71/97/38 68/99/38
f 68/99/39 71/97/39 70/29/39 67/27/39
f 38/70/40 39/69/40 69/98/40 66/100/40
f 66/100/41 69/98/41 68/99/41 65/101/41
f 65/101/42 68/99/42 67/27/42 64/25/42
f 37/80/43 38/70/43 66/100/43 63/102/43
f 63/102/44 66/100/44 65/101/44 62/103/44
f 62/103/45 65/101/45 64/25/45 61/23/45
f 36/77/46 37/80/46 63/102/46 60/104/46
f 60/104/47 63/102/47 62/103/47 59/105/47
f 59/105/48 62/103/48 61/23/48 58/21/48
f 35/76/49 36/77/49 60/104/49 57/106/49
f 57/106/50 60/104/50 59/105/50 56/107/50
f 56/107/51 59/105/51 58/21/51 55/19/51
f 34/74/52 35/76/52 57/106/52 54/108/52
f 54/108/53 57/106/53 56/107/53 53/109/53
f 53/109/54 56/107/54 55/19/54 52/17/54
f 6/75/55 34/74/55 54/108/55 48/110/55
f 48/110/56 54/108/56 53/109/56 47/1/56
f 47/1/57 53/109/57 52/17/57 46/2/57
f 42/56/58 4/64/58 50/63/58 78/92/58
f 78/92/59 50/63/59 51/89/59 77/94/59
f 77/94/60 51/89/60 49/14/60 76/13/60
f 20/26/61 19/28/61 98/62/61 97/65/61
f 108/11/2 101/83/2 105/87/2 80/12/2
f 83/3/2 104/6/2 93/33/2 44/55/2
f 48/110/1 47/1/1 82/4/1 81/53/1
f 88/37/2 12/36/2 9/90/2 87/71/2
f 13/41/2 14/40/2 11/78/2 10/91/2
f 17/32/62 16/16/62 101/83/62 100/81/62
f 6/75/1 48/110/1 81/53/1 102/52/1
f 1/15/16 49/14/16 80/12/16 105/87/16
f 18/30/63 17/32/63 100/81/63 99/61/63
