# This file uses centimeters as units for non-parametric coordinates.

mtllib D20_08.mtl
g default
v 0.000000 -0.356822 -0.934172
v -0.356822 -0.934172 0.000000
v -0.934172 0.000000 -0.356822
v -0.577350 -0.577350 -0.577350
v -0.577350 -0.577350 0.577350
v 0.000000 -0.356822 0.934172
v -0.356822 0.934172 0.000000
v -0.934172 0.000000 0.356822
v -0.577350 0.577350 -0.577350
v -0.577350 0.577350 0.577350
v 0.000000 0.356822 -0.934172
v 0.356822 -0.934172 0.000000
v 0.934172 0.000000 -0.356822
v 0.577350 -0.577350 -0.577350
v 0.577350 -0.577350 0.577350
v 0.000000 0.356822 0.934172
v 0.356822 0.934172 0.000000
v 0.934172 0.000000 0.356822
v 0.577350 0.577350 -0.577350
v 0.577350 0.577350 0.577350
v -0.316646 0.905100 -0.047040
v 0.316646 0.905100 -0.047040
v 0.512343 0.588455 -0.559382
v -0.000000 0.392757 -0.876028
v -0.512343 0.588455 -0.559382
v 0.905100 0.047040 0.316646
v 0.905100 0.047040 -0.316646
v 0.588455 0.559382 -0.512343
v 0.392757 0.876028 0.000000
v 0.588455 0.559382 0.512343
v -0.000000 0.392757 0.876028
v 0.512343 0.588455 0.559382
v 0.316646 0.905100 0.047040
v -0.316646 0.905100 0.047040
v -0.512343 0.588455 0.559382
v -0.905100 0.047040 -0.316646
v -0.905100 0.047040 0.316646
v -0.588455 0.559382 0.512343
v -0.392757 0.876028 -0.000000
v -0.588455 0.559382 -0.512343
v 0.316646 -0.905100 -0.047040
v -0.316646 -0.905100 -0.047040
v -0.512343 -0.588455 -0.559382
v 0.000000 -0.392757 -0.876028
v 0.512343 -0.588455 -0.559382
v 0.316646 -0.905100 0.047040
v -0.316646 -0.905100 0.047040
v 0.512343 -0.588455 0.559382
v -0.000000 -0.392757 0.876028
v -0.512343 -0.588455 0.559382
v 0.047040 -0.316646 -0.905100
v 0.559382 -0.512343 -0.588455
v 0.047040 0.316646 -0.905100
v 0.559382 0.512343 -0.588455
v 0.876028 -0.000000 -0.392757
v -0.559382 -0.512343 -0.588455
v -0.047040 -0.316646 -0.905100
v -0.876028 0.000000 -0.392757
v -0.559382 0.512343 -0.588455
v -0.047040 0.316646 -0.905100
v -0.588455 -0.559382 0.512343
v -0.392757 -0.876028 -0.000000
v -0.905100 -0.047040 0.316646
v -0.905100 -0.047040 -0.316646
v -0.588455 -0.559382 -0.512343
v -0.047040 -0.316646 0.905100
v -0.559382 -0.512343 0.588455
v -0.047040 0.316646 0.905100
v -0.559382 0.512343 0.588455
v -0.876028 -0.000000 0.392757
v 0.588455 -0.559382 -0.512343
v 0.392757 -0.876028 0.000000
v 0.905100 -0.047040 -0.316646
v 0.905100 -0.047040 0.316646
v 0.588455 -0.559382 0.512343
v 0.559382 -0.512343 0.588455
v 0.047040 -0.316646 0.905100
v 0.876028 0.000000 0.392757
v 0.559382 0.512343 0.588455
v 0.047040 0.316646 0.905100
vt 0.178501 0.122089
vt 0.107898 0.110446
vt 0.097154 0.039700
vt 0.161117 0.007620
vt 0.211392 0.058539
vt 0.180021 0.942620
vt 0.102402 0.115872
vt 0.148323 0.733906
vt 0.204977 0.791286
vt 0.217085 0.871007
vt 0.176468 0.134419
vt 0.105865 0.122776
vt 0.074257 0.715359
vt 0.144861 0.727002
vt 0.155959 0.732746
vt 0.206234 0.783665
vt 0.211836 0.794836
vt 0.222581 0.865581
vt 0.220547 0.877911
vt 0.187656 0.941461
vt 0.236675 1.000000
vt 0.187212 0.205164
vt 0.123249 0.237244
vt 0.072974 0.186325
vt 0.065338 0.187485
vt 0.063513 0.644614
vt 0.127476 0.612534
vt 0.177751 0.663453
vt 0.208294 0.618034
vt 0.188850 0.669197
vt 0.270197 0.751585
vt 0.259453 0.680840
vt 0.317437 0.510271
vt 0.275799 0.762756
vt 0.293184 0.877224
vt 0.326074 0.813675
vt 0.296646 0.884128
vt 0.291150 0.889554
vt 0.301894 0.960300
vt 0.237932 0.992380
vt 0.121992 0.244864
vt 0.128733 0.604913
vt 0.245358 0.546421
vt 0.305330 0.430549
vt 0.308753 0.963850
vt 0.246615 0.538801
vt 0.310578 0.506721
vt 0.299834 0.435976
vt 0.153690 0.453579
vt 0.196340 0.487882
vt 0.229231 0.424332
vt 0.225768 0.417429
vt 0.007636 0.582524
vt 0.040527 0.518975
vt 0.111130 0.530618
vt 0.121874 0.601363
vt 0.057911 0.633443
vt 0.134100 0.324586
vt 0.097035 0.396199
vt 0.128851 0.248414
vt 0.139595 0.319160
vt 0.137562 0.331490
vt 0.104671 0.395039
vt 0.123485 0.528742
vt 0.134229 0.599487
vt 0.192814 0.216335
vt 0.243089 0.267254
vt 0.210198 0.330803
vt 0.213661 0.337707
vt 0.208165 0.343133
vt 0.218909 0.413879
vt 0.154946 0.445958
vt 0.187447 0.496662
vt 0.237723 0.547581
vt 0.204832 0.611130
vt 0.220520 0.341257
vt 0.284483 0.309177
vt 0.334758 0.360096
vt 0.301867 0.423646
vt 0.231264 0.412002
vt 0.194071 0.208714
vt 0.250725 0.266094
vt 0.181964 0.128993
vt 0.219028 0.057380
vt 0.342394 0.358936
vt 0.333710 0.812515
vt 0.277056 0.755136
vt 0.264948 0.675414
vt 0.162373 0.000000
vt 0.185387 0.662293
vt 0.090295 0.036150
vt 0.068762 0.720785
vt 0.037064 0.512071
vt 0.056654 0.641064
vt 0.000000 0.583684
vt 0.116626 0.525192
vt 0.188704 0.489041
vt 0.285739 0.301557
vn -0.000000 0.850651 -0.525731
vn -0.000000 0.850650 -0.525732
vn 0.000001 0.850651 -0.525731
vn -0.000001 0.850651 -0.525731
vn 0.000000 0.850651 -0.525730
vn 0.850651 0.525732 0.000000
vn 0.850650 0.525732 0.000000
vn 0.850651 0.525731 -0.000001
vn 0.850651 0.525731 0.000001
vn 0.850651 0.525730 -0.000000
vn -0.000000 0.850651 0.525730
vn -0.000001 0.850651 0.525731
vn 0.000001 0.850651 0.525731
vn -0.000000 0.850650 0.525732
vn -0.000000 0.850651 0.525731
vn -0.850651 0.525731 -0.000000
vn -0.850651 0.525732 0.000000
vn -0.850651 0.525731 0.000001
vn -0.850651 0.525731 -0.000001
vn -0.850651 0.525730 0.000000
vn 0.000000 -0.850651 -0.525731
vn -0.000000 -0.850651 -0.525732
vn -0.000001 -0.850651 -0.525731
vn 0.000001 -0.850651 -0.525731
vn 0.000000 -0.850651 -0.525730
vn -0.000000 -0.850651 0.525731
vn 0.000000 -0.850651 0.525732
vn 0.000001 -0.850651 0.525731
vn -0.000001 -0.850651 0.525731
vn 0.000000 -0.850651 0.525730
vn 0.525731 0.000000 -0.850651
vn 0.525731 -0.000000 -0.850651
vn 0.525731 0.000000 -0.850651
vn 0.525731 0.000000 -0.850651
vn 0.525731 -0.000001 -0.850651
vn -0.525731 -0.000000 -0.850651
vn -0.525731 0.000000 -0.850651
vn -0.525732 0.000000 -0.850651
vn -0.525731 -0.000000 -0.850651
vn -0.525731 -0.000000 -0.850651
vn -0.850651 -0.525730 -0.000000
vn -0.850651 -0.525731 -0.000001
vn -0.850651 -0.525731 0.000001
vn -0.850650 -0.525732 0.000000
vn -0.850651 -0.525731 -0.000000
vn -0.525731 0.000000 0.850651
vn -0.525731 -0.000000 0.850651
vn -0.525731 0.000000 0.850651
vn -0.525731 0.000000 0.850651
vn -0.525731 -0.000000 0.850651
vn 0.850651 -0.525730 0.000000
vn 0.850651 -0.525731 0.000001
vn 0.850651 -0.525731 -0.000001
vn 0.850651 -0.525732 -0.000000
vn 0.850651 -0.525731 0.000000
vn 0.525731 -0.000000 0.850651
vn 0.525731 0.000000 0.850651
vn 0.525732 0.000000 0.850651
vn 0.525731 -0.000000 0.850651
vn 0.525731 -0.000000 0.850651
vn -0.356823 0.934172 0.000001
vn 0.356823 0.934172 -0.000001
vn 0.577350 0.577350 -0.577350
vn -0.000001 0.356823 -0.934172
vn -0.577350 0.577350 -0.577350
vn 0.934172 -0.000000 0.356823
vn 0.934172 -0.000000 -0.356823
vn 0.577350 0.577350 0.577350
vn 0.000000 0.356823 0.934172
vn -0.577350 0.577350 0.577350
vn -0.934172 0.000000 -0.356823
vn -0.934172 -0.000000 0.356823
vn 0.356823 -0.934172 -0.000000
vn -0.356823 -0.934172 0.000000
vn -0.577350 -0.577350 -0.577350
vn 0.000001 -0.356823 -0.934172
vn 0.577350 -0.577351 -0.577350
vn 0.577350 -0.577350 0.577350
vn -0.000000 -0.356823 0.934172
vn -0.577350 -0.577350 0.577350
s 1
g pPlatonic1
usemtl lambert4SG
f 21/31/1 22/16/2 25/32/3
f 22/16/2 23/15/4 25/32/3
f 23/15/4 24/30/5 25/32/3
f 26/1/6 27/2/7 30/5/8
f 27/2/7 28/3/9 30/5/8
f 28/3/9 29/4/10 30/5/8
f 31/35/11 32/18/12 35/36/13
f 32/18/12 33/17/14 35/36/13
f 33/17/14 34/34/15 35/36/13
f 36/50/16 37/51/17 40/46/18
f 37/51/17 38/48/19 40/46/18
f 38/48/19 39/47/20 40/46/18
f 41/53/21 42/54/22 45/57/23
f 42/54/22 43/55/24 45/57/23
f 43/55/24 44/56/25 45/57/23
f 47/61/26 46/60/27 50/68/28
f 46/60/27 48/66/29 50/68/28
f 48/66/29 49/67/30 50/68/28
f 52/26/31 51/27/32 55/13/33
f 51/27/32 53/28/34 55/13/33
f 53/28/34 54/14/35 55/13/33
f 57/65/36 56/64/37 60/75/38
f 56/64/37 58/73/39 60/75/38
f 58/73/39 59/74/40 60/75/38
f 62/62/41 61/70/42 65/63/43
f 61/70/42 63/71/44 65/63/43
f 63/71/44 64/72/45 65/63/43
f 67/76/46 66/77/47 70/80/48
f 66/77/47 68/78/49 70/80/48
f 68/78/49 69/79/50 70/80/48
f 72/23/51 71/24/52 75/22/53
f 71/24/52 73/12/54 75/22/53
f 73/12/54 74/11/55 75/22/53
f 77/39/56 76/40/57 80/38/58
f 76/40/57 78/20/59 80/38/58
f 78/20/59 79/19/60 80/38/58
usemtl initialShadingGroup
f 7/87/61 17/9/62 21/31/1
f 21/31/1 17/9/62 22/16/2
f 17/9/62 19/8/63 22/16/2
f 22/16/2 19/8/63 23/15/4
f 19/8/63 11/90/64 23/15/4
f 23/15/4 11/90/64 24/30/5
f 11/90/64 9/88/65 24/30/5
f 24/30/5 9/88/65 25/32/3
f 9/88/65 7/87/61 25/32/3
f 25/32/3 7/87/61 21/31/1
f 18/83/66 13/7/67 26/1/6
f 26/1/6 13/7/67 27/2/7
f 13/7/67 19/91/63 27/2/7
f 27/2/7 19/91/63 28/3/9
f 19/91/63 17/89/62 28/3/9
f 28/3/9 17/89/62 29/4/10
f 17/89/62 20/84/68 29/4/10
f 29/4/10 20/84/68 30/5/8
f 20/84/68 18/83/66 30/5/8
f 30/5/8 18/83/66 26/1/6
f 16/37/69 20/10/68 31/35/11
f 31/35/11 20/10/68 32/18/12
f 20/10/68 17/9/62 32/18/12
f 32/18/12 17/9/62 33/17/14
f 17/9/62 7/87/61 33/17/14
f 33/17/14 7/87/61 34/34/15
f 7/87/61 10/86/70 34/34/15
f 34/34/15 10/86/70 35/36/13
f 10/86/70 16/37/69 35/36/13
f 35/36/13 16/37/69 31/35/11
f 3/97/71 8/52/72 36/50/16
f 36/50/16 8/52/72 37/51/17
f 8/52/72 10/44/70 37/51/17
f 37/51/17 10/44/70 38/48/19
f 10/44/70 7/33/61 38/48/19
f 38/48/19 7/33/61 39/47/20
f 7/33/61 9/43/65 39/47/20
f 39/47/20 9/43/65 40/46/18
f 9/43/65 3/97/71 40/46/18
f 40/46/18 3/97/71 36/50/16
f 12/95/73 2/93/74 41/53/21
f 41/53/21 2/93/74 42/54/22
f 2/93/74 4/96/75 42/54/22
f 42/54/22 4/96/75 43/55/24
f 4/96/75 1/42/76 43/55/24
f 43/55/24 1/42/76 44/56/25
f 1/42/76 14/94/77 44/56/25
f 44/56/25 14/94/77 45/57/23
f 14/94/77 12/95/73 45/57/23
f 45/57/23 12/95/73 41/53/21
f 2/58/74 12/41/73 47/61/26
f 47/61/26 12/41/73 46/60/27
f 12/41/73 15/81/78 46/60/27
f 46/60/27 15/81/78 48/66/29
f 15/81/78 6/82/79 48/66/29
f 48/66/29 6/82/79 49/67/30
f 6/82/79 5/69/80 49/67/30
f 49/67/30 5/69/80 50/68/28
f 5/69/80 2/58/74 50/68/28
f 50/68/28 2/58/74 47/61/26
f 14/94/77 1/42/76 52/26/31
f 52/26/31 1/42/76 51/27/32
f 1/42/76 11/90/64 51/27/32
f 51/27/32 11/90/64 53/28/34
f 11/90/64 19/8/63 53/28/34
f 53/28/34 19/8/63 54/14/35
f 19/8/63 13/92/67 54/14/35
f 54/14/35 13/92/67 55/13/33
f 13/92/67 14/94/77 55/13/33
f 55/13/33 14/94/77 52/26/31
f 1/42/76 4/96/75 57/65/36
f 57/65/36 4/96/75 56/64/37
f 4/96/75 3/97/71 56/64/37
f 56/64/37 3/97/71 58/73/39
f 3/97/71 9/43/65 58/73/39
f 58/73/39 9/43/65 59/74/40
f 9/43/65 11/29/64 59/74/40
f 59/74/40 11/29/64 60/75/38
f 11/29/64 1/42/76 60/75/38
f 60/75/38 1/42/76 57/65/36
f 2/58/74 5/69/80 62/62/41
f 62/62/41 5/69/80 61/70/42
f 5/69/80 8/52/72 61/70/42
f 61/70/42 8/52/72 63/71/44
f 8/52/72 3/49/71 63/71/44
f 63/71/44 3/49/71 64/72/45
f 3/49/71 4/59/75 64/72/45
f 64/72/45 4/59/75 65/63/43
f 4/59/75 2/58/74 65/63/43
f 65/63/43 2/58/74 62/62/41
f 5/69/80 6/98/79 67/76/46
f 67/76/46 6/98/79 66/77/47
f 6/98/79 16/85/69 66/77/47
f 66/77/47 16/85/69 68/78/49
f 16/85/69 10/44/70 68/78/49
f 68/78/49 10/44/70 69/79/50
f 10/44/70 8/52/72 69/79/50
f 69/79/50 8/52/72 70/80/48
f 8/52/72 5/69/80 70/80/48
f 70/80/48 5/69/80 67/76/46
f 12/41/73 14/25/77 72/23/51
f 72/23/51 14/25/77 71/24/52
f 14/25/77 13/7/67 71/24/52
f 71/24/52 13/7/67 73/12/54
f 13/7/67 18/83/66 73/12/54
f 73/12/54 18/83/66 74/11/55
f 18/83/66 15/81/78 74/11/55
f 74/11/55 15/81/78 75/22/53
f 15/81/78 12/41/73 75/22/53
f 75/22/53 12/41/73 72/23/51
f 6/45/79 15/21/78 77/39/56
f 77/39/56 15/21/78 76/40/57
f 15/21/78 18/6/66 76/40/57
f 76/40/57 18/6/66 78/20/59
f 18/6/66 20/10/68 78/20/59
f 78/20/59 20/10/68 79/19/60
f 20/10/68 16/37/69 79/19/60
f 79/19/60 16/37/69 80/38/58
f 16/37/69 6/45/79 80/38/58
f 80/38/58 6/45/79 77/39/56
