# Blender v2.81 (sub 16) OBJ File: 'trajectory.blend'
# www.blender.org
mtllib dotted_line.mtl
o Plane.001
v -0.100000 -0.023688 0.200000
v 0.100000 -0.023718 0.200000
v -0.100000 -0.041677 -0.200000
v 0.100000 -0.041731 -0.200000
v -0.100000 -0.023688 0.200000
v 0.100000 -0.023718 0.200000
v -0.100000 -0.041677 -0.200000
v 0.100000 -0.041731 -0.200000
v -0.100000 -0.065303 -0.600000
v 0.100000 -0.065381 -0.600000
v -0.100000 -0.096018 -1.000000
v 0.100000 -0.096120 -1.000000
v -0.100000 -0.065303 -0.600000
v 0.100000 -0.065381 -0.600000
v -0.100000 -0.096018 -1.000000
v 0.100000 -0.096120 -1.000000
v -0.100000 -0.132079 -1.400000
v 0.100000 -0.132204 -1.400000
v -0.100000 -0.171017 -1.800000
v 0.100000 -0.171166 -1.800000
v -0.100000 -0.132079 -1.400000
v 0.100000 -0.132204 -1.400000
v -0.100000 -0.171017 -1.800000
v 0.100000 -0.171166 -1.800000
v -0.100000 -0.210358 -2.200000
v 0.100000 -0.210532 -2.200000
v -0.100000 -0.249269 -2.600000
v 0.100000 -0.249466 -2.600000
v -0.100000 -0.210358 -2.200000
v 0.100000 -0.210532 -2.200000
v -0.100000 -0.249269 -2.600000
v 0.100000 -0.249466 -2.600000
v -0.100000 -0.289934 -3.000000
v 0.100000 -0.290155 -3.000000
v -0.100000 -0.332309 -3.400000
v 0.100000 -0.332555 -3.400000
v -0.100000 -0.289934 -3.000000
v 0.100000 -0.290155 -3.000000
v -0.100000 -0.332309 -3.400000
v 0.100000 -0.332555 -3.400000
v -0.100000 -0.375941 -3.800000
v 0.100000 -0.376210 -3.800000
v -0.100000 -0.422226 -4.200000
v 0.100000 -0.422519 -4.200000
v -0.100000 -0.375941 -3.800000
v 0.100000 -0.376210 -3.800000
v -0.100000 -0.422226 -4.200000
v 0.100000 -0.422519 -4.200000
v -0.100000 -0.472029 -4.600000
v 0.100000 -0.472346 -4.600000
v -0.100000 -0.526035 -5.000000
v 0.100000 -0.526376 -5.000000
v -0.100000 -0.472029 -4.600000
v 0.100000 -0.472346 -4.600000
v -0.100000 -0.526035 -5.000000
v 0.100000 -0.526376 -5.000000
v -0.100000 -0.582807 -5.400000
v 0.100000 -0.583166 -5.400000
v -0.100000 -0.643494 -5.800000
v 0.100000 -0.643853 -5.800000
v -0.100000 -0.582807 -5.400000
v 0.100000 -0.583166 -5.400000
v -0.100000 -0.643494 -5.800000
v 0.100000 -0.643853 -5.800000
v -0.100000 -0.708471 -6.200000
v 0.100000 -0.708813 -6.200000
v -0.100000 -0.777457 -6.600000
v 0.100000 -0.777775 -6.600000
v -0.100000 -0.708471 -6.200000
v 0.100000 -0.708813 -6.200000
v -0.100000 -0.777457 -6.600000
v 0.100000 -0.777775 -6.600000
v -0.100000 -0.850849 -7.000000
v 0.100000 -0.851143 -7.000000
v -0.100000 -0.926044 -7.400000
v 0.100000 -0.926314 -7.400000
v -0.100000 -0.850849 -7.000000
v 0.100000 -0.851143 -7.000000
v -0.100000 -0.926044 -7.400000
v 0.100000 -0.926314 -7.400000
v -0.100000 -1.003276 -7.800000
v 0.100000 -1.003521 -7.800000
v -0.100000 -1.083074 -8.200000
v 0.100000 -1.083294 -8.200000
v -0.100000 -1.003276 -7.800000
v 0.100000 -1.003521 -7.800000
v -0.100000 -1.083074 -8.200000
v 0.100000 -1.083294 -8.200000
v -0.100000 -1.166160 -8.600000
v 0.100000 -1.166356 -8.600000
v -0.100000 -1.254029 -9.000000
v 0.100000 -1.254199 -9.000000
v -0.100000 -1.166160 -8.600000
v 0.100000 -1.166356 -8.600000
v -0.100000 -1.254029 -9.000000
v 0.100000 -1.254199 -9.000000
v -0.100000 -1.348383 -9.400001
v 0.100000 -1.348528 -9.400001
v -0.100000 -1.449630 -9.800000
v 0.100000 -1.449751 -9.800000
v -0.100000 -1.348383 -9.400001
v 0.100000 -1.348528 -9.400001
v -0.100000 -1.449630 -9.800000
v 0.100000 -1.449751 -9.800000
v -0.100000 -1.555548 -10.200000
v 0.100000 -1.555644 -10.200000
v -0.100000 -1.667346 -10.600000
v 0.100000 -1.667417 -10.600000
v -0.100000 -1.555548 -10.200000
v 0.100000 -1.555644 -10.200000
v -0.100000 -1.667346 -10.600000
v 0.100000 -1.667417 -10.600000
v -0.100000 -1.787012 -11.000000
v 0.100000 -1.787058 -11.000000
v -0.100000 -1.916716 -11.400001
v 0.100000 -1.916736 -11.400001
v -0.100000 -1.787012 -11.000000
v 0.100000 -1.787058 -11.000000
v -0.100000 -1.916716 -11.400001
v 0.100000 -1.916736 -11.400001
v -0.100000 -2.058484 -11.800000
v 0.100000 -2.058485 -11.800000
v -0.100000 -2.209750 -12.200000
v 0.100000 -2.209751 -12.200000
v -0.100000 -2.058484 -11.800000
v 0.100000 -2.058485 -11.800000
v -0.100000 -2.209750 -12.200000
v 0.100000 -2.209751 -12.200000
v -0.100000 -2.370141 -12.600000
v 0.100000 -2.370142 -12.600000
v -0.100000 -2.539024 -13.000000
v 0.100000 -2.539024 -13.000000
v -0.100000 -2.370141 -12.600000
v 0.100000 -2.370142 -12.600000
v -0.100000 -2.539024 -13.000000
v 0.100000 -2.539024 -13.000000
v -0.100000 -2.715544 -13.400001
v 0.100000 -2.715544 -13.400001
v -0.100000 -2.900453 -13.800000
v 0.100000 -2.900454 -13.800000
v -0.100000 -2.715544 -13.400001
v 0.100000 -2.715544 -13.400001
v -0.100000 -2.900453 -13.800000
v 0.100000 -2.900454 -13.800000
v -0.100000 -3.094540 -14.200000
v 0.100000 -3.094540 -14.200000
v -0.100000 -3.298625 -14.600000
v 0.100000 -3.298625 -14.600000
v -0.100000 -3.094540 -14.200000
v 0.100000 -3.094540 -14.200000
v -0.100000 -3.298625 -14.600000
v 0.100000 -3.298625 -14.600000
v -0.100000 -3.513556 -15.000000
v 0.100000 -3.513556 -15.000000
v -0.100000 -3.738899 -15.400001
v 0.100000 -3.738899 -15.400001
v -0.100000 -3.513556 -15.000000
v 0.100000 -3.513556 -15.000000
v -0.100000 -3.738899 -15.400001
v 0.100000 -3.738899 -15.400001
vt 0.000000 0.000000
vt 0.000000 1.000000
vt 1.000000 1.000000
vt 1.000000 0.000000
vt 0.000000 0.000000
vt 1.000000 0.000000
vt 1.000000 1.000000
vt 0.000000 1.000000
vt 0.000000 0.000000
vt 0.000000 1.000000
vt 1.000000 1.000000
vt 1.000000 0.000000
vt 0.000000 0.000000
vt 1.000000 0.000000
vt 1.000000 1.000000
vt 0.000000 1.000000
vt 0.000000 0.000000
vt 0.000000 1.000000
vt 1.000000 1.000000
vt 1.000000 0.000000
vt 0.000000 0.000000
vt 1.000000 0.000000
vt 1.000000 1.000000
vt 0.000000 1.000000
vt 0.000000 0.000000
vt 0.000000 1.000000
vt 1.000000 1.000000
vt 1.000000 0.000000
vt 0.000000 0.000000
vt 1.000000 0.000000
vt 1.000000 1.000000
vt 0.000000 1.000000
vt 0.000000 0.000000
vt 0.000000 1.000000
vt 1.000000 1.000000
vt 1.000000 0.000000
vt 0.000000 0.000000
vt 1.000000 0.000000
vt 1.000000 1.000000
vt 0.000000 1.000000
vt 0.000000 0.000000
vt 0.000000 1.000000
vt 1.000000 1.000000
vt 1.000000 0.000000
vt 0.000000 0.000000
vt 1.000000 0.000000
vt 1.000000 1.000000
vt 0.000000 1.000000
vt 0.000000 0.000000
vt 0.000000 1.000000
vt 1.000000 1.000000
vt 1.000000 0.000000
vt 0.000000 0.000000
vt 1.000000 0.000000
vt 1.000000 1.000000
vt 0.000000 1.000000
vt 0.000000 0.000000
vt 0.000000 1.000000
vt 1.000000 1.000000
vt 1.000000 0.000000
vt 0.000000 0.000000
vt 1.000000 0.000000
vt 1.000000 1.000000
vt 0.000000 1.000000
vt 0.000000 0.000000
vt 0.000000 1.000000
vt 1.000000 1.000000
vt 1.000000 0.000000
vt 0.000000 0.000000
vt 1.000000 0.000000
vt 1.000000 1.000000
vt 0.000000 1.000000
vt 0.000000 0.000000
vt 0.000000 1.000000
vt 1.000000 1.000000
vt 1.000000 0.000000
vt 0.000000 0.000000
vt 1.000000 0.000000
vt 1.000000 1.000000
vt 0.000000 1.000000
vt 0.000000 0.000000
vt 0.000000 1.000000
vt 1.000000 1.000000
vt 1.000000 0.000000
vt 0.000000 0.000000
vt 1.000000 0.000000
vt 1.000000 1.000000
vt 0.000000 1.000000
vt 0.000000 0.000000
vt 0.000000 1.000000
vt 1.000000 1.000000
vt 1.000000 0.000000
vt 0.000000 0.000000
vt 1.000000 0.000000
vt 1.000000 1.000000
vt 0.000000 1.000000
vt 0.000000 0.000000
vt 0.000000 1.000000
vt 1.000000 1.000000
vt 1.000000 0.000000
vt 0.000000 0.000000
vt 1.000000 0.000000
vt 1.000000 1.000000
vt 0.000000 1.000000
vt 0.000000 0.000000
vt 0.000000 1.000000
vt 1.000000 1.000000
vt 1.000000 0.000000
vt 0.000000 0.000000
vt 1.000000 0.000000
vt 1.000000 1.000000
vt 0.000000 1.000000
vt 0.000000 0.000000
vt 0.000000 1.000000
vt 1.000000 1.000000
vt 1.000000 0.000000
vt 0.000000 0.000000
vt 1.000000 0.000000
vt 1.000000 1.000000
vt 0.000000 1.000000
vt 0.000000 0.000000
vt 0.000000 1.000000
vt 1.000000 1.000000
vt 1.000000 0.000000
vt 0.000000 0.000000
vt 1.000000 0.000000
vt 1.000000 1.000000
vt 0.000000 1.000000
vt 0.000000 0.000000
vt 0.000000 1.000000
vt 1.000000 1.000000
vt 1.000000 0.000000
vt 0.000000 0.000000
vt 1.000000 0.000000
vt 1.000000 1.000000
vt 0.000000 1.000000
vt 0.000000 0.000000
vt 0.000000 1.000000
vt 1.000000 1.000000
vt 1.000000 0.000000
vt 0.000000 0.000000
vt 1.000000 0.000000
vt 1.000000 1.000000
vt 0.000000 1.000000
vt 0.000000 0.000000
vt 0.000000 1.000000
vt 1.000000 1.000000
vt 1.000000 0.000000
vt 0.000000 0.000000
vt 1.000000 0.000000
vt 1.000000 1.000000
vt 0.000000 1.000000
vt 0.000000 0.000000
vt 0.000000 1.000000
vt 1.000000 1.000000
vt 1.000000 0.000000
vt 0.000000 0.000000
vt 1.000000 0.000000
vt 1.000000 1.000000
vt 0.000000 1.000000
vn -0.0002 -0.9990 0.0450
vn 0.0002 0.9990 -0.0450
vn -0.0004 -0.9971 0.0766
vn 0.0004 0.9971 -0.0766
vn -0.0007 -0.9953 0.0969
vn 0.0007 0.9953 -0.0969
vn -0.0009 -0.9953 0.0968
vn 0.0009 0.9953 -0.0968
vn -0.0012 -0.9944 0.1054
vn 0.0012 0.9944 -0.1054
vn -0.0014 -0.9934 0.1150
vn 0.0014 0.9934 -0.1150
vn -0.0016 -0.9910 0.1338
vn 0.0016 0.9910 -0.1338
vn -0.0018 -0.9887 0.1500
vn 0.0018 0.9887 -0.1500
vn -0.0016 -0.9855 0.1699
vn 0.0016 0.9855 -0.1699
vn -0.0014 -0.9828 0.1847
vn 0.0014 0.9828 -0.1847
vn -0.0011 -0.9807 0.1956
vn 0.0011 0.9807 -0.1956
vn -0.0009 -0.9767 0.2145
vn 0.0009 0.9767 -0.2145
vn -0.0006 -0.9694 0.2454
vn 0.0006 0.9694 -0.2454
vn -0.0004 -0.9631 0.2691
vn 0.0004 0.9631 -0.2692
vn -0.0002 -0.9513 0.3084
vn 0.0002 0.9513 -0.3084
vn -0.0000 -0.9354 0.3537
vn 0.0000 0.9354 -0.3537
vn -0.0000 -0.9213 0.3890
vn 0.0000 0.9213 -0.3890
vn -0.0000 -0.9077 0.4196
vn 0.0000 0.9077 -0.4196
vn -0.0000 -0.8908 0.4545
vn 0.0000 0.8908 -0.4545
vn 0.0000 -0.8713 0.4908
vn 0.0000 0.8713 -0.4908
usemtl None
s off
f 1/1/1 3/2/1 4/3/1 2/4/1
f 5/5/2 6/6/2 8/7/2 7/8/2
f 9/9/3 11/10/3 12/11/3 10/12/3
f 13/13/4 14/14/4 16/15/4 15/16/4
f 17/17/5 19/18/5 20/19/5 18/20/5
f 21/21/6 22/22/6 24/23/6 23/24/6
f 25/25/7 27/26/7 28/27/7 26/28/7
f 29/29/8 30/30/8 32/31/8 31/32/8
f 33/33/9 35/34/9 36/35/9 34/36/9
f 37/37/10 38/38/10 40/39/10 39/40/10
f 41/41/11 43/42/11 44/43/11 42/44/11
f 45/45/12 46/46/12 48/47/12 47/48/12
f 49/49/13 51/50/13 52/51/13 50/52/13
f 53/53/14 54/54/14 56/55/14 55/56/14
f 57/57/15 59/58/15 60/59/15 58/60/15
f 61/61/16 62/62/16 64/63/16 63/64/16
f 65/65/17 67/66/17 68/67/17 66/68/17
f 69/69/18 70/70/18 72/71/18 71/72/18
f 73/73/19 75/74/19 76/75/19 74/76/19
f 77/77/20 78/78/20 80/79/20 79/80/20
f 81/81/21 83/82/21 84/83/21 82/84/21
f 85/85/22 86/86/22 88/87/22 87/88/22
f 89/89/23 91/90/23 92/91/23 90/92/23
f 93/93/24 94/94/24 96/95/24 95/96/24
f 97/97/25 99/98/25 100/99/25 98/100/25
f 101/101/26 102/102/26 104/103/26 103/104/26
f 105/105/27 107/106/27 108/107/27 106/108/27
f 109/109/28 110/110/28 112/111/28 111/112/28
f 113/113/29 115/114/29 116/115/29 114/116/29
f 117/117/30 118/118/30 120/119/30 119/120/30
f 121/121/31 123/122/31 124/123/31 122/124/31
f 125/125/32 126/126/32 128/127/32 127/128/32
f 129/129/33 131/130/33 132/131/33 130/132/33
f 133/133/34 134/134/34 136/135/34 135/136/34
f 137/137/35 139/138/35 140/139/35 138/140/35
f 141/141/36 142/142/36 144/143/36 143/144/36
f 145/145/37 147/146/37 148/147/37 146/148/37
f 149/149/38 150/150/38 152/151/38 151/152/38
f 153/153/39 155/154/39 156/155/39 154/156/39
f 157/157/40 158/158/40 160/159/40 159/160/40
