# Blender v2.81 (sub 16) OBJ File: 'flipper.blend'
# www.blender.org
mtllib flipper.mtl
o Flipper_Circle
v -0.000000 0.000000 -0.252000
v -0.178191 0.000000 -0.178191
v -0.252000 0.000000 0.000000
v -0.178191 0.000000 0.178191
v 0.000000 0.000000 0.252000
v 1.108800 0.000000 0.151200
v 1.215715 0.000000 0.106914
v 1.260000 0.000000 -0.000000
v 1.215714 0.000000 -0.106915
v 1.108800 0.000000 -0.151200
v -0.000000 0.294000 -0.252000
v -0.178191 0.294000 -0.178191
v -0.252000 0.294000 0.000000
v -0.178191 0.294000 0.178191
v 0.000000 0.294000 0.252000
v 1.108800 0.294000 0.151200
v 1.215715 0.294000 0.106914
v 1.260000 0.294000 -0.000000
v 1.215714 0.294000 -0.106915
v 1.108800 0.294000 -0.151200
vt 0.000000 0.000000
vt 0.000000 0.000000
vt 0.000000 0.000000
vt 0.000000 0.000000
vt 0.000000 0.000000
vt 0.000000 0.000000
vt 0.000000 0.000000
vt 0.000000 0.000000
vt 0.000000 0.000000
vt 0.000000 0.000000
vt 0.000000 0.000000
vt 0.000000 0.000000
vt 0.000000 0.000000
vt 0.000000 0.000000
vt 0.000000 0.000000
vt 0.000000 0.000000
vt 0.000000 0.000000
vt 0.000000 0.000000
vt 0.000000 0.000000
vt 0.000000 0.000000
vn 0.3827 0.0000 -0.9239
vn 0.3827 0.0000 0.9239
vn -0.9239 0.0000 -0.3827
vn 0.9239 0.0000 0.3827
vn -0.9239 0.0000 0.3827
vn 0.0905 0.0000 0.9959
vn 0.9239 0.0000 -0.3827
vn -0.3827 0.0000 0.9239
vn 0.0905 0.0000 -0.9959
vn -0.3827 0.0000 -0.9239
vn 0.0000 1.0000 -0.0000
vn 0.0000 -1.0000 0.0000
usemtl None
s off
f 10/1/1 20/2/1 19/3/1 9/4/1
f 7/5/2 17/6/2 16/7/2 6/8/2
f 3/9/3 13/10/3 12/11/3 2/12/3
f 8/13/4 18/14/4 17/6/4 7/5/4
f 4/15/5 14/16/5 13/10/5 3/9/5
f 6/8/6 16/7/6 15/17/6 5/18/6
f 9/4/7 19/3/7 18/14/7 8/13/7
f 5/18/8 15/17/8 14/16/8 4/15/8
f 1/19/9 11/20/9 20/2/9 10/1/9
f 2/12/10 12/11/10 11/20/10 1/19/10
f 20/2/11 11/20/11 15/17/11
f 19/3/11 20/2/11 18/14/11
f 17/6/11 18/14/11 16/7/11
f 14/16/11 12/11/11 13/10/11
f 20/2/11 15/17/11 16/7/11
f 15/17/11 11/20/11 14/16/11
f 16/7/11 18/14/11 20/2/11
f 11/20/11 12/11/11 14/16/11
f 2/12/12 1/19/12 3/9/12
f 8/13/12 10/1/12 9/4/12
f 6/8/12 8/13/12 7/5/12
f 5/18/12 1/19/12 10/1/12
f 10/1/12 8/13/12 6/8/12
f 4/15/12 1/19/12 5/18/12
f 6/8/12 5/18/12 10/1/12
f 3/9/12 1/19/12 4/15/12
