# Blender v3.1.2 OBJ File: ''
# www.blender.org
mtllib playfield.mtl
o Plane_Plane.002
v 0.196612 0.034203 -0.344743
v -0.196612 0.034203 -0.344743
v -0.196612 -0.034203 0.344743
v 0.196612 -0.034203 0.344743
v 0.196612 0.169640 -0.344680
v -0.196612 0.169640 -0.344680
v -0.196612 0.055811 0.344786
v 0.196612 0.055811 0.344786
vt 0.000000 0.000000
vt 1.000000 0.000000
vt 1.000000 1.000000
vt 0.000000 1.000000
vt 0.000000 0.000000
vt 1.000000 0.000000
vt 1.000000 1.000000
vt 0.000000 1.000000
vn 0.0000 0.9951 0.0987
vn 0.0000 -0.0005 1.0000
vn 0.0000 0.0005 -1.0000
vn -1.0000 -0.0000 0.0000
vn 1.0000 -0.0000 0.0000
usemtl None
s 1
f 1/1/1 2/2/1 3/3/1 4/4/1
f 1/1/2 5/5/2 6/6/2 2/2/2
f 3/3/3 7/7/3 8/8/3 4/4/3
f 4/4/4 8/8/4 5/5/4 1/1/4
f 3/3/5 2/2/5 6/6/5 7/7/5
