# Blender v2.82 (sub 7) OBJ File: 'rightbase.blend'
# www.blender.org
mtllib rightbase.mtl
o multiball_base
v -1.315328 0.506551 1.863382
v -1.315328 0.506551 0.931691
v -1.315328 0.657664 0.931691
v -1.315328 0.657664 1.863382
v -1.315328 0.506551 0.000000
v -1.315328 0.657664 0.000000
v -1.315328 0.533948 -0.392523
v -1.315328 0.411262 -0.392523
v -1.315328 0.280373 -0.931691
v -1.315328 0.364013 -0.931691
v -1.315328 0.058479 -1.772296
v -1.315328 0.075924 -1.772296
v -0.438443 0.638610 0.931691
v -0.438443 0.657664 1.863382
v -0.925345 0.657664 0.000000
v -0.438443 0.584850 0.042183
v -0.438443 0.499282 -0.373059
v -1.001537 0.533949 -0.392523
v -1.106195 0.364013 -0.931691
v -0.438443 0.364013 -0.931691
v -0.438443 0.189293 -1.441501
v -1.191627 0.189293 -1.441501
v -1.247060 0.075924 -1.772296
v -0.438443 0.075924 -1.772296
v 0.438443 0.506551 1.863382
v -0.438443 0.506551 1.863382
v 0.438443 0.657664 1.863382
v -1.315328 0.040136 -1.772296
v -1.315328 0.052109 -1.857996
v -1.027404 0.828026 -0.387956
v -1.289022 0.826587 -0.392523
v -1.289022 0.656650 -0.931690
v -1.132234 0.657811 -0.928010
v -1.289022 0.374353 -1.833671
v -1.237722 0.375651 -1.829378
v -1.315328 0.857292 -0.392523
v -1.310944 0.800944 -0.392523
v -1.310944 0.631009 -0.931691
v -1.315328 0.687357 -0.931691
v -1.106195 0.631009 -0.931691
v -1.005841 0.800944 -0.391688
v -1.001537 0.857292 -0.392523
v -1.106195 0.687357 -0.931691
v -0.925345 0.924660 0.000000
v -1.315328 0.924660 0.000000
v -1.315328 0.981007 0.000000
v -0.925345 0.981008 0.000000
v -1.310944 0.347708 -1.822977
v -1.315328 0.405066 -1.833674
v -1.222119 0.348382 -1.821388
v -1.211571 0.405498 -1.832106
v 0.307700 0.613019 0.986995
v -0.036586 0.574079 0.530925
v -0.036586 0.442172 0.530925
v 0.307700 0.484727 0.986995
v -0.201146 0.519954 0.072489
v -0.201146 0.400483 0.072489
v -0.326940 0.453052 -0.366695
v -0.326940 0.348953 -0.366695
v -0.438443 0.280374 -0.931691
v 0.783205 0.491365 1.434341
v 0.783205 0.637947 1.434341
v -0.438443 0.052109 -1.857996
v -0.438443 0.040136 -1.772296
v -0.438443 0.058479 -1.772296
v -1.247980 0.304687 -2.156983
v -1.315328 0.304687 -2.156983
v -1.315328 0.251590 -2.137557
v -1.247819 0.251590 -2.137557
v -1.247060 0.052109 -1.857996
v -1.289022 0.342866 -1.935084
v -1.249149 0.344010 -1.931339
v -1.315328 0.317558 -1.921652
v -1.315328 0.373579 -1.935087
v -1.222991 0.373877 -1.934010
v -1.227185 0.317803 -1.920764
v -1.289022 0.942395 -0.025089
v -0.956969 0.942395 -0.025089
v -0.438443 0.145799 -1.441501
v 1.302975 -0.000000 1.782573
v 1.257365 -0.000000 1.863382
v 1.346518 -0.000000 1.863382
v 1.359560 -0.000000 1.820484
v -1.306559 0.888530 -0.008769
v -1.310944 0.764815 -0.392523
v -1.306559 0.924660 -0.008769
v -1.310944 0.594880 -0.931691
v -1.310944 0.310930 -1.816119
v -1.306559 0.282583 -1.910455
v -1.306559 0.318503 -1.919069
v -1.255840 0.254943 -2.129446
v -1.306559 0.254603 -2.129322
v -1.306559 0.220558 -2.116866
v -1.255738 0.220898 -2.116991
v -1.235690 0.319290 -1.917816
v -1.238363 0.283285 -1.909084
v -1.230422 0.311797 -1.814064
v -1.184951 0.423306 -1.466319
v -1.179915 0.459711 -1.470761
v -1.114874 0.595160 -0.930384
v -1.005841 0.764815 -0.391688
v -1.114874 0.631289 -0.930383
v -0.935980 0.924660 -0.008769
v -0.935980 0.888530 -0.008769
v -1.315328 0.888530 0.000000
v -1.315328 0.281638 -1.913039
v -1.247717 0.217545 -2.125101
v -1.315328 0.217545 -2.125101
v -1.315328 0.000000 -2.045510
v -1.247060 0.000000 -2.045510
v -1.229875 0.281850 -1.912271
v -1.221721 0.311239 -1.815000
v -1.176259 0.422857 -1.467401
v -1.106195 0.594880 -0.931691
v -0.925345 0.888530 0.000000
v -0.438443 0.100066 -1.441501
v -0.369598 0.348953 -0.356396
v -0.482287 0.280374 -0.927405
v -0.482287 0.192428 -0.927405
v -0.369598 0.239496 -0.356396
v -0.242899 0.400483 0.085947
v -0.242899 0.274862 0.085947
v -0.075598 0.442172 0.552017
v -0.075598 0.303475 0.552017
v 0.274948 0.484727 1.016379
v 0.274949 0.332681 1.016379
v 0.755797 0.337238 1.468752
v 0.755797 0.491365 1.468752
v 0.438443 0.347661 1.863382
v -0.438443 0.347660 1.863382
v -1.315328 0.347660 1.863382
v -1.315328 0.347660 0.931691
v -1.315328 0.347660 0.000000
v -1.315328 0.282260 -0.392523
v -1.315328 0.192428 -0.931691
v -1.315328 -0.000000 1.863382
v -1.315328 -0.000000 0.931691
v -1.315328 0.000000 0.000000
v -1.315328 0.000000 -0.392523
v -1.315328 0.000000 -0.931691
v -1.315328 0.000000 -1.772296
v -1.289022 0.281775 -2.131857
v -1.271622 0.281786 -2.131860
v -0.438443 0.000000 -2.045510
v -0.438443 0.000000 -1.772296
v -0.438443 0.000000 -1.441501
v -0.326940 0.239496 -0.366695
v -0.438443 0.192428 -0.931691
v -0.438443 0.000000 -0.931691
v -0.326940 0.000000 -0.366695
v -0.201146 0.274862 0.072489
v -0.201146 -0.000000 0.072489
v -0.036586 0.303475 0.530925
v -0.036586 -0.000000 0.530925
v 0.307700 0.332681 0.986995
v 0.307700 -0.000000 0.986995
v 0.783205 -0.000000 1.434341
v 0.783205 0.337238 1.434341
v 0.438443 -0.000000 1.863382
v -0.438443 -0.000000 1.863382
v 1.359560 0.628455 1.820484
v 1.346518 0.629768 1.863382
v 1.257364 0.632506 1.863382
v 1.302974 0.629387 1.782573
v 1.359560 0.484054 1.820484
v 1.346518 0.485065 1.863382
v 1.359557 0.332220 1.820482
v 1.346522 0.332913 1.863382
v 1.257365 0.487175 1.863382
v 1.302974 0.484771 1.782573
v 1.302971 0.332712 1.782571
v 1.257369 0.334362 1.863382
v 1.278567 0.332712 1.818996
v 1.278571 0.484771 1.818998
v -0.482287 0.145799 -1.441501
v -0.482287 0.100066 -1.441501
v -1.289022 0.687355 -0.931690
v -1.289022 0.857292 -0.392523
v -1.027404 0.858731 -0.387956
v -1.132234 0.688516 -0.928010
v -1.289022 0.405058 -1.833671
v -1.237722 0.406356 -1.829378
v -1.289022 0.373571 -1.935084
v -1.249149 0.374715 -1.931339
v -1.289022 0.973100 -0.025089
v -0.956969 0.973100 -0.025089
v -1.289022 0.312480 -2.131857
v -1.271622 0.312491 -2.131860
vn -1.0000 -0.0000 0.0000
vn 0.0217 0.9998 0.0000
vn 0.0000 0.9998 -0.0204
vn 0.0000 0.5013 0.8653
vn 0.0855 0.9945 -0.0601
vn 0.0691 0.9475 -0.3121
vn 0.0000 0.9719 -0.2353
vn 0.0000 0.9460 -0.3242
vn -0.0000 -0.0000 1.0000
vn 1.0000 0.0000 0.0000
vn 0.0000 0.9537 -0.3006
vn 0.0009 0.9541 -0.2996
vn -0.0003 0.9537 -0.3006
vn -0.0004 0.9545 -0.2981
vn 0.0007 0.9547 -0.2975
vn -0.9967 -0.0802 0.0128
vn -0.9969 -0.0748 0.0233
vn -0.9969 -0.0743 0.0246
vn -0.9967 -0.0775 0.0244
vn 0.9843 -0.0775 -0.1585
vn 0.9817 0.0000 -0.1906
vn -0.9969 -0.0752 0.0237
vn -0.9971 -0.0720 0.0226
vn 0.9916 0.0000 -0.1292
vn 0.9801 -0.1909 -0.0550
vn 0.9799 -0.1919 -0.0548
vn 0.9800 -0.1913 -0.0548
vn 0.7981 0.0000 -0.6025
vn 0.9412 0.0000 -0.3379
vn 0.9613 0.0000 -0.2754
vn 0.9811 0.0000 -0.1936
vn 0.6852 0.0000 -0.7283
vn 0.0000 -0.3436 -0.9391
vn 0.0000 0.9635 -0.2677
vn 0.0005 0.9550 -0.2965
vn -0.0002 0.9551 -0.2964
vn -0.9991 0.0099 0.0414
vn -0.9972 -0.0720 0.0224
vn 0.9964 -0.0807 -0.0260
vn 0.9804 -0.1906 -0.0507
vn 0.0001 0.9986 -0.0524
vn 0.0003 0.9987 -0.0504
vn 0.0000 0.9987 -0.0509
vn -0.0052 0.9987 -0.0501
vn 0.1388 0.9901 -0.0202
vn -0.0214 0.9974 -0.0690
vn 0.2702 0.9610 -0.0581
vn 0.0313 0.9912 -0.1283
vn 0.1618 0.9665 -0.1992
vn 0.9811 -0.0776 -0.1771
vn -0.9969 -0.0776 0.0133
vn 0.3853 0.9038 -0.1862
vn 0.2836 0.9326 -0.2233
vn 0.3844 0.8972 -0.2173
vn 0.0000 -1.0000 -0.0000
vn -0.9999 0.0000 0.0114
vn -1.0000 -0.0031 0.0024
vn -1.0000 0.0031 0.0090
vn -0.9991 -0.0079 -0.0421
vn -0.9990 -0.0106 -0.0444
vn -0.9990 -0.0104 -0.0433
vn -0.9990 -0.0080 -0.0431
vn 0.9945 -0.0876 -0.0568
vn 0.9701 -0.2334 -0.0661
vn 0.9858 -0.1464 -0.0820
vn 0.9723 -0.2295 -0.0442
vn 0.9801 0.0000 -0.1984
vn 0.9838 0.0000 -0.1795
vn -0.9998 0.0190 -0.0060
vn -0.9999 0.0000 -0.0112
vn -0.9998 0.0183 -0.0057
vn -0.9998 0.0174 -0.0064
vn -0.9998 0.0176 -0.0054
vn -0.9991 0.0101 0.0421
vn -0.9998 0.0177 -0.0049
vn 0.9974 -0.0700 0.0195
vn 0.9921 -0.1156 -0.0482
vn 0.9872 -0.0802 -0.1379
vn 0.9884 -0.1227 -0.0899
vn 0.9804 0.0190 -0.1963
vn 0.9783 0.0143 -0.2068
vn 0.9802 0.0240 -0.1966
vn 0.9832 0.0000 -0.1827
vn 0.9782 0.0190 -0.2070
vn -0.2906 0.9117 -0.2906
vn 0.2906 -0.9117 0.2906
vn -0.0182 0.9573 -0.2885
vn -0.0180 0.9572 -0.2888
vn -0.0183 0.9571 -0.2892
vn 0.0171 -0.9563 0.2918
vn 0.0172 -0.9564 0.2915
vn 0.0171 -0.9563 0.2919
vn 0.0000 -0.9391 0.3436
vn 0.0071 -0.9216 0.3880
vn 0.0000 0.9241 -0.3821
vn -0.0071 0.9415 -0.3369
vn 0.0515 0.9548 -0.2928
vn 0.0302 0.9567 -0.2896
vn -0.0638 -0.9529 0.2965
vn -0.0638 -0.9528 0.2967
vn -0.0637 -0.9528 0.2968
vn 0.0109 0.9516 -0.3070
vn 0.0278 0.9508 -0.3085
vn 0.0141 -0.9545 0.2978
vn 0.0147 -0.9535 0.3010
vn 0.0143 -0.9540 0.2994
vn -0.0145 0.9536 -0.3006
vn -0.0145 0.9536 -0.3007
vn -0.0140 0.9545 -0.2978
vn -0.2813 -0.8970 0.3411
vn 0.2813 0.8970 -0.3411
vn 0.0000 1.0000 0.0000
vn -0.0179 0.9571 -0.2893
vn -0.0587 0.9560 -0.2873
vn 0.0170 -0.9562 0.2922
vn 0.0556 -0.9553 0.2903
vn -0.0006 0.9553 -0.2957
vn -0.0007 0.9551 -0.2963
vn 0.9937 -0.0902 -0.0670
vn 0.9943 -0.0339 -0.1009
vn -0.0636 -0.9527 0.2970
vn -0.0958 -0.9498 0.2979
vn 0.9959 -0.0285 -0.0861
vn 0.1005 0.9506 -0.2937
vn 0.9968 -0.0248 -0.0761
vn 0.0307 0.9993 -0.0213
vn 0.0307 0.9993 -0.0212
vn 0.9568 0.0000 0.2909
vn 0.9568 0.0000 0.2907
vn 0.5566 0.0000 -0.8308
vn 0.0000 0.0000 0.0000
vn -0.0000 0.7071 0.7071
vn -0.9701 0.0000 -0.2425
vn 0.7071 -0.7071 -0.0000
vn -0.7071 -0.7071 0.0000
vn -0.6805 -0.7297 -0.0665
vn 0.7071 0.7071 -0.0000
vn 0.9916 -0.0000 -0.1297
vn -0.0150 0.9527 -0.3035
vn 0.9928 0.0000 -0.1195
vn 0.0116 -0.9929 0.1182
vn 0.0269 -0.9934 0.1114
vn 0.0325 -0.9931 0.1124
vn 0.0275 -0.9931 0.1139
vn -0.0071 0.9973 -0.0730
vn -0.0117 0.9969 -0.0778
vn -0.0227 0.9967 -0.0775
vn -0.0079 0.9967 -0.0806
vn 0.0325 -0.9944 0.1007
vn 0.0342 -0.9938 0.1060
vn -0.0249 0.9967 -0.0771
vn -0.0237 0.9970 -0.0735
vn 0.0262 -0.9964 0.0812
vn 0.0353 -0.9972 0.0662
vn 0.0407 -0.9964 0.0746
vn 0.0404 -0.9964 0.0746
vn -0.0155 0.9987 -0.0481
vn -0.0192 0.9985 -0.0505
vn -0.0262 0.9985 -0.0485
vn -0.0177 0.9983 -0.0549
vn 0.0357 -0.9972 0.0661
vn 0.0489 -0.9973 0.0545
vn -0.0342 0.9987 -0.0381
vn -0.0241 0.9987 -0.0446
vn -0.0041 1.0000 -0.0046
vn -0.0061 1.0000 -0.0048
vn -0.0055 1.0000 -0.0044
vn -0.0046 1.0000 -0.0052
vn 0.0070 -1.0000 0.0056
vn 0.0076 -0.9999 0.0084
vn 0.0068 -0.9999 0.0076
vn 0.0079 -0.9999 0.0063
vn 0.0057 1.0000 0.0045
vn 0.0064 1.0000 0.0043
vn 0.0060 1.0000 0.0040
vn 0.0056 1.0000 0.0045
vn -0.8308 0.0000 -0.5566
vn -0.0082 -1.0000 -0.0055
vn -0.0087 -0.9999 -0.0069
vn -0.0083 -0.9999 -0.0066
vn -0.0087 -0.9999 -0.0058
vn -0.0174 0.9838 -0.1782
vn 0.0000 0.9842 -0.1768
vn 0.0000 -0.9669 0.2552
vn 0.0247 -0.9671 0.2532
vn -0.0000 0.9543 -0.2987
vn 0.0003 0.9538 -0.3005
vn 0.0002 0.9543 -0.2990
vn -0.0000 0.9538 -0.3006
vn -0.0001 0.9538 -0.3006
vn 0.0001 0.9550 -0.2965
vn 0.0003 0.9544 -0.2987
vn 0.0001 0.9544 -0.2986
vn 0.0003 0.9550 -0.2965
vn 0.0003 0.9551 -0.2964
vn -0.0006 0.9553 -0.2956
vn 0.0004 0.9550 -0.2967
vn -0.0003 0.9552 -0.2960
vn -0.9817 0.0000 0.1906
vn -0.9937 -0.0013 0.1123
vn -0.9932 0.0000 0.1162
vn -0.9933 0.0013 0.1153
vn -0.9938 -0.0000 0.1114
vn -0.9817 0.0000 0.1905
vn 0.0000 0.0000 -1.0000
vn 0.0002 0.0000 1.0000
usemtl initialShadingGroup
s 1
f 1//1 3//1 2//1
f 1//1 4//1 3//1
f 2//1 6//1 5//1
f 2//1 3//1 6//1
f 7//1 9//1 8//1
f 7//1 10//1 9//1
f 9//1 12//1 11//1
f 9//1 10//1 12//1
f 4//2 13//2 3//2
f 4//3 14//3 13//3
f 13//2 6//2 3//2
f 6//4 16//4 15//4
f 6//5 13//5 16//5
f 17//6 19//6 18//6
f 17//7 20//7 19//7
f 21//8 23//8 22//8
f 21//8 24//8 23//8
f 25//9 14//9 26//9
f 25//9 27//9 14//9
f 26//9 4//9 1//9
f 26//9 14//9 4//9
f 12//10 28//10 11//10
f 12//1 29//1 28//1
f 30//11 32//12 31//11
f 30//11 33//13 32//12
f 32//12 35//14 34//15
f 32//12 33//13 35//14
f 36//16 38//17 37//18
f 36//16 39//19 38//17
f 40//20 42//20 41//20
f 40//21 43//21 42//21
f 44//9 46//9 45//9
f 44//9 47//9 46//9
f 38//17 49//22 48//23
f 38//17 39//19 49//22
f 50//24 43//24 40//24
f 50//25 51//26 43//27
f 52//28 54//28 53//28
f 52//28 55//28 54//28
f 53//29 57//29 56//29
f 53//29 54//29 57//29
f 56//30 59//30 58//30
f 56//30 57//30 59//30
f 58//31 60//31 20//31
f 58//31 59//31 60//31
f 55//32 62//32 61//32
f 55//32 52//32 62//32
f 63//10 65//10 64//10
f 63//10 24//10 65//10
f 66//33 68//33 67//33
f 66//33 69//33 68//33
f 70//34 24//34 63//34
f 70//34 23//34 24//34
f 35//14 71//35 34//15
f 35//14 72//36 71//35
f 48//37 74//37 73//37
f 48//23 49//22 74//38
f 75//39 50//39 76//39
f 75//40 51//26 50//25
f 27//41 52//42 14//43
f 27//41 62//44 52//42
f 14//45 53//45 13//45
f 14//46 52//46 53//46
f 13//47 56//47 16//47
f 13//48 53//48 56//48
f 15//6 17//6 18//6
f 15//49 16//49 17//49
f 42//50 44//50 41//50
f 42//21 47//21 44//21
f 77//11 30//11 31//11
f 77//11 78//11 30//11
f 45//51 36//16 37//18
f 45//1 46//1 36//1
f 5//1 7//1 8//1
f 5//1 6//1 7//1
f 16//52 58//52 17//52
f 16//53 56//53 58//53
f 20//54 17//54 58//54
f 65//10 21//10 79//10
f 65//10 24//10 21//10
f 80//55 82//55 81//55
f 80//55 83//55 82//55
f 84//56 37//57 85//58
f 84//56 86//56 37//57
f 38//1 85//58 37//57
f 38//1 87//1 85//58
f 87//1 48//1 88//1
f 87//1 38//1 48//1
f 88//59 90//60 89//61
f 88//59 48//62 90//60
f 91//33 93//33 92//33
f 91//33 94//33 93//33
f 95//63 97//63 96//63
f 95//64 50//64 97//64
f 97//65 99//65 98//65
f 97//66 50//66 99//66
f 100//67 41//67 101//67
f 100//67 102//67 41//67
f 103//68 101//68 41//68
f 103//68 104//68 101//68
f 104//9 86//9 84//9
f 104//9 103//9 86//9
f 6//69 85//69 7//69
f 6//70 105//70 85//70
f 87//69 7//69 85//69
f 87//69 10//71 7//69
f 10//71 88//72 12//73
f 10//71 87//69 88//72
f 29//74 88//74 106//74
f 29//75 12//73 88//72
f 107//33 109//33 108//33
f 107//33 110//33 109//33
f 111//76 23//76 70//76
f 111//77 112//77 23//77
f 23//78 113//78 22//78
f 23//79 112//79 113//79
f 19//80 101//81 18//82
f 19//83 114//83 101//83
f 115//84 18//82 101//81
f 115//21 15//21 18//21
f 15//9 105//9 6//9
f 15//9 115//9 105//9
f 105//85 84//85 85//85
f 37//86 86//86 45//86
f 88//87 89//88 106//89
f 90//90 48//91 73//92
f 69//93 92//93 68//93
f 69//94 91//94 92//94
f 108//95 94//95 107//95
f 108//96 93//96 94//96
f 96//97 112//97 111//97
f 96//98 97//98 112//98
f 50//99 95//100 76//101
f 112//102 98//102 113//102
f 112//103 97//103 98//103
f 40//104 99//105 50//105
f 40//104 102//106 99//105
f 114//107 100//108 101//109
f 41//104 102//106 40//104
f 44//110 103//110 41//110
f 101//111 104//111 115//111
f 115//112 84//112 105//112
f 115//112 104//112 84//112
f 45//55 103//55 44//55
f 45//55 86//55 103//55
f 64//10 79//10 116//10
f 64//10 65//10 79//10
f 117//31 119//31 118//31
f 117//31 120//31 119//31
f 121//30 120//30 117//30
f 121//30 122//30 120//30
f 123//29 122//29 121//29
f 123//29 124//29 122//29
f 125//28 124//28 123//28
f 125//28 126//28 124//28
f 126//32 128//32 127//32
f 126//32 125//32 128//32
f 129//9 26//9 130//9
f 129//9 25//9 26//9
f 130//9 1//9 131//9
f 130//9 26//9 1//9
f 131//1 2//1 132//1
f 131//1 1//1 2//1
f 132//1 5//1 133//1
f 132//1 2//1 5//1
f 133//1 8//1 134//1
f 133//1 5//1 8//1
f 9//1 134//1 8//1
f 9//1 135//1 134//1
f 135//1 11//1 28//1
f 135//1 9//1 11//1
f 136//1 132//1 137//1
f 136//1 131//1 132//1
f 137//1 133//1 138//1
f 137//1 132//1 133//1
f 138//1 134//1 139//1
f 138//1 133//1 134//1
f 135//1 139//1 134//1
f 135//1 140//1 139//1
f 140//1 28//1 141//1
f 140//1 135//1 28//1
f 29//1 141//1 28//1
f 29//1 109//1 141//1
f 109//1 106//1 108//1
f 109//1 29//1 106//1
f 89//88 108//113 106//89
f 89//114 93//114 108//114
f 90//1 93//1 89//1
f 90//1 92//1 93//1
f 68//115 90//90 73//92
f 68//116 92//116 90//116
f 74//1 68//1 73//1
f 74//1 67//1 68//1
f 72//36 142//117 71//35
f 72//36 143//118 142//117
f 69//119 75//119 76//119
f 69//120 66//120 75//120
f 95//100 69//121 76//101
f 95//122 91//122 69//122
f 94//63 95//63 96//63
f 94//123 91//123 95//123
f 107//97 96//97 111//97
f 107//124 94//124 96//124
f 110//76 111//76 70//76
f 110//125 107//125 111//125
f 110//34 63//34 144//34
f 110//34 70//34 63//34
f 144//10 64//10 145//10
f 144//10 63//10 64//10
f 146//10 64//10 116//10
f 146//10 145//10 64//10
f 147//31 149//31 148//31
f 147//31 150//31 149//31
f 151//30 150//30 147//30
f 151//30 152//30 150//30
f 153//29 152//29 151//29
f 153//29 154//29 152//29
f 155//28 154//28 153//28
f 155//28 156//28 154//28
f 157//32 155//32 158//32
f 157//32 156//32 155//32
f 159//9 130//9 160//9
f 159//9 129//9 130//9
f 160//9 131//9 136//9
f 160//9 130//9 131//9
f 161//126 163//127 162//126
f 161//126 164//127 163//127
f 162//128 165//128 161//128
f 162//128 166//128 165//128
f 166//128 167//129 165//128
f 166//128 168//129 167//129
f 168//129 83//128 167//129
f 168//129 82//128 83//128
f 166//9 163//9 169//9
f 166//9 162//9 163//9
f 164//130 165//130 170//130
f 164//130 161//130 165//130
f 170//130 167//130 171//130
f 170//130 165//130 167//130
f 168//9 169//9 172//9
f 168//9 166//9 169//9
f 83//130 171//130 167//130
f 83//130 80//130 171//130
f 168//9 81//9 82//9
f 168//9 172//9 81//9
f 164//127 27//126 163//127
f 164//127 62//126 27//126
f 61//130 164//130 170//130
f 61//130 62//130 164//130
f 127//130 174//130 173//130
f 127//130 128//130 174//130
f 80//130 158//130 171//130
f 80//130 157//130 158//130
f 138//131 136//131 137//131
f 160//132 81//132 159//133
f 138//55 160//55 136//55
f 141//134 139//134 140//135
f 139//55 160//55 138//55
f 160//55 80//55 81//55
f 160//55 157//55 80//55
f 141//55 160//55 139//55
f 110//55 141//55 109//55
f 145//55 110//55 144//55
f 149//136 145//135 146//137
f 145//55 141//55 110//55
f 160//55 156//55 157//55
f 160//55 154//55 156//55
f 149//55 141//55 145//55
f 150//55 141//55 149//55
f 141//55 154//55 160//55
f 152//55 141//55 150//55
f 154//55 141//55 152//55
f 172//9 159//9 81//9
f 172//9 129//9 159//9
f 169//9 129//9 172//9
f 169//9 25//9 129//9
f 163//9 25//9 169//9
f 163//9 27//9 25//9
f 149//10 116//10 148//10
f 149//10 146//10 116//10
f 175//10 119//10 176//10
f 175//10 118//10 119//10
f 21//10 60//10 79//10
f 21//10 20//10 60//10
f 19//8 21//8 22//8
f 19//8 20//8 21//8
f 113//78 19//78 22//78
f 113//138 114//138 19//138
f 98//102 114//102 113//102
f 98//139 100//108 114//107
f 99//65 100//65 98//65
f 99//140 102//140 100//140
f 59//141 118//141 60//141
f 59//142 117//143 118//144
f 148//145 120//146 147//147
f 148//145 119//148 120//146
f 57//149 117//143 59//142
f 57//149 121//150 117//143
f 147//147 122//151 151//152
f 147//147 120//146 122//151
f 54//153 121//153 57//153
f 54//154 123//155 121//156
f 151//157 124//158 153//159
f 151//157 122//160 124//158
f 55//161 123//155 54//154
f 55//162 125//162 123//162
f 153//163 126//163 155//163
f 153//159 124//158 126//164
f 155//165 127//166 158//167
f 155//165 126//168 127//166
f 61//169 125//170 55//171
f 61//169 128//172 125//170
f 158//173 173//174 171//175
f 158//173 127//176 173//174
f 171//177 174//177 170//177
f 171//177 173//177 174//177
f 170//178 128//179 61//180
f 170//178 174//181 128//179
f 79//9 176//9 116//9
f 79//9 175//9 176//9
f 116//182 119//182 148//182
f 116//183 176//183 119//183
f 60//184 175//184 79//184
f 60//185 118//185 175//185
f 36//11 177//186 39//187
f 36//11 178//11 177//186
f 43//188 179//189 42//189
f 43//188 180//190 179//189
f 39//187 181//191 49//192
f 39//187 177//186 181//191
f 51//35 180//190 43//188
f 51//35 182//193 180//190
f 49//192 183//194 74//194
f 49//192 181//191 183//194
f 75//195 182//193 51//35
f 75//195 184//195 182//193
f 46//189 178//11 36//11
f 46//189 185//189 178//11
f 42//189 186//11 47//11
f 42//189 179//189 186//11
f 47//11 185//189 46//189
f 47//11 186//11 185//189
f 74//194 187//196 67//197
f 74//194 183//194 187//196
f 67//197 188//198 66//191
f 67//197 187//196 188//198
f 66//191 184//195 75//195
f 66//191 188//198 184//195
f 178//10 32//10 177//10
f 178//10 31//10 32//10
f 180//199 30//199 179//199
f 180//199 33//199 30//199
f 177//10 34//10 181//10
f 177//10 32//10 34//10
f 182//200 33//201 180//201
f 182//200 35//202 33//201
f 181//10 71//10 183//10
f 181//10 34//10 71//10
f 184//203 35//202 182//200
f 184//203 72//203 35//202
f 185//10 31//10 178//10
f 185//10 77//10 31//10
f 179//199 78//204 186//204
f 179//199 30//199 78//204
f 186//205 77//205 185//205
f 186//205 78//205 77//205
f 183//10 142//10 187//10
f 183//10 71//10 142//10
f 187//206 143//206 188//206
f 187//206 142//206 143//206
f 188//203 72//203 184//203
f 188//203 143//203 72//203
