# Blender v3.1.2 OBJ File: 'Playfield_Blockout_Godot_03_Collision.blend'
# www.blender.org
mtllib top_right_corner.mtl
o Plunger_Lane.001_Cube.001
v 4.270928 0.579321 -5.573911
v 4.284407 -0.011701 -5.573951
v 1.243634 0.577730 -7.951461
v 1.246613 0.010440 -7.961602
v 4.254443 0.579315 -5.734417
v 1.693002 0.577886 -7.923926
v 2.100314 0.578235 -7.844494
v 2.481503 0.578551 -7.716964
v 2.829526 0.578780 -7.548402
v 3.140276 0.578940 -7.347256
v 3.412374 0.579053 -7.122084
v 3.645730 0.579135 -6.881329
v 3.840813 0.579196 -6.633334
v 3.998347 0.579242 -6.386380
v 4.119179 0.579276 -6.148725
v 4.204223 0.579300 -5.928629
v 4.268005 -0.011512 -5.734735
v 1.704047 0.008299 -7.932899
v 2.117981 0.007475 -7.851890
v 2.501353 0.005507 -7.722840
v 2.849276 0.002883 -7.553098
v 3.159102 0.000141 -7.351052
v 3.430098 -0.002432 -7.125165
v 3.662406 -0.004728 -6.883806
v 3.856571 -0.006716 -6.635283
v 4.013331 -0.008397 -6.387859
v 4.133536 -0.009767 -6.149778
v 4.218103 -0.010813 -5.929297
v 1.243634 0.577730 -8.034384
v 1.246613 0.010440 -8.044524
v 4.463138 0.577730 -8.034383
v 4.466117 0.010440 -8.044523
v 4.463138 0.577730 -5.568047
v 4.466117 0.010440 -5.578187
vt 0.588750 0.500000
vt 0.411250 0.500000
vt 0.411250 0.498169
vt 0.588750 0.498169
vt 0.411250 0.496338
vt 0.588750 0.496338
vt 0.411250 0.494507
vt 0.588750 0.494507
vt 0.411250 0.492676
vt 0.588750 0.492676
vt 0.411250 0.490845
vt 0.588750 0.490845
vt 0.411250 0.489014
vt 0.588750 0.489014
vt 0.411250 0.487183
vt 0.588750 0.487183
vt 0.411250 0.485352
vt 0.588750 0.485352
vt 0.411250 0.483521
vt 0.588750 0.483522
vt 0.411250 0.481691
vt 0.588750 0.481691
vt 0.411250 0.479860
vt 0.588750 0.479860
vt 0.411250 0.478029
vt 0.588750 0.478029
vt 0.411250 0.476198
vt 0.588750 0.476198
vt 0.588750 0.500000
vt 0.411250 0.500000
vt 0.588750 0.500000
vt 0.411250 0.500000
vt 0.588750 0.500000
vt 0.411250 0.500000
vn -0.7257 -0.0157 0.6878
vn -0.7305 -0.0156 0.6828
vn -0.1279 -0.0183 0.9916
vn -0.1264 -0.0183 0.9918
vn -0.2567 -0.0202 0.9663
vn -0.2544 -0.0202 0.9669
vn -0.3797 -0.0225 0.9248
vn -0.3774 -0.0224 0.9258
vn -0.4930 -0.0239 0.8697
vn -0.4910 -0.0239 0.8708
vn -0.5937 -0.0246 0.8043
vn -0.5921 -0.0246 0.8055
vn -0.6806 -0.0246 0.7322
vn -0.6795 -0.0246 0.7333
vn -0.7544 -0.0244 0.6559
vn -0.7536 -0.0244 0.6568
vn -0.8166 -0.0239 0.5767
vn -0.8160 -0.0239 0.5775
vn -0.8690 -0.0235 0.4942
vn -0.8686 -0.0235 0.4949
vn -0.9138 -0.0231 0.4056
vn -0.9135 -0.0231 0.4062
vn -0.9523 -0.0228 0.3044
vn -0.9521 -0.0228 0.3049
vn -0.9842 -0.0228 0.1758
vn -0.9841 -0.0228 0.1762
vn -0.6919 -0.0216 0.7217
vn -0.6784 -0.0214 0.7343
vn -0.7123 0.0088 -0.7018
vn -0.7019 0.0090 -0.7122
vn 0.7099 0.0163 -0.7041
vn 0.7042 0.0164 -0.7098
vn 0.6987 -0.0026 0.7154
vn 0.6842 -0.0028 0.7293
usemtl Material.019
s 1
f 3/1/1 4/2/2 18/3/3 6/4/4
f 6/4/4 18/3/3 19/5/5 7/6/6
f 7/6/6 19/5/5 20/7/7 8/8/8
f 8/8/8 20/7/7 21/9/9 9/10/10
f 9/10/10 21/9/9 22/11/11 10/12/12
f 10/12/12 22/11/11 23/13/13 11/14/14
f 11/14/14 23/13/13 24/15/15 12/16/16
f 12/16/16 24/15/15 25/17/17 13/18/18
f 13/18/18 25/17/17 26/19/19 14/20/20
f 14/20/20 26/19/19 27/21/21 15/22/22
f 15/22/22 27/21/21 28/23/23 16/24/24
f 16/24/24 28/23/23 17/25/25 5/26/26
f 5/26/26 17/25/25 2/27/27 1/28/28
f 4/2/2 3/1/1 29/29/29 30/30/30
f 30/30/30 29/29/29 31/31/31 32/32/32
f 32/32/32 31/31/31 33/33/33 34/34/34
f 2/27/27 34/34/34 33/33/33 1/28/28
