# Blender v2.81 (sub 16) OBJ File: ''
# www.blender.org
mtllib bumper_wireframe.mtl
o Cylinder
v 0.000000 -0.906095 -0.884322
v 0.000000 -1.093905 -1.115678
v 0.000000 0.906095 -0.884322
v 0.000000 1.093905 -1.115678
v 0.625311 -0.906095 -0.625311
v 0.788903 -1.093905 -0.788903
v 0.625311 0.906095 -0.625311
v 0.788903 1.093905 -0.788903
v 0.884322 -0.906095 0.000000
v 1.115678 -1.093905 0.000000
v 0.884322 0.906095 0.000000
v 1.115678 1.093905 0.000000
v 0.625311 -0.906095 0.625311
v 0.788903 -1.093905 0.788903
v 0.625311 0.906095 0.625311
v 0.788903 1.093905 0.788903
v -0.000000 -0.906095 0.884322
v -0.000000 -1.093905 1.115678
v -0.000000 0.906095 0.884322
v -0.000000 1.093905 1.115678
v -0.625311 -0.906095 0.625311
v -0.788903 -1.093905 0.788903
v -0.625311 0.906095 0.625311
v -0.788903 1.093905 0.788903
v -0.884322 -0.906095 -0.000000
v -1.115678 -1.093905 -0.000000
v -0.884322 0.906095 -0.000000
v -1.115678 1.093905 -0.000000
v -0.625311 -0.906095 -0.625311
v -0.788903 -1.093905 -0.788903
v -0.625311 0.906095 -0.625311
v -0.788903 1.093905 -0.788903
v 0.137658 -0.851000 -0.942980
v 0.137658 0.851000 -0.942980
v 0.569449 0.851000 -0.764127
v 0.569449 -0.851000 -0.764127
v 0.764127 -0.851000 -0.569449
v 0.764127 0.851000 -0.569449
v 0.942980 0.851000 -0.137658
v 0.942980 -0.851000 -0.137658
v 0.942980 -0.851000 0.137658
v 0.942980 0.851000 0.137658
v 0.764127 0.851000 0.569449
v 0.764127 -0.851000 0.569449
v 0.569449 -0.851000 0.764127
v 0.569449 0.851000 0.764127
v 0.137658 0.851000 0.942980
v 0.137658 -0.851000 0.942980
v -0.137658 -0.851000 0.942980
v -0.137658 0.851000 0.942980
v -0.569449 0.851000 0.764127
v -0.569449 -0.851000 0.764127
v -0.764127 -0.851000 0.569449
v -0.764127 0.851000 0.569449
v -0.942980 0.851000 0.137658
v -0.942980 -0.851000 0.137658
v 0.593067 1.000000 -0.593067
v 0.000000 1.000000 -0.838724
v -0.593067 1.000000 -0.593067
v -0.838724 1.000000 -0.000000
v -0.593067 1.000000 0.593067
v -0.000000 1.000000 0.838724
v 0.593067 1.000000 0.593067
v 0.838724 1.000000 0.000000
v -0.942980 -0.851000 -0.137658
v -0.942980 0.851000 -0.137658
v -0.764127 0.851000 -0.569449
v -0.764127 -0.851000 -0.569449
v -0.569449 -0.851000 -0.764127
v -0.569449 0.851000 -0.764127
v -0.137658 0.851000 -0.942980
v -0.137658 -0.851000 -0.942980
v 0.000000 -1.000000 -0.838724
v 0.593067 -1.000000 -0.593067
v 0.838724 -1.000000 0.000000
v 0.593067 -1.000000 0.593067
v -0.000000 -1.000000 0.838724
v -0.593067 -1.000000 0.593067
v -0.838724 -1.000000 -0.000000
v -0.593067 -1.000000 -0.593067
vt 1.000000 0.500000
vt 1.000000 1.000000
vt 1.000000 1.000000
vt 1.000000 0.500000
vt 1.000000 0.500000
vt 1.000000 1.000000
vt 0.875000 1.000000
vt 0.875000 1.000000
vt 0.875000 1.000000
vt 0.875000 0.500000
vt 0.875000 0.500000
vt 0.875000 0.500000
vt 0.875000 0.500000
vt 0.875000 1.000000
vt 0.750000 1.000000
vt 0.750000 1.000000
vt 0.750000 1.000000
vt 0.750000 0.500000
vt 0.750000 0.500000
vt 0.750000 0.500000
vt 0.750000 0.500000
vt 0.750000 1.000000
vt 0.625000 1.000000
vt 0.625000 1.000000
vt 0.625000 1.000000
vt 0.625000 0.500000
vt 0.625000 0.500000
vt 0.625000 0.500000
vt 0.625000 0.500000
vt 0.625000 1.000000
vt 0.500000 1.000000
vt 0.500000 1.000000
vt 0.500000 1.000000
vt 0.500000 0.500000
vt 0.500000 0.500000
vt 0.500000 0.500000
vt 0.500000 0.500000
vt 0.500000 1.000000
vt 0.375000 1.000000
vt 0.375000 1.000000
vt 0.375000 1.000000
vt 0.375000 0.500000
vt 0.375000 0.500000
vt 0.375000 0.500000
vt 0.375000 0.500000
vt 0.375000 1.000000
vt 0.250000 1.000000
vt 0.250000 1.000000
vt 0.250000 1.000000
vt 0.250000 0.500000
vt 0.250000 0.500000
vt 0.250000 0.500000
vt 0.419706 0.419706
vt 0.250000 0.490000
vt 0.250000 0.490000
vt 0.419706 0.419706
vt 0.419706 0.419706
vt 0.250000 0.490000
vt 0.080294 0.419706
vt 0.080294 0.419706
vt 0.080294 0.419706
vt 0.010000 0.250000
vt 0.010000 0.250000
vt 0.010000 0.250000
vt 0.080294 0.080294
vt 0.080294 0.080294
vt 0.080294 0.080294
vt 0.250000 0.010000
vt 0.250000 0.010000
vt 0.250000 0.010000
vt 0.419706 0.080294
vt 0.419706 0.080294
vt 0.419706 0.080294
vt 0.490000 0.250000
vt 0.490000 0.250000
vt 0.490000 0.250000
vt 0.250000 0.500000
vt 0.250000 1.000000
vt 0.125000 1.000000
vt 0.125000 1.000000
vt 0.125000 1.000000
vt 0.125000 0.500000
vt 0.125000 0.500000
vt 0.125000 0.500000
vt 0.125000 0.500000
vt 0.125000 1.000000
vt 0.000000 1.000000
vt 0.000000 1.000000
vt 0.000000 1.000000
vt 0.000000 0.500000
vt 0.000000 0.500000
vt 0.000000 0.500000
vt 0.750000 0.490000
vt 0.919706 0.419706
vt 0.919706 0.419706
vt 0.750000 0.490000
vt 0.750000 0.490000
vt 0.919706 0.419706
vt 0.990000 0.250000
vt 0.990000 0.250000
vt 0.990000 0.250000
vt 0.919706 0.080294
vt 0.919706 0.080294
vt 0.919706 0.080294
vt 0.750000 0.010000
vt 0.750000 0.010000
vt 0.750000 0.010000
vt 0.580294 0.080294
vt 0.580294 0.080294
vt 0.580294 0.080294
vt 0.510000 0.250000
vt 0.510000 0.250000
vt 0.510000 0.250000
vt 0.580294 0.419706
vt 0.580294 0.419706
vt 0.580294 0.419706
vn 0.3920 0.0000 0.9200
vn 0.7820 0.0000 -0.6233
vn -0.1754 -0.8888 0.4233
vn 0.3503 -0.4027 -0.8456
vn -0.9277 0.0000 0.3733
vn -0.1122 0.0000 -0.9937
vn -0.1754 0.8888 0.4233
vn 0.3503 0.4027 -0.8456
vn -0.3733 0.0000 0.9277
vn 0.9937 0.0000 0.1122
vn -0.4233 -0.8888 0.1754
vn 0.8456 -0.4027 -0.3503
vn -0.9200 0.0000 -0.3920
vn 0.6233 0.0000 -0.7820
vn -0.4233 0.8888 0.1754
vn 0.8456 0.4027 -0.3503
vn -0.9200 0.0000 0.3920
vn 0.6233 0.0000 0.7820
vn -0.4233 -0.8888 -0.1754
vn 0.8456 -0.4027 0.3503
vn -0.3733 0.0000 -0.9277
vn 0.9937 0.0000 -0.1122
vn -0.4233 0.8888 -0.1754
vn 0.8456 0.4027 0.3503
vn -0.9277 0.0000 -0.3733
vn -0.1122 0.0000 0.9937
vn -0.1754 -0.8888 -0.4233
vn 0.3503 -0.4027 0.8456
vn 0.3920 0.0000 -0.9200
vn 0.7820 0.0000 0.6233
vn -0.1754 0.8888 -0.4233
vn 0.3503 0.4027 0.8456
vn -0.3920 0.0000 -0.9200
vn -0.7820 0.0000 0.6233
vn 0.1754 -0.8888 -0.4233
vn -0.3503 -0.4027 0.8456
vn 0.9277 0.0000 -0.3733
vn 0.1122 0.0000 0.9937
vn 0.1754 0.8888 -0.4233
vn -0.3503 0.4027 0.8456
vn 0.3733 0.0000 -0.9277
vn -0.9937 0.0000 -0.1122
vn 0.4233 -0.8888 -0.1754
vn -0.8456 -0.4027 0.3503
vn 0.9200 0.0000 0.3920
vn -0.6233 0.0000 0.7820
vn 0.4233 0.8888 -0.1754
vn -0.8456 0.4027 0.3503
vn -0.3492 -0.4093 0.8429
vn -0.1318 0.9388 0.3183
vn 0.3492 -0.4093 0.8429
vn 0.1318 0.9388 0.3183
vn 0.8429 -0.4093 0.3492
vn 0.3183 0.9388 0.1318
vn 0.8429 -0.4093 -0.3492
vn 0.3183 0.9388 -0.1318
vn 0.3492 -0.4093 -0.8429
vn 0.1318 0.9388 -0.3183
vn -0.3492 -0.4093 -0.8429
vn -0.1318 0.9388 -0.3183
vn -0.8429 -0.4093 -0.3492
vn -0.3183 0.9388 -0.1318
vn -0.8429 -0.4093 0.3492
vn -0.3183 0.9388 0.1318
vn 0.9200 0.0000 -0.3920
vn -0.6233 0.0000 -0.7820
vn 0.4233 -0.8888 0.1754
vn -0.8456 -0.4027 -0.3503
vn 0.3733 0.0000 0.9277
vn -0.9937 0.0000 0.1122
vn 0.4233 0.8888 0.1754
vn -0.8456 0.4027 -0.3503
vn 0.9277 0.0000 0.3733
vn 0.1122 0.0000 -0.9937
vn 0.1754 -0.8888 0.4233
vn -0.3503 -0.4027 -0.8456
vn -0.3920 0.0000 0.9200
vn -0.7820 0.0000 -0.6233
vn 0.1754 0.8888 0.4233
vn -0.3503 0.4027 -0.8456
vn -0.3492 0.4093 0.8429
vn -0.1318 -0.9388 0.3183
vn -0.8429 0.4093 0.3492
vn -0.3183 -0.9388 0.1318
vn -0.8429 0.4093 -0.3492
vn -0.3183 -0.9388 -0.1318
vn -0.3492 0.4093 -0.8429
vn -0.1318 -0.9388 -0.3183
vn 0.3492 0.4093 -0.8429
vn 0.1318 -0.9388 -0.3183
vn 0.8429 0.4093 -0.3492
vn 0.3183 -0.9388 -0.1318
vn 0.8429 0.4093 0.3492
vn 0.3183 -0.9388 0.1318
vn 0.3492 0.4093 0.8429
vn 0.1318 -0.9388 0.3183
usemtl None
s off
f 33/1/1 34/2/1 3/3/1 1/4/1
f 34/2/2 33/1/2 2/5/2 4/6/2
f 34/2/3 35/7/3 7/8/3 3/3/3
f 35/7/4 34/2/4 4/6/4 8/9/4
f 35/7/5 36/10/5 5/11/5 7/8/5
f 36/10/6 35/7/6 8/9/6 6/12/6
f 36/10/7 33/1/7 1/4/7 5/11/7
f 33/1/8 36/10/8 6/12/8 2/5/8
f 37/13/9 38/14/9 7/8/9 5/11/9
f 38/14/10 37/13/10 6/12/10 8/9/10
f 38/14/11 39/15/11 11/16/11 7/8/11
f 39/15/12 38/14/12 8/9/12 12/17/12
f 39/15/13 40/18/13 9/19/13 11/16/13
f 40/18/14 39/15/14 12/17/14 10/20/14
f 40/18/15 37/13/15 5/11/15 9/19/15
f 37/13/16 40/18/16 10/20/16 6/12/16
f 41/21/17 42/22/17 11/16/17 9/19/17
f 42/22/18 41/21/18 10/20/18 12/17/18
f 42/22/19 43/23/19 15/24/19 11/16/19
f 43/23/20 42/22/20 12/17/20 16/25/20
f 43/23/21 44/26/21 13/27/21 15/24/21
f 44/26/22 43/23/22 16/25/22 14/28/22
f 44/26/23 41/21/23 9/19/23 13/27/23
f 41/21/24 44/26/24 14/28/24 10/20/24
f 45/29/25 46/30/25 15/24/25 13/27/25
f 46/30/26 45/29/26 14/28/26 16/25/26
f 46/30/27 47/31/27 19/32/27 15/24/27
f 47/31/28 46/30/28 16/25/28 20/33/28
f 47/31/29 48/34/29 17/35/29 19/32/29
f 48/34/30 47/31/30 20/33/30 18/36/30
f 48/34/31 45/29/31 13/27/31 17/35/31
f 45/29/32 48/34/32 18/36/32 14/28/32
f 49/37/33 50/38/33 19/32/33 17/35/33
f 50/38/34 49/37/34 18/36/34 20/33/34
f 50/38/35 51/39/35 23/40/35 19/32/35
f 51/39/36 50/38/36 20/33/36 24/41/36
f 51/39/37 52/42/37 21/43/37 23/40/37
f 52/42/38 51/39/38 24/41/38 22/44/38
f 52/42/39 49/37/39 17/35/39 21/43/39
f 49/37/40 52/42/40 22/44/40 18/36/40
f 53/45/41 54/46/41 23/40/41 21/43/41
f 54/46/42 53/45/42 22/44/42 24/41/42
f 54/46/43 55/47/43 27/48/43 23/40/43
f 55/47/44 54/46/44 24/41/44 28/49/44
f 55/47/45 56/50/45 25/51/45 27/48/45
f 56/50/46 55/47/46 28/49/46 26/52/46
f 56/50/47 53/45/47 21/43/47 25/51/47
f 53/45/48 56/50/48 26/52/48 22/44/48
f 57/53/49 58/54/49 3/55/49 7/56/49
f 58/54/50 57/53/50 8/57/50 4/58/50
f 58/54/51 59/59/51 31/60/51 3/55/51
f 59/59/52 58/54/52 4/58/52 32/61/52
f 59/59/53 60/62/53 27/63/53 31/60/53
f 60/62/54 59/59/54 32/61/54 28/64/54
f 60/62/55 61/65/55 23/66/55 27/63/55
f 61/65/56 60/62/56 28/64/56 24/67/56
f 61/65/57 62/68/57 19/69/57 23/66/57
f 62/68/58 61/65/58 24/67/58 20/70/58
f 62/68/59 63/71/59 15/72/59 19/69/59
f 63/71/60 62/68/60 20/70/60 16/73/60
f 63/71/61 64/74/61 11/75/61 15/72/61
f 64/74/62 63/71/62 16/73/62 12/76/62
f 64/74/63 57/53/63 7/56/63 11/75/63
f 57/53/64 64/74/64 12/76/64 8/57/64
f 65/77/65 66/78/65 27/48/65 25/51/65
f 66/78/66 65/77/66 26/52/66 28/49/66
f 66/78/67 67/79/67 31/80/67 27/48/67
f 67/79/68 66/78/68 28/49/68 32/81/68
f 67/79/69 68/82/69 29/83/69 31/80/69
f 68/82/70 67/79/70 32/81/70 30/84/70
f 68/82/71 65/77/71 25/51/71 29/83/71
f 65/77/72 68/82/72 30/84/72 26/52/72
f 69/85/73 70/86/73 31/80/73 29/83/73
f 70/86/74 69/85/74 30/84/74 32/81/74
f 70/86/75 71/87/75 3/88/75 31/80/75
f 71/87/76 70/86/76 32/81/76 4/89/76
f 71/87/77 72/90/77 1/91/77 3/88/77
f 72/90/78 71/87/78 4/89/78 2/92/78
f 72/90/79 69/85/79 29/83/79 1/91/79
f 69/85/80 72/90/80 2/92/80 30/84/80
f 73/93/81 74/94/81 5/95/81 1/96/81
f 74/94/82 73/93/82 2/97/82 6/98/82
f 74/94/83 75/99/83 9/100/83 5/95/83
f 75/99/84 74/94/84 6/98/84 10/101/84
f 75/99/85 76/102/85 13/103/85 9/100/85
f 76/102/86 75/99/86 10/101/86 14/104/86
f 76/102/87 77/105/87 17/106/87 13/103/87
f 77/105/88 76/102/88 14/104/88 18/107/88
f 77/105/89 78/108/89 21/109/89 17/106/89
f 78/108/90 77/105/90 18/107/90 22/110/90
f 78/108/91 79/111/91 25/112/91 21/109/91
f 79/111/92 78/108/92 22/110/92 26/113/92
f 79/111/93 80/114/93 29/115/93 25/112/93
f 80/114/94 79/111/94 26/113/94 30/116/94
f 80/114/95 73/93/95 1/96/95 29/115/95
f 73/93/96 80/114/96 30/116/96 2/97/96
