# Blender v2.81 (sub 16) OBJ File: ''
# www.blender.org
mtllib long_box_wireframe.mtl
o Cube_Cube.001
v -0.159282 -0.159282 5.924680
v -0.244730 -0.244730 6.010128
v -0.159282 0.159282 5.924680
v -0.244730 0.244730 6.010128
v -0.159282 -0.159282 -5.924680
v -0.244730 -0.244730 -6.010128
v -0.159282 0.159282 -5.924680
v -0.244730 0.244730 -6.010128
v 0.159282 -0.159282 5.924680
v 0.244730 -0.244730 6.010128
v 0.159282 0.159282 5.924680
v 0.244730 0.244730 6.010128
v 0.159282 -0.159282 -5.924680
v 0.244730 -0.244730 -6.010128
v 0.159282 0.159282 -5.924680
v 0.244730 0.244730 -6.010128
v -0.202006 -0.149680 5.915079
v -0.202006 0.149680 5.915079
v -0.202006 0.149680 -5.915079
v -0.202006 -0.149680 -5.915079
v -0.149680 -0.149680 -5.967404
v -0.149680 0.149680 -5.967404
v 0.149680 0.149680 -5.967404
v 0.149680 -0.149680 -5.967404
v 0.202006 -0.149680 -5.915079
v 0.202006 0.149680 -5.915079
v 0.202006 0.149680 5.915079
v 0.202006 -0.149680 5.915079
v 0.149680 -0.149680 5.967404
v 0.149680 0.149680 5.967404
v -0.149680 0.149680 5.967404
v -0.149680 -0.149680 5.967404
v -0.149680 -0.202006 -5.915079
v 0.149680 -0.202006 -5.915079
v 0.149680 -0.202006 5.915079
v -0.149680 -0.202006 5.915079
v 0.149680 0.202006 -5.915079
v -0.149680 0.202006 -5.915079
v -0.149680 0.202006 5.915079
v 0.149680 0.202006 5.915079
vt 0.375000 0.000000
vt 0.625000 0.000000
vt 0.625000 0.000000
vt 0.375000 0.000000
vt 0.375000 0.000000
vt 0.625000 0.000000
vt 0.625000 0.250000
vt 0.625000 0.250000
vt 0.625000 0.250000
vt 0.375000 0.250000
vt 0.375000 0.250000
vt 0.375000 0.250000
vt 0.375000 0.250000
vt 0.625000 0.250000
vt 0.625000 0.500000
vt 0.625000 0.500000
vt 0.625000 0.500000
vt 0.375000 0.500000
vt 0.375000 0.500000
vt 0.375000 0.500000
vt 0.375000 0.500000
vt 0.625000 0.500000
vt 0.625000 0.750000
vt 0.625000 0.750000
vt 0.625000 0.750000
vt 0.375000 0.750000
vt 0.375000 0.750000
vt 0.375000 0.750000
vt 0.375000 0.750000
vt 0.625000 0.750000
vt 0.625000 1.000000
vt 0.625000 1.000000
vt 0.625000 1.000000
vt 0.375000 1.000000
vt 0.375000 1.000000
vt 0.375000 1.000000
vt 0.125000 0.500000
vt 0.375000 0.500000
vt 0.125000 0.500000
vt 0.125000 0.500000
vt 0.375000 0.750000
vt 0.125000 0.750000
vt 0.125000 0.750000
vt 0.125000 0.750000
vt 0.625000 0.500000
vt 0.875000 0.500000
vt 0.875000 0.500000
vt 0.875000 0.500000
vt 0.875000 0.750000
vt 0.875000 0.750000
vt 0.875000 0.750000
vt 0.625000 0.750000
vn 0.2193 0.0000 -0.9757
vn -0.9121 0.0000 -0.4100
vn 0.2193 -0.9757 0.0000
vn -0.9121 -0.4100 0.0000
vn 0.2193 0.0000 0.9757
vn -0.9121 0.0000 0.4100
vn 0.2193 0.9757 0.0000
vn -0.9121 0.4100 0.0000
vn 0.9757 0.0000 0.2193
vn 0.4100 0.0000 -0.9121
vn 0.0000 -0.9757 0.2193
vn 0.0000 -0.4100 -0.9121
vn -0.9757 0.0000 0.2193
vn -0.4100 0.0000 -0.9121
vn 0.0000 0.9757 0.2193
vn 0.0000 0.4100 -0.9121
vn -0.2193 0.0000 0.9757
vn 0.9121 0.0000 0.4100
vn -0.2193 -0.9757 0.0000
vn 0.9121 -0.4100 0.0000
vn -0.2193 0.0000 -0.9757
vn 0.9121 0.0000 -0.4100
vn -0.2193 0.9757 0.0000
vn 0.9121 0.4100 0.0000
vn -0.9757 0.0000 -0.2193
vn -0.4100 0.0000 0.9121
vn 0.0000 -0.9757 -0.2193
vn 0.0000 -0.4100 0.9121
vn 0.9757 0.0000 -0.2193
vn 0.4100 0.0000 0.9121
vn 0.0000 0.9757 -0.2193
vn 0.0000 0.4100 0.9121
vn 0.0000 0.2193 0.9757
vn 0.0000 -0.9121 0.4100
vn -0.9757 0.2193 0.0000
vn -0.4100 -0.9121 0.0000
vn 0.0000 0.2193 -0.9757
vn 0.0000 -0.9121 -0.4100
vn 0.9757 0.2193 0.0000
vn 0.4100 -0.9121 0.0000
vn 0.0000 -0.2193 0.9757
vn 0.0000 0.9121 0.4100
vn 0.9757 -0.2193 0.0000
vn 0.4100 0.9121 0.0000
vn 0.0000 -0.2193 -0.9757
vn 0.0000 0.9121 -0.4100
vn -0.9757 -0.2193 0.0000
vn -0.4100 0.9121 0.0000
usemtl None
s off
f 17/1/1 18/2/1 3/3/1 1/4/1
f 18/2/2 17/1/2 2/5/2 4/6/2
f 18/2/3 19/7/3 7/8/3 3/3/3
f 19/7/4 18/2/4 4/6/4 8/9/4
f 19/7/5 20/10/5 5/11/5 7/8/5
f 20/10/6 19/7/6 8/9/6 6/12/6
f 20/10/7 17/1/7 1/4/7 5/11/7
f 17/1/8 20/10/8 6/12/8 2/5/8
f 21/13/9 22/14/9 7/8/9 5/11/9
f 22/14/10 21/13/10 6/12/10 8/9/10
f 22/14/11 23/15/11 15/16/11 7/8/11
f 23/15/12 22/14/12 8/9/12 16/17/12
f 23/15/13 24/18/13 13/19/13 15/16/13
f 24/18/14 23/15/14 16/17/14 14/20/14
f 24/18/15 21/13/15 5/11/15 13/19/15
f 21/13/16 24/18/16 14/20/16 6/12/16
f 25/21/17 26/22/17 15/16/17 13/19/17
f 26/22/18 25/21/18 14/20/18 16/17/18
f 26/22/19 27/23/19 11/24/19 15/16/19
f 27/23/20 26/22/20 16/17/20 12/25/20
f 27/23/21 28/26/21 9/27/21 11/24/21
f 28/26/22 27/23/22 12/25/22 10/28/22
f 28/26/23 25/21/23 13/19/23 9/27/23
f 25/21/24 28/26/24 10/28/24 14/20/24
f 29/29/25 30/30/25 11/24/25 9/27/25
f 30/30/26 29/29/26 10/28/26 12/25/26
f 30/30/27 31/31/27 3/32/27 11/24/27
f 31/31/28 30/30/28 12/25/28 4/33/28
f 31/31/29 32/34/29 1/35/29 3/32/29
f 32/34/30 31/31/30 4/33/30 2/36/30
f 32/34/31 29/29/31 9/27/31 1/35/31
f 29/29/32 32/34/32 2/36/32 10/28/32
f 33/37/33 34/38/33 13/19/33 5/39/33
f 34/38/34 33/37/34 6/40/34 14/20/34
f 34/38/35 35/41/35 9/27/35 13/19/35
f 35/41/36 34/38/36 14/20/36 10/28/36
f 35/41/37 36/42/37 1/43/37 9/27/37
f 36/42/38 35/41/38 10/28/38 2/44/38
f 36/42/39 33/37/39 5/39/39 1/43/39
f 33/37/40 36/42/40 2/44/40 6/40/40
f 37/45/41 38/46/41 7/47/41 15/16/41
f 38/46/42 37/45/42 16/17/42 8/48/42
f 38/46/43 39/49/43 3/50/43 7/47/43
f 39/49/44 38/46/44 8/48/44 4/51/44
f 39/49/45 40/52/45 11/24/45 3/50/45
f 40/52/46 39/49/46 4/51/46 12/25/46
f 40/52/47 37/45/47 15/16/47 11/24/47
f 37/45/48 40/52/48 12/25/48 16/17/48
