# Blender v2.81 (sub 16) OBJ File: ''
# www.blender.org
mtllib slope_mesh_wireframe.mtl
o Cube.001
v 0.913398 -0.913398 0.913397
v 1.086602 -1.086602 1.086602
v 0.951947 0.883985 0.917966
v 1.048053 1.116014 1.082034
v -0.883985 -0.951947 0.917966
v -1.116015 -1.048053 1.082034
v 0.951947 0.883986 -0.917966
v 1.048053 1.116015 -1.082034
v -0.883985 -0.951947 -0.917966
v -1.116015 -1.048053 -1.082034
v 0.913398 -0.913397 -0.913398
v 1.086602 -1.086602 -1.086602
v 0.850000 -0.850000 1.000000
v 0.850000 0.637868 1.000000
v -0.637868 -0.850000 1.000000
v -0.893934 -0.893934 0.850000
v 0.893934 0.893934 0.850000
v 0.893934 0.893934 -0.850000
v -0.893934 -0.893934 -0.850000
v -0.850000 -1.000000 -0.850000
v 0.850000 -1.000000 -0.850000
v 0.850000 -1.000000 0.850000
v -0.850000 -1.000000 0.850000
v 1.000000 -0.850000 -0.850000
v 1.000000 0.850000 -0.850000
v 1.000000 0.850000 0.850000
v 1.000000 -0.850000 0.850000
v -0.637868 -0.850000 -1.000000
v 0.850000 0.637868 -1.000000
v 0.850000 -0.850000 -1.000000
vt 0.375000 0.750000
vt 0.625000 1.000000
vt 0.625000 1.000000
vt 0.375000 0.750000
vt 0.375000 0.750000
vt 0.625000 1.000000
vt 0.375000 1.000000
vt 0.375000 1.000000
vt 0.375000 1.000000
vt 0.375000 0.000000
vt 0.625000 0.000000
vt 0.625000 0.000000
vt 0.375000 0.000000
vt 0.375000 0.000000
vt 0.625000 0.000000
vt 0.625000 0.250000
vt 0.625000 0.250000
vt 0.625000 0.250000
vt 0.375000 0.250000
vt 0.375000 0.250000
vt 0.375000 0.250000
vt 0.125000 0.500000
vt 0.375000 0.500000
vt 0.375000 0.500000
vt 0.125000 0.500000
vt 0.125000 0.500000
vt 0.375000 0.500000
vt 0.375000 0.750000
vt 0.125000 0.750000
vt 0.125000 0.750000
vt 0.125000 0.750000
vt 0.375000 0.500000
vt 0.625000 0.500000
vt 0.625000 0.500000
vt 0.625000 0.500000
vt 0.625000 0.750000
vt 0.625000 0.750000
vt 0.625000 0.750000
vt 0.375000 0.750000
vt 0.375000 0.250000
vt 0.625000 0.500000
vt 0.375000 0.500000
vn -0.6514 0.6514 0.3891
vn -0.4039 -0.7838 0.4717
vn -0.2505 -0.6728 -0.6961
vn -0.5786 0.5786 -0.5748
vn 0.5627 -0.5627 0.6057
vn 0.3266 0.8067 0.4926
vn 0.7838 0.4039 0.4717
vn 0.6728 0.2505 -0.6961
vn -0.8067 -0.3266 0.4926
vn 0.1672 0.8552 -0.4906
vn -0.8552 -0.1672 -0.4906
vn -0.8552 -0.1672 0.4906
vn -0.2505 -0.6728 0.6961
vn 0.3266 0.8067 -0.4926
vn 0.1672 0.8552 0.4906
vn 0.6728 0.2505 0.6961
vn -0.8067 -0.3266 -0.4926
vn 0.6513 -0.4970 0.5735
vn -0.6793 -0.4559 0.5751
vn -0.5786 0.5786 0.5748
vn 0.5627 -0.5627 -0.6057
vn -0.6793 -0.4559 -0.5751
vn 0.6513 -0.4970 -0.5735
vn 0.4559 0.6793 0.5751
vn 0.4970 -0.6513 0.5735
vn 0.4970 -0.6513 -0.5735
vn 0.4559 0.6793 -0.5751
vn 0.7838 0.4039 -0.4717
vn -0.4039 -0.7838 -0.4717
vn -0.6514 0.6514 -0.3891
usemtl Material.001
s 1
f 13/1/1 14/2/2 3/3/3 1/4/4
f 14/2/2 13/1/1 2/5/5 4/6/6
f 14/2/2 15/7/7 5/8/8 3/3/3
f 15/7/7 14/2/2 4/6/6 6/9/9
f 15/7/7 13/1/1 1/4/4 5/8/8
f 13/1/1 15/7/7 6/9/9 2/5/5
f 16/10/10 17/11/11 3/12/3 5/13/8
f 17/11/11 16/10/10 6/14/9 4/15/6
f 17/11/11 18/16/12 7/17/13 3/12/3
f 18/16/12 17/11/11 4/15/6 8/18/14
f 18/16/12 19/19/15 9/20/16 7/17/13
f 19/19/15 18/16/12 8/18/14 10/21/17
f 19/19/15 16/10/10 5/13/8 9/20/16
f 16/10/10 19/19/15 10/21/17 6/14/9
f 20/22/18 21/23/19 11/24/20 9/25/16
f 21/23/19 20/22/18 10/26/17 12/27/21
f 21/23/19 22/28/22 1/4/4 11/24/20
f 22/28/22 21/23/19 12/27/21 2/5/5
f 22/28/22 23/29/23 5/30/8 1/4/4
f 23/29/23 22/28/22 2/5/5 6/31/9
f 23/29/23 20/22/18 9/25/16 5/30/8
f 20/22/18 23/29/23 6/31/9 10/26/17
f 24/32/24 25/33/25 7/34/13 11/24/20
f 25/33/25 24/32/24 12/27/21 8/35/14
f 25/33/25 26/36/26 3/37/3 7/34/13
f 26/36/26 25/33/25 8/35/14 4/38/6
f 26/36/26 27/39/27 1/4/4 3/37/3
f 27/39/27 26/36/26 4/38/6 2/5/5
f 27/39/27 24/32/24 11/24/20 1/4/4
f 24/32/24 27/39/27 2/5/5 12/27/21
f 28/40/28 29/41/29 7/34/13 9/20/16
f 29/41/29 28/40/28 10/21/17 8/35/14
f 29/41/29 30/42/30 11/24/20 7/34/13
f 30/42/30 29/41/29 8/35/14 12/27/21
f 30/42/30 28/40/28 9/20/16 11/24/20
f 28/40/28 30/42/30 12/27/21 10/21/17
